<svg xmlns:dc="http://purl.org/dc/elements/1.1/" xmlns:cc="http://creativecommons.org/ns#" xmlns:rdf="http://www.w3.org/1999/02/22-rdf-syntax-ns#" xmlns:svg="http://www.w3.org/2000/svg" xmlns="http://www.w3.org/2000/svg" xmlns:sodipodi="http://sodipodi.sourceforge.net/DTD/sodipodi-0.dtd" xmlns:inkscape="http://www.inkscape.org/namespaces/inkscape" viewBox="0 0 292.35864 49.761547" height="74.6423205" width="438.53796" xml:space="preserve" id="svg2" version="1.1" sodipodi:docname="example_3-5b.svg" inkscape:version="0.92.4 (5da689c313, 2019-01-14)" viewbox="0 0 438.53796 74.6423205"><sodipodi:namedview pagecolor="#ffffff" bordercolor="#666666" borderopacity="1" objecttolerance="10" gridtolerance="10" guidetolerance="10" inkscape:pageopacity="0" inkscape:pageshadow="2" inkscape:window-width="640" inkscape:window-height="480" id="namedview53" showgrid="false" inkscape:zoom="0.22348485" inkscape:cx="-72.340409" inkscape:cy="-290.72324" inkscape:window-x="0" inkscape:window-y="0" inkscape:window-maximized="0" inkscape:current-layer="svg2"/><metadata id="metadata8"><rdf:RDF><cc:Work rdf:about=""><dc:format>image/svg+xml</dc:format><dc:type rdf:resource="http://purl.org/dc/dcmitype/StillImage"/></cc:Work></rdf:RDF></metadata><defs id="defs6"/><g transform="matrix(1.3333333,0,0,-1.3333333,-480.34041,868.48479)" id="g10"><g transform="matrix(0.06,0,0,-0.06,0,792)" id="g12"><g id="g14"><g id="g16"/></g><g id="g18"><g id="g20"/><g transform="scale(2.5835866,2.5834802)" id="g22"><path id="path24" style="fill:none;stroke:#000000;stroke-width:5;stroke-linecap:butt;stroke-linejoin:bevel;stroke-miterlimit:10;stroke-dasharray:none;stroke-opacity:1" d="m 2776,970 v 128" inkscape:connector-curvature="0"/><path id="path26" style="fill:none;stroke:#000000;stroke-width:5;stroke-linecap:butt;stroke-linejoin:bevel;stroke-miterlimit:10;stroke-dasharray:none;stroke-opacity:1" d="m 2793,970 v 128" inkscape:connector-curvature="0"/><path id="path28" style="fill:none;stroke:#000000;stroke-width:5;stroke-linecap:butt;stroke-linejoin:bevel;stroke-miterlimit:10;stroke-dasharray:none;stroke-opacity:1" d="m 3719,970 v 128" inkscape:connector-curvature="0"/><path id="path30" style="fill:none;stroke:#000000;stroke-width:5;stroke-linecap:butt;stroke-linejoin:bevel;stroke-miterlimit:10;stroke-dasharray:none;stroke-opacity:1" d="m 3736,970 v 128" inkscape:connector-curvature="0"/></g><g transform="matrix(2.5835866,0,0,2.5834802,5771.7325,2561.1973)" id="g32"><g id="g34"/></g><g transform="scale(2.5835866,2.5834802)" id="g36"/><g transform="matrix(2.5835866,0,0,2.5834802,6365.9574,2250.655)" id="g38"><g id="g40"><g aria-label="C" transform="translate(0,162.39062)" style="font-variant:normal;font-weight:normal;font-size:129px;font-family:'Opus Std';-inkscape-font-specification:OpusStd;writing-mode:lr-tb;fill:#000000;fill-opacity:1;fill-rule:nonzero;stroke:none" id="text44"><path d="M 23.22,-25.026 V 23.865 C 17.931,18.963 14.061,7.095 14.061,-2.58 c 0,-11.223 3.096,-18.705 9.159,-22.446 z M 48.375,14.19 c -6.063,8.385 -11.997,12.642 -17.673,12.642 -1.032,0 -2.064,-0.129 -2.967,-0.387 v -53.277 c 0.903,-0.129 1.935,-0.258 2.838,-0.258 1.677,0 3.225,0.258 4.902,0.645 -3.225,2.967 -4.773,5.934 -4.773,8.901 0,4.515 4.515,7.869 9.159,7.869 4.257,0 8.127,-3.612 8.127,-7.869 0,-7.482 -9.417,-12.384 -20.253,-12.513 v -9.288 H 23.22 v 9.546 C 9.03,-27.993 0,-16.125 0,-0.903 0,14.448 9.159,27.477 23.22,29.799 v 10.062 h 4.515 v -9.546 h 0.516 c 8.256,0 17.802,-7.998 20.124,-16.125 z" style="" id="path55"/></g>
</g></g><g transform="scale(2.5835866,2.5834802)" id="g46"/><g transform="matrix(2.5835866,0,0,2.5834802,8804.8632,2167.9836)" id="g48"><g id="g50"><g aria-label="2" transform="translate(0,162.39062)" style="font-variant:normal;font-weight:normal;font-size:129px;font-family:'Opus Std';-inkscape-font-specification:OpusStd;writing-mode:lr-tb;fill:#000000;fill-opacity:1;fill-rule:nonzero;stroke:none" id="text54"><path d="m 49.536,8.514 c -4.128,3.612 -4.386,6.708 -4.644,6.966 -1.032,1.419 -2.709,2.064 -5.031,2.064 -2.967,0 -16.899,-5.289 -21.93,-5.289 -1.161,0 -2.322,0.129 -3.483,0.258 v -0.129 c 6.063,-5.031 26.187,-12.513 29.541,-15.609 2.838,-2.451 4.257,-5.805 4.257,-10.062 0,-5.934 -4.386,-17.802 -22.962,-17.802 -14.706,0 -23.994,6.45 -23.994,18.189 0,5.289 2.58,7.869 7.869,7.869 4.515,0 9.159,-3.354 9.159,-7.869 0,-4.128 -3.741,-6.579 -6.837,-9.03 1.419,-2.193 4.257,-3.225 8.514,-3.225 6.837,0 11.094,5.16 11.094,12.384 0,7.224 -1.161,9.288 -14.964,18.834 -4.515,3.225 -7.869,6.579 -9.933,9.804 -2.451,3.612 -4.902,6.321 -5.547,12.126 0.387,0.387 0.774,0.516 1.419,0.516 3.483,0 4.257,-4.902 9.804,-4.902 4.257,0 17.802,7.224 22.962,7.224 9.159,0 14.061,-7.482 14.706,-22.317 z" style="" id="path58"/></g>
</g><g id="g56"><g aria-label="2" transform="translate(0,227.14062)" style="font-variant:normal;font-weight:normal;font-size:129px;font-family:'Opus Std';-inkscape-font-specification:OpusStd;writing-mode:lr-tb;fill:#000000;fill-opacity:1;fill-rule:nonzero;stroke:none" id="text60"><path d="m 49.536,8.514 c -4.128,3.612 -4.386,6.708 -4.644,6.966 -1.032,1.419 -2.709,2.064 -5.031,2.064 -2.967,0 -16.899,-5.289 -21.93,-5.289 -1.161,0 -2.322,0.129 -3.483,0.258 v -0.129 c 6.063,-5.031 26.187,-12.513 29.541,-15.609 2.838,-2.451 4.257,-5.805 4.257,-10.062 0,-5.934 -4.386,-17.802 -22.962,-17.802 -14.706,0 -23.994,6.45 -23.994,18.189 0,5.289 2.58,7.869 7.869,7.869 4.515,0 9.159,-3.354 9.159,-7.869 0,-4.128 -3.741,-6.579 -6.837,-9.03 1.419,-2.193 4.257,-3.225 8.514,-3.225 6.837,0 11.094,5.16 11.094,12.384 0,7.224 -1.161,9.288 -14.964,18.834 -4.515,3.225 -7.869,6.579 -9.933,9.804 -2.451,3.612 -4.902,6.321 -5.547,12.126 0.387,0.387 0.774,0.516 1.419,0.516 3.483,0 4.257,-4.902 9.804,-4.902 4.257,0 17.802,7.224 22.962,7.224 9.159,0 14.061,-7.482 14.706,-22.317 z" style="" id="path61"/></g>
</g></g><g transform="scale(2.5835866,2.5834802)" id="g62"><path id="path64" style="fill:none;stroke:#000000;stroke-width:3;stroke-linecap:butt;stroke-linejoin:bevel;stroke-miterlimit:10;stroke-dasharray:none;stroke-opacity:1" d="m 2324,1098 h 471" inkscape:connector-curvature="0"/><path id="path66" style="fill:none;stroke:#000000;stroke-width:3;stroke-linecap:butt;stroke-linejoin:bevel;stroke-miterlimit:10;stroke-dasharray:none;stroke-opacity:1" d="m 2324,1066 h 471" inkscape:connector-curvature="0"/><path id="path68" style="fill:none;stroke:#000000;stroke-width:3;stroke-linecap:butt;stroke-linejoin:bevel;stroke-miterlimit:10;stroke-dasharray:none;stroke-opacity:1" d="m 2324,1034 h 471" inkscape:connector-curvature="0"/><path id="path70" style="fill:none;stroke:#000000;stroke-width:3;stroke-linecap:butt;stroke-linejoin:bevel;stroke-miterlimit:10;stroke-dasharray:none;stroke-opacity:1" d="m 2324,1002 h 471" inkscape:connector-curvature="0"/><path id="path72" style="fill:none;stroke:#000000;stroke-width:3;stroke-linecap:butt;stroke-linejoin:bevel;stroke-miterlimit:10;stroke-dasharray:none;stroke-opacity:1" d="m 2324,970 h 471" inkscape:connector-curvature="0"/><path id="path74" style="fill:none;stroke:#000000;stroke-width:3;stroke-linecap:butt;stroke-linejoin:bevel;stroke-miterlimit:10;stroke-dasharray:none;stroke-opacity:1" d="m 3267,1098 h 471" inkscape:connector-curvature="0"/><path id="path76" style="fill:none;stroke:#000000;stroke-width:3;stroke-linecap:butt;stroke-linejoin:bevel;stroke-miterlimit:10;stroke-dasharray:none;stroke-opacity:1" d="m 3267,1066 h 471" inkscape:connector-curvature="0"/><path id="path78" style="fill:none;stroke:#000000;stroke-width:3;stroke-linecap:butt;stroke-linejoin:bevel;stroke-miterlimit:10;stroke-dasharray:none;stroke-opacity:1" d="m 3267,1034 h 471" inkscape:connector-curvature="0"/><path id="path80" style="fill:none;stroke:#000000;stroke-width:3;stroke-linecap:butt;stroke-linejoin:bevel;stroke-miterlimit:10;stroke-dasharray:none;stroke-opacity:1" d="m 3267,1002 h 471" inkscape:connector-curvature="0"/><path id="path82" style="fill:none;stroke:#000000;stroke-width:3;stroke-linecap:butt;stroke-linejoin:bevel;stroke-miterlimit:10;stroke-dasharray:none;stroke-opacity:1" d="m 3267,970 h 471" inkscape:connector-curvature="0"/><g id="g84"><g aria-label="&amp;" transform="translate(2348,1066)" style="font-variant:normal;font-weight:normal;font-size:128px;font-family:'Opus Std';-inkscape-font-specification:OpusStd;writing-mode:lr-tb;fill:#000000;fill-opacity:1;fill-rule:nonzero;stroke:none" id="text88"><path d="m 66.944,28.032 4.864,23.68 c 0.256,1.408 0.384,2.688 0.384,3.968 0,12.544 -12.8,23.04 -26.624,23.04 -4.224,0 -8.32,-1.024 -12.16,-2.944 9.856,-1.024 17.28,-7.04 17.28,-15.872 0,-7.808 -6.4,-16 -14.592,-16 -9.344,0 -15.744,7.168 -15.744,16.512 0,13.056 10.624,21.632 23.424,21.632 17.152,0 31.744,-11.136 31.744,-27.136 0,-3.584 -5.632,-28.928 -5.504,-28.032 13.696,-6.656 23.04,-18.432 23.04,-30.848 0,-17.024 -13.696,-30.08 -30.72,-30.08 -0.256,0 -2.048,0.128 -5.12,0.384 l -5.632,-27.008 c 19.072,-16.128 27.776,-33.28 27.776,-52.096 0,-14.464 -5.76,-29.824 -17.408,-45.952 -13.184,10.624 -20.736,31.872 -20.736,54.528 0,8.064 1.024,15.872 2.816,23.296 -29.184,24.448 -43.776,46.976 -43.776,67.584 0,24.192 24.96,44.288 52.096,44.288 6.016,0 10.496,-0.896 14.592,-2.944 z M 66.56,-140.16 c 4.224,4.352 6.4,9.472 6.4,15.488 0,12.416 -8.832,26.368 -26.112,41.728 -0.896,-3.712 -1.152,-7.808 -1.152,-12.288 0,-21.504 7.936,-45.184 18.56,-45.184 0.896,0 1.664,0.128 2.304,0.256 z M 69.248,22.784 60.16,-19.968 c 1.792,-0.128 2.816,-0.256 3.2,-0.256 11.008,0 18.688,10.368 18.688,20.992 0,8.448 -4.48,15.872 -12.8,22.016 z m -12.288,-42.24 9.216,44.032 c -4.48,2.432 -9.472,3.456 -15.488,3.456 -20.736,0 -38.656,-15.488 -38.656,-34.304 0,-17.024 12.672,-34.56 36.608,-52.48 l 5.376,25.6 C 40.704,-30.336 29.44,-19.072 29.44,-6.4 c 0,10.752 7.68,18.304 19.2,20.096 C 41.6,9.344 38.144,3.84 38.144,-2.688 c 0,-8.832 8.192,-15.36 18.816,-16.768 z" style="" id="path65"/></g>
</g></g><g transform="matrix(2.5835866,0,0,2.5834802,7807.5988,2548.2799)" id="g90"><g id="g92"><g aria-label="=" transform="translate(0,71.875)" style="font-variant:normal;font-weight:normal;font-size:77px;font-family:'Times New Roman';-inkscape-font-specification:TimesNewRomanPSMT;writing-mode:lr-tb;fill:#000000;fill-opacity:1;fill-rule:nonzero;stroke:none" id="text96"><path d="M 1.3911133,-33.19873 H 41.958984 v 3.083007 H 1.3911133 Z m 0,12.256835 H 41.958984 v 3.083008 H 1.3911133 Z" style="" id="path69"/></g>
</g></g><g transform="scale(2.5835866,2.5834802)" id="g98"><g id="g100"><g aria-label="&amp;" transform="translate(3291,1066)" style="font-variant:normal;font-weight:normal;font-size:128px;font-family:'Opus Std';-inkscape-font-specification:OpusStd;writing-mode:lr-tb;fill:#000000;fill-opacity:1;fill-rule:nonzero;stroke:none" id="text104"><path d="m 66.944,28.032 4.864,23.68 c 0.256,1.408 0.384,2.688 0.384,3.968 0,12.544 -12.8,23.04 -26.624,23.04 -4.224,0 -8.32,-1.024 -12.16,-2.944 9.856,-1.024 17.28,-7.04 17.28,-15.872 0,-7.808 -6.4,-16 -14.592,-16 -9.344,0 -15.744,7.168 -15.744,16.512 0,13.056 10.624,21.632 23.424,21.632 17.152,0 31.744,-11.136 31.744,-27.136 0,-3.584 -5.632,-28.928 -5.504,-28.032 13.696,-6.656 23.04,-18.432 23.04,-30.848 0,-17.024 -13.696,-30.08 -30.72,-30.08 -0.256,0 -2.048,0.128 -5.12,0.384 l -5.632,-27.008 c 19.072,-16.128 27.776,-33.28 27.776,-52.096 0,-14.464 -5.76,-29.824 -17.408,-45.952 -13.184,10.624 -20.736,31.872 -20.736,54.528 0,8.064 1.024,15.872 2.816,23.296 -29.184,24.448 -43.776,46.976 -43.776,67.584 0,24.192 24.96,44.288 52.096,44.288 6.016,0 10.496,-0.896 14.592,-2.944 z M 66.56,-140.16 c 4.224,4.352 6.4,9.472 6.4,15.488 0,12.416 -8.832,26.368 -26.112,41.728 -0.896,-3.712 -1.152,-7.808 -1.152,-12.288 0,-21.504 7.936,-45.184 18.56,-45.184 0.896,0 1.664,0.128 2.304,0.256 z M 69.248,22.784 60.16,-19.968 c 1.792,-0.128 2.816,-0.256 3.2,-0.256 11.008,0 18.688,10.368 18.688,20.992 0,8.448 -4.48,15.872 -12.8,22.016 z m -12.288,-42.24 9.216,44.032 c -4.48,2.432 -9.472,3.456 -15.488,3.456 -20.736,0 -38.656,-15.488 -38.656,-34.304 0,-17.024 12.672,-34.56 36.608,-52.48 l 5.376,25.6 C 40.704,-30.336 29.44,-19.072 29.44,-6.4 c 0,10.752 7.68,18.304 19.2,20.096 C 41.6,9.344 38.144,3.84 38.144,-2.688 c 0,-8.832 8.192,-15.36 18.816,-16.768 z" style="" id="path73"/></g>
</g></g></g></g></g></svg>