<svg xmlns:dc="http://purl.org/dc/elements/1.1/" xmlns:cc="http://creativecommons.org/ns#" xmlns:rdf="http://www.w3.org/1999/02/22-rdf-syntax-ns#" xmlns:svg="http://www.w3.org/2000/svg" xmlns="http://www.w3.org/2000/svg" xmlns:sodipodi="http://sodipodi.sourceforge.net/DTD/sodipodi-0.dtd" xmlns:inkscape="http://www.inkscape.org/namespaces/inkscape" viewBox="0 0 487.30328 98.895287" height="148.3429305" width="730.9549199999999" xml:space="preserve" id="svg2" version="1.1" sodipodi:docname="example_4-3.svg" inkscape:version="0.92.4 (5da689c313, 2019-01-14)" viewbox="0 0 730.9549199999999 148.3429305"><sodipodi:namedview pagecolor="#ffffff" bordercolor="#666666" borderopacity="1" objecttolerance="10" gridtolerance="10" guidetolerance="10" inkscape:pageopacity="0" inkscape:pageshadow="2" inkscape:window-width="640" inkscape:window-height="480" id="namedview131" showgrid="false" inkscape:zoom="0.22348485" inkscape:cx="135.83217" inkscape:cy="-238.54719" inkscape:window-x="0" inkscape:window-y="0" inkscape:window-maximized="0" inkscape:current-layer="svg2"/><metadata id="metadata8"><rdf:RDF><cc:Work rdf:about=""><dc:format>image/svg+xml</dc:format><dc:type rdf:resource="http://purl.org/dc/dcmitype/StillImage"/></cc:Work></rdf:RDF></metadata><defs id="defs6"/><g transform="matrix(1.3333333,0,0,-1.3333333,-272.16783,865.44248)" id="g10"><g transform="matrix(0.06,0,0,-0.06,0,792)" id="g12"><g id="g14"><g id="g16"/></g><g id="g18"><g id="g20"/><g transform="scale(2.5835866,2.5834802)" id="g22"><path id="path24" style="fill:none;stroke:#000000;stroke-width:5;stroke-linecap:butt;stroke-linejoin:bevel;stroke-miterlimit:10;stroke-dasharray:none;stroke-opacity:1" d="m 1798,1002 v 368" inkscape:connector-curvature="0"/><path id="path26" style="fill:none;stroke:#000000;stroke-width:5;stroke-linecap:butt;stroke-linejoin:bevel;stroke-miterlimit:10;stroke-dasharray:none;stroke-opacity:1" d="m 2829,1002 v 368" inkscape:connector-curvature="0"/><path id="path28" style="fill:none;stroke:#000000;stroke-width:5;stroke-linecap:butt;stroke-linejoin:bevel;stroke-miterlimit:10;stroke-dasharray:none;stroke-opacity:1" d="m 3672,1002 v 368" inkscape:connector-curvature="0"/></g><g transform="matrix(2.5835866,0,0,2.5834802,5006.9909,2167.9836)" id="g30"><g id="g32"><g aria-label="6" transform="translate(0,162.39062)" style="font-variant:normal;font-weight:normal;font-size:129px;font-family:'Opus Std';-inkscape-font-specification:OpusStd;writing-mode:lr-tb;fill:#000000;fill-opacity:1;fill-rule:nonzero;stroke:none" id="text36"><path d="m 48.375,9.675 c 0,-9.804 -6.966,-15.738 -17.415,-15.738 -4.902,0 -10.062,1.29 -15.351,3.87 -0.129,-3.741 -0.129,-6.063 -0.129,-6.708 0,-9.159 3.87,-18.318 9.675,-18.318 2.967,0 4.515,1.032 4.515,3.096 0,1.161 -1.419,4.257 -1.419,5.676 0,5.031 3.999,8.772 9.03,8.772 5.16,0 9.03,-3.612 9.03,-8.643 0,-7.482 -9.675,-12.384 -21.414,-12.384 C 10.191,-30.702 0,-17.028 0,0.129 0,18.834 9.159,30.186 25.284,30.186 38.7,30.186 48.375,22.704 48.375,9.675 Z M 25.929,-0.387 c 4.902,0 7.353,4.386 7.353,13.029 0,8.772 -2.838,13.158 -8.385,13.158 -5.805,0 -8.772,-4.386 -8.772,-13.158 0,-8.643 3.225,-13.029 9.804,-13.029 z" style="" id="path133"/></g>
</g><g id="g38"><g aria-label="8" transform="translate(0.703125,227.14062)" style="font-variant:normal;font-weight:normal;font-size:129px;font-family:'Opus Std';-inkscape-font-specification:OpusStd;writing-mode:lr-tb;fill:#000000;fill-opacity:1;fill-rule:nonzero;stroke:none" id="text42"><path d="m 46.827,11.739 c 0,-6.063 -3.225,-10.578 -9.546,-13.416 5.418,-3.999 8.127,-8.772 8.127,-14.577 0,-9.288 -9.159,-14.448 -22.575,-14.448 -12.126,0 -21.027,6.063 -21.027,16.254 C 1.806,-7.74 4.644,-2.967 10.32,0 4.128,1.677 0.258,7.095 0.258,13.416 c 0,10.449 9.933,16.77 23.349,16.77 12.384,0 23.22,-7.611 23.22,-18.447 z M 36.507,-16.77 c 0,4.902 -2.322,8.514 -7.095,10.836 -11.094,-3.225 -16.641,-7.74 -16.641,-13.416 0,-5.031 3.612,-7.482 10.707,-7.482 8.127,0 13.029,3.225 13.029,9.546 z m -1.548,34.185 c 0,5.031 -5.547,7.998 -12.126,7.998 -7.998,0 -14.319,-4.515 -14.319,-11.739 0,-4.773 2.322,-8.514 6.966,-10.965 9.546,4.257 19.479,8.514 19.479,14.706 z" style="" id="path136"/></g>
</g></g><g transform="scale(2.5835866,2.5834802)" id="g44"/><g transform="matrix(2.5835866,0,0,2.5834802,5006.9909,2953.3616)" id="g46"><g id="g48"><g aria-label="6" transform="translate(0,162.39062)" style="font-variant:normal;font-weight:normal;font-size:129px;font-family:'Opus Std';-inkscape-font-specification:OpusStd;writing-mode:lr-tb;fill:#000000;fill-opacity:1;fill-rule:nonzero;stroke:none" id="text52"><path d="m 48.375,9.675 c 0,-9.804 -6.966,-15.738 -17.415,-15.738 -4.902,0 -10.062,1.29 -15.351,3.87 -0.129,-3.741 -0.129,-6.063 -0.129,-6.708 0,-9.159 3.87,-18.318 9.675,-18.318 2.967,0 4.515,1.032 4.515,3.096 0,1.161 -1.419,4.257 -1.419,5.676 0,5.031 3.999,8.772 9.03,8.772 5.16,0 9.03,-3.612 9.03,-8.643 0,-7.482 -9.675,-12.384 -21.414,-12.384 C 10.191,-30.702 0,-17.028 0,0.129 0,18.834 9.159,30.186 25.284,30.186 38.7,30.186 48.375,22.704 48.375,9.675 Z M 25.929,-0.387 c 4.902,0 7.353,4.386 7.353,13.029 0,8.772 -2.838,13.158 -8.385,13.158 -5.805,0 -8.772,-4.386 -8.772,-13.158 0,-8.643 3.225,-13.029 9.804,-13.029 z" style="" id="path139"/></g>
</g><g id="g54"><g aria-label="8" transform="translate(0.703125,227.14062)" style="font-variant:normal;font-weight:normal;font-size:129px;font-family:'Opus Std';-inkscape-font-specification:OpusStd;writing-mode:lr-tb;fill:#000000;fill-opacity:1;fill-rule:nonzero;stroke:none" id="text58"><path d="m 46.827,11.739 c 0,-6.063 -3.225,-10.578 -9.546,-13.416 5.418,-3.999 8.127,-8.772 8.127,-14.577 0,-9.288 -9.159,-14.448 -22.575,-14.448 -12.126,0 -21.027,6.063 -21.027,16.254 C 1.806,-7.74 4.644,-2.967 10.32,0 4.128,1.677 0.258,7.095 0.258,13.416 c 0,10.449 9.933,16.77 23.349,16.77 12.384,0 23.22,-7.611 23.22,-18.447 z M 36.507,-16.77 c 0,4.902 -2.322,8.514 -7.095,10.836 -11.094,-3.225 -16.641,-7.74 -16.641,-13.416 0,-5.031 3.612,-7.482 10.707,-7.482 8.127,0 13.029,3.225 13.029,9.546 z m -1.548,34.185 c 0,5.031 -5.547,7.998 -12.126,7.998 -7.998,0 -14.319,-4.515 -14.319,-11.739 0,-4.773 2.322,-8.514 6.966,-10.965 9.546,4.257 19.479,8.514 19.479,14.706 z" style="" id="path142"/></g>
</g></g><g transform="scale(2.5835866,2.5834802)" id="g60"><path id="path62" style="fill:none;stroke:#000000;stroke-width:3;stroke-linecap:butt;stroke-linejoin:bevel;stroke-miterlimit:10;stroke-dasharray:none;stroke-opacity:1" d="M 1796,1034 H 3674" inkscape:connector-curvature="0"/><g id="g64"><g aria-label="/" transform="translate(1836,1066)" style="font-variant:normal;font-weight:normal;font-size:128px;font-family:'Opus Std';-inkscape-font-specification:OpusStd;writing-mode:lr-tb;fill:#000000;fill-opacity:1;fill-rule:nonzero;stroke:none" id="text68"><path d="m 44.16,0 v -64 h -16 V 0 Z M 0,-64 V 0 h 16 v -64 z" style="" id="path145"/></g>
</g></g><g transform="matrix(2.5835866,0,0,2.5834802,4092.4012,2527.6121)" id="g70"><g id="g72"><g aria-label="beat:" transform="translate(0,71.875)" style="font-variant:normal;font-weight:normal;font-size:77px;font-family:'Times New Roman';-inkscape-font-specification:TimesNewRomanPSMT;writing-mode:lr-tb;fill:#000000;fill-opacity:1;fill-rule:nonzero;stroke:none" id="text76"><path d="m 11.843262,-28.499023 q 5.000488,-6.955567 10.790527,-6.955567 5.30127,0 9.249023,4.549317 3.947754,4.511718 3.947754,12.369628 0,9.1738286 -6.09082,14.7758794 -5.226074,4.8125 -11.655273,4.8125 -3.007813,0 -6.128418,-1.09033206 Q 8.8730469,-1.1279297 5.6396484,-3.3085938 V -38.98877 q 0,-5.865234 -0.3007812,-7.21875 -0.2631836,-1.353515 -0.8647461,-1.842285 -0.6015625,-0.488769 -1.5039063,-0.488769 -1.0527343,0 -2.63183589,0.601562 L -0.18798828,-49.25293 10.151367,-53.463867 h 1.691895 z m 0,2.40625 v 20.6035152 q 1.91748,1.8798828 3.947754,2.8574219 2.067871,0.9399414 4.210937,0.9399414 3.421387,0 6.354004,-3.7597657 2.970215,-3.7597656 2.970215,-10.9409178 0,-6.617188 -2.970215,-10.151367 -2.932617,-3.571778 -6.692383,-3.571778 -1.992676,0 -3.985351,1.015137 -1.503907,0.751953 -3.834961,3.007813 z" style="" id="path148"/><path d="m 46.696289,-21.468262 q -0.0376,7.669922 3.722168,12.0312503 3.759766,4.3613281 8.835449,4.3613281 3.383789,0 5.865235,-1.8422851 2.519043,-1.8798829 4.210937,-6.3916013 l 1.165527,0.751953 q -0.78955,5.1508787 -4.586914,9.3994139 -3.797363,4.2109375 -9.512207,4.2109375 -6.203613,0 -10.640136,-4.8125 -4.398926,-4.8500977 -4.398926,-13.0087894 0,-8.835449 4.511719,-13.760742 4.549316,-4.96289 11.392089,-4.96289 5.79004,0 9.512207,3.83496 3.722168,3.797364 3.722168,10.188965 z m 0,-2.180664 h 15.941406 q -0.187988,-3.308594 -0.78955,-4.662109 -0.939942,-2.105469 -2.819825,-3.308594 -1.842285,-1.203125 -3.872558,-1.203125 -3.120606,0 -5.602051,2.443848 -2.443848,2.40625 -2.857422,6.72998 z" style="" id="path150"/><path d="m 94.591309,-4.9628906 q -5.30127,4.09814451 -6.654786,4.73730466 -2.030273,0.93994141 -4.32373,0.93994141 -3.571777,0 -5.902832,-2.44384767 -2.293457,-2.4438476 -2.293457,-6.4291992 0,-2.5190426 1.12793,-4.3613286 1.541503,-2.55664 5.338867,-4.8125 3.834961,-2.255859 12.708008,-5.489257 v -1.353516 q 0,-5.150879 -1.654297,-7.068359 -1.6167,-1.917481 -4.737305,-1.917481 -2.368652,0 -3.759766,1.278321 -1.428711,1.27832 -1.428711,2.932617 l 0.0752,2.180664 q 0,1.729492 -0.902344,2.669433 -0.864746,0.939942 -2.293457,0.939942 -1.391113,0 -2.293457,-0.977539 -0.864746,-0.977539 -0.864746,-2.669434 0,-3.233398 3.308594,-5.94043 3.308593,-2.707031 9.286621,-2.707031 4.586914,0 7.519531,1.541504 2.218262,1.165527 3.270992,3.646973 0.67676,1.616699 0.67676,6.617187 v 11.692871 q 0,4.9252933 0.18799,6.053223 0.18799,1.090332 0.60156,1.4663086 0.45117,0.3759765 1.01514,0.3759765 0.60156,0 1.05273,-0.2631836 0.78955,-0.4887695 3.04541,-2.7446289 v 2.1054688 q -4.21093,5.63964841 -8.045895,5.63964841 -1.842285,0 -2.932617,-1.27832031 -1.090332,-1.2783203 -1.127929,-4.3613281 z m 0,-2.4438477 V -20.52832 q -5.677247,2.255859 -7.331543,3.1958 -2.970215,1.654297 -4.248536,3.458985 -1.27832,1.804687 -1.27832,3.9477537 0,2.7070313 1.616699,4.5117188 1.6167,1.7670898 3.722168,1.7670898 2.857422,0 7.519532,-3.7597656 z" style="" id="path153"/><path d="m 119.25098,-45.756348 v 11.316895 h 8.0459 v 2.631836 h -8.0459 v 22.3330076 q 0,3.3461914 0.93994,4.5117188 0.97754,1.1655273 2.48144,1.1655273 1.24073,0 2.40625,-0.7519531 1.16553,-0.7895508 1.80469,-2.293457 h 1.46631 q -1.31592,3.6845703 -3.72217,5.5644531 -2.40625,1.84228514 -4.96289,1.84228514 -1.72949,0 -3.38379,-0.9399414 -1.6543,-0.97753904 -2.44385,-2.74462894 -0.78955,-1.8046875 -0.78955,-5.5268554 V -31.807617 h -5.45166 v -1.240723 q 2.06787,-0.827148 4.21094,-2.782226 2.18066,-1.992676 3.87256,-4.699707 0.86475,-1.428711 2.40625,-5.226075 z" style="" id="path155"/><path d="m 139.1001,-35.492187 q 1.72949,0 2.93261,1.240722 1.24073,1.203125 1.24073,2.932617 0,1.729493 -1.24073,2.970215 -1.20312,1.203125 -2.93261,1.203125 -1.72949,0 -2.97022,-1.203125 -1.20312,-1.240722 -1.20312,-2.970215 0,-1.729492 1.20312,-2.932617 1.24073,-1.240722 2.97022,-1.240722 z m -0.0752,28.160644 q 1.76709,0 2.97022,1.2407227 1.24072,1.2407226 1.24072,2.9702148 0,1.7294922 -1.24072,2.97021488 -1.24073,1.20312502 -2.97022,1.20312502 -1.72949,0 -2.97021,-1.20312502 -1.20313,-1.24072268 -1.20313,-2.97021488 0,-1.7294922 1.20313,-2.9702148 1.24072,-1.2407227 2.97021,-1.2407227 z" style="" id="path157"/></g>
</g></g><g transform="scale(2.5835866,2.5834802)" id="g78"><path id="path80" style="fill:none;stroke:#000000;stroke-width:3;stroke-linecap:butt;stroke-linejoin:bevel;stroke-miterlimit:10;stroke-dasharray:none;stroke-opacity:1" d="M 1796,1338 H 3674" inkscape:connector-curvature="0"/><g id="g82"><g aria-label="/" transform="translate(1836,1370)" style="font-variant:normal;font-weight:normal;font-size:128px;font-family:'Opus Std';-inkscape-font-specification:OpusStd;writing-mode:lr-tb;fill:#000000;fill-opacity:1;fill-rule:nonzero;stroke:none" id="text86"><path d="m 44.16,0 v -64 h -16 V 0 Z M 0,-64 V 0 h 16 v -64 z" style="" id="path160"/></g>
</g></g><g transform="matrix(2.5835866,0,0,2.5834802,3402.5836,3312.9901)" id="g88"><g id="g90"><g aria-label="beat division:" transform="translate(0,71.875)" style="font-variant:normal;font-weight:normal;font-size:77px;font-family:'Times New Roman';-inkscape-font-specification:TimesNewRomanPSMT;writing-mode:lr-tb;fill:#000000;fill-opacity:1;fill-rule:nonzero;stroke:none" id="text94"><path d="m 11.843262,-28.499023 q 5.000488,-6.955567 10.790527,-6.955567 5.30127,0 9.249023,4.549317 3.947754,4.511718 3.947754,12.369628 0,9.1738286 -6.09082,14.7758794 -5.226074,4.8125 -11.655273,4.8125 -3.007813,0 -6.128418,-1.09033206 Q 8.8730469,-1.1279297 5.6396484,-3.3085938 V -38.98877 q 0,-5.865234 -0.3007812,-7.21875 -0.2631836,-1.353515 -0.8647461,-1.842285 -0.6015625,-0.488769 -1.5039063,-0.488769 -1.0527343,0 -2.63183589,0.601562 L -0.18798828,-49.25293 10.151367,-53.463867 h 1.691895 z m 0,2.40625 v 20.6035152 q 1.91748,1.8798828 3.947754,2.8574219 2.067871,0.9399414 4.210937,0.9399414 3.421387,0 6.354004,-3.7597657 2.970215,-3.7597656 2.970215,-10.9409178 0,-6.617188 -2.970215,-10.151367 -2.932617,-3.571778 -6.692383,-3.571778 -1.992676,0 -3.985351,1.015137 -1.503907,0.751953 -3.834961,3.007813 z" style="" id="path163"/><path d="m 46.696289,-21.468262 q -0.0376,7.669922 3.722168,12.0312503 3.759766,4.3613281 8.835449,4.3613281 3.383789,0 5.865235,-1.8422851 2.519043,-1.8798829 4.210937,-6.3916013 l 1.165527,0.751953 q -0.78955,5.1508787 -4.586914,9.3994139 -3.797363,4.2109375 -9.512207,4.2109375 -6.203613,0 -10.640136,-4.8125 -4.398926,-4.8500977 -4.398926,-13.0087894 0,-8.835449 4.511719,-13.760742 4.549316,-4.96289 11.392089,-4.96289 5.79004,0 9.512207,3.83496 3.722168,3.797364 3.722168,10.188965 z m 0,-2.180664 h 15.941406 q -0.187988,-3.308594 -0.78955,-4.662109 -0.939942,-2.105469 -2.819825,-3.308594 -1.842285,-1.203125 -3.872558,-1.203125 -3.120606,0 -5.602051,2.443848 -2.443848,2.40625 -2.857422,6.72998 z" style="" id="path165"/><path d="m 94.591309,-4.9628906 q -5.30127,4.09814451 -6.654786,4.73730466 -2.030273,0.93994141 -4.32373,0.93994141 -3.571777,0 -5.902832,-2.44384767 -2.293457,-2.4438476 -2.293457,-6.4291992 0,-2.5190426 1.12793,-4.3613286 1.541503,-2.55664 5.338867,-4.8125 3.834961,-2.255859 12.708008,-5.489257 v -1.353516 q 0,-5.150879 -1.654297,-7.068359 -1.6167,-1.917481 -4.737305,-1.917481 -2.368652,0 -3.759766,1.278321 -1.428711,1.27832 -1.428711,2.932617 l 0.0752,2.180664 q 0,1.729492 -0.902344,2.669433 -0.864746,0.939942 -2.293457,0.939942 -1.391113,0 -2.293457,-0.977539 -0.864746,-0.977539 -0.864746,-2.669434 0,-3.233398 3.308594,-5.94043 3.308593,-2.707031 9.286621,-2.707031 4.586914,0 7.519531,1.541504 2.218262,1.165527 3.270992,3.646973 0.67676,1.616699 0.67676,6.617187 v 11.692871 q 0,4.9252933 0.18799,6.053223 0.18799,1.090332 0.60156,1.4663086 0.45117,0.3759765 1.01514,0.3759765 0.60156,0 1.05273,-0.2631836 0.78955,-0.4887695 3.04541,-2.7446289 v 2.1054688 q -4.21093,5.63964841 -8.045895,5.63964841 -1.842285,0 -2.932617,-1.27832031 -1.090332,-1.2783203 -1.127929,-4.3613281 z m 0,-2.4438477 V -20.52832 q -5.677247,2.255859 -7.331543,3.1958 -2.970215,1.654297 -4.248536,3.458985 -1.27832,1.804687 -1.27832,3.9477537 0,2.7070313 1.616699,4.5117188 1.6167,1.7670898 3.722168,1.7670898 2.857422,0 7.519532,-3.7597656 z" style="" id="path167"/><path d="m 119.25098,-45.756348 v 11.316895 h 8.0459 v 2.631836 h -8.0459 v 22.3330076 q 0,3.3461914 0.93994,4.5117188 0.97754,1.1655273 2.48144,1.1655273 1.24073,0 2.40625,-0.7519531 1.16553,-0.7895508 1.80469,-2.293457 h 1.46631 q -1.31592,3.6845703 -3.72217,5.5644531 -2.40625,1.84228514 -4.96289,1.84228514 -1.72949,0 -3.38379,-0.9399414 -1.6543,-0.97753904 -2.44385,-2.74462894 -0.78955,-1.8046875 -0.78955,-5.5268554 V -31.807617 h -5.45166 v -1.240723 q 2.06787,-0.827148 4.21094,-2.782226 2.18066,-1.992676 3.87256,-4.699707 0.86475,-1.428711 2.40625,-5.226075 z" style="" id="path169"/><path d="m 174.21631,-3.8725586 q -2.51904,2.6318359 -4.92529,3.79736329 -2.40625,1.12792971 -5.18848,1.12792971 -5.63965,0 -9.85059,-4.6997071 -4.21093,-4.7373046 -4.21093,-12.1440433 0,-7.406738 4.6621,-13.535156 4.66211,-6.166015 11.99366,-6.166015 4.54931,0 7.51953,2.895019 v -6.354004 q 0,-5.902832 -0.30078,-7.256348 -0.26319,-1.353515 -0.86475,-1.842285 -0.60156,-0.488769 -1.50391,-0.488769 -0.97753,0 -2.59423,0.601562 l -0.48877,-1.315918 10.26416,-4.210937 h 1.69189 v 39.815918 q 0,6.0532224 0.26319,7.4067381 0.30078,1.3159179 0.90234,1.8422851 0.63916,0.5263672 1.46631,0.5263672 1.01513,0 2.70703,-0.6391601 l 0.41357,1.3159179 -10.22656,4.2485352 h -1.72949 z m 0,-2.6318359 V -24.250488 q -0.22559,-2.556641 -1.35352,-4.66211 -1.12793,-2.105468 -3.00781,-3.158203 -1.84228,-1.090332 -3.60937,-1.090332 -3.3086,0 -5.90284,2.970215 -3.42138,3.910156 -3.42138,11.429688 0,7.594726 3.30859,11.655273 3.30859,4.0229492 7.36914,4.0229492 3.42139,0 6.61719,-3.4213867 z" style="" id="path171"/><path d="m 197.15088,-53.463867 q 1.5791,0 2.66943,1.12793 1.12793,1.090332 1.12793,2.669433 0,1.579102 -1.12793,2.707031 -1.09033,1.12793 -2.66943,1.12793 -1.5791,0 -2.70703,-1.12793 -1.12793,-1.127929 -1.12793,-2.707031 0,-1.579101 1.09033,-2.669433 1.12793,-1.12793 2.74463,-1.12793 z m 3.1206,18.009277 v 27.6718752 q 0,3.2333984 0.45118,4.3237304 0.48877,1.0527344 1.39111,1.5791016 0.93994,0.5263672 3.38379,0.5263672 V 0 H 188.7666 v -1.3535156 q 2.51904,0 3.38379,-0.4887696 0.86475,-0.4887695 1.35352,-1.6166992 0.52636,-1.1279297 0.52636,-4.3237304 V -21.054687 q 0,-5.602051 -0.33838,-7.256348 -0.26318,-1.203125 -0.82714,-1.654297 -0.56397,-0.48877 -1.54151,-0.48877 -1.05273,0 -2.55664,0.563965 l -0.52637,-1.353515 10.37696,-4.210938 z" style="" id="path173"/><path d="m 208.01416,-34.439453 h 16.20459 v 1.391113 h -1.05273 q -1.46631,0 -2.25586,0.714356 -0.75196,0.714355 -0.75196,1.91748 0,1.315918 0.78955,3.120606 l 8.0083,19.0244136 8.0459,-19.7387696 q 0.86475,-2.105469 0.86475,-3.195801 0,-0.526367 -0.30078,-0.864746 -0.41358,-0.563965 -1.05274,-0.751953 -0.63916,-0.225586 -2.59423,-0.225586 v -1.391113 h 11.24169 v 1.391113 q -1.95507,0.150391 -2.70703,0.789551 -1.31591,1.12793 -2.36865,3.759766 L 227.86572,1.0527344 h -1.5415 L 214.02979,-28.010254 q -0.82715,-2.030273 -1.57911,-2.895019 -0.75195,-0.902344 -1.91748,-1.503907 -0.63916,-0.338379 -2.51904,-0.63916 z" style="" id="path175"/><path d="m 257.0415,-53.463867 q 1.57911,0 2.66944,1.12793 1.12793,1.090332 1.12793,2.669433 0,1.579102 -1.12793,2.707031 -1.09033,1.12793 -2.66944,1.12793 -1.5791,0 -2.70703,-1.12793 -1.12793,-1.127929 -1.12793,-2.707031 0,-1.579101 1.09033,-2.669433 1.12793,-1.12793 2.74463,-1.12793 z m 3.12061,18.009277 v 27.6718752 q 0,3.2333984 0.45117,4.3237304 0.48877,1.0527344 1.39111,1.5791016 0.93995,0.5263672 3.38379,0.5263672 V 0 h -16.73095 v -1.3535156 q 2.51904,0 3.38379,-0.4887696 0.86474,-0.4887695 1.35351,-1.6166992 0.52637,-1.1279297 0.52637,-4.3237304 V -21.054687 q 0,-5.602051 -0.33838,-7.256348 -0.26318,-1.203125 -0.82715,-1.654297 -0.56396,-0.48877 -1.5415,-0.48877 -1.05274,0 -2.55664,0.563965 l -0.52637,-1.353515 10.37695,-4.210938 z" style="" id="path177"/><path d="m 291.92969,-35.45459 v 11.730469 h -1.24073 q -1.42871,-5.526856 -3.68457,-7.519531 -2.21826,-1.992676 -5.67724,-1.992676 -2.63184,0 -4.24854,1.391113 -1.6167,1.391113 -1.6167,3.083008 0,2.105469 1.20313,3.609375 1.16553,1.541504 4.7373,3.270996 l 5.48926,2.669434 q 7.63233,3.722168 7.63233,9.8129879 0,4.6997071 -3.57178,7.5947266 -3.53418,2.8574219 -7.93311,2.8574219 -3.1582,0 -7.21875,-1.12792971 -1.24072,-0.37597657 -2.03027,-0.37597657 -0.86475,0 -1.35352,0.97753907 h -1.24072 V -11.768066 h 1.24072 q 1.05274,5.2636715 4.02295,7.9331051 2.97022,2.6694336 6.65479,2.6694336 2.59424,0 4.21094,-1.5039063 1.65429,-1.5415039 1.65429,-3.6845703 0,-2.5942383 -1.84228,-4.3613281 -1.80469,-1.76709 -7.25635,-4.474121 -5.45166,-2.707031 -7.14355,-4.887695 -1.6919,-2.143067 -1.6919,-5.414063 0,-4.248535 2.89502,-7.105957 2.93262,-2.857422 7.55713,-2.857422 2.03027,0 4.92529,0.864746 1.91748,0.563965 2.55664,0.563965 0.60157,0 0.93994,-0.263183 0.33838,-0.263184 0.78955,-1.165528 z" style="" id="path179"/><path d="m 308.38525,-53.463867 q 1.57911,0 2.66944,1.12793 1.12793,1.090332 1.12793,2.669433 0,1.579102 -1.12793,2.707031 -1.09033,1.12793 -2.66944,1.12793 -1.5791,0 -2.70703,-1.12793 -1.12793,-1.127929 -1.12793,-2.707031 0,-1.579101 1.09033,-2.669433 1.12793,-1.12793 2.74463,-1.12793 z m 3.12061,18.009277 v 27.6718752 q 0,3.2333984 0.45117,4.3237304 0.48877,1.0527344 1.39111,1.5791016 0.93995,0.5263672 3.38379,0.5263672 V 0 h -16.73095 v -1.3535156 q 2.51904,0 3.38379,-0.4887696 0.86474,-0.4887695 1.35351,-1.6166992 0.52637,-1.1279297 0.52637,-4.3237304 V -21.054687 q 0,-5.602051 -0.33838,-7.256348 -0.26318,-1.203125 -0.82715,-1.654297 -0.56396,-0.48877 -1.5415,-0.48877 -1.05274,0 -2.55664,0.563965 l -0.52637,-1.353515 10.37695,-4.210938 z" style="" id="path181"/><path d="m 337.85937,-35.45459 q 7.82032,0 12.55762,5.94043 4.02295,5.075683 4.02295,11.655273 0,4.624512 -2.21826,9.3618167 -2.21826,4.7373047 -6.12842,7.1435547 -3.87256,2.40625 -8.64746,2.40625 -7.78271,0 -12.36963,-6.2036133 -3.87256,-5.2260741 -3.87256,-11.7304691 0,-4.737304 2.33106,-9.399414 2.36865,-4.699707 6.20361,-6.917968 3.83496,-2.25586 8.12109,-2.25586 z m -1.16552,2.443848 q -1.99268,0 -4.02295,1.203125 -1.99268,1.165527 -3.2334,4.135742 -1.24072,2.970215 -1.24072,7.632324 0,7.519531 2.97021,12.9711916 3.00781,5.4516602 7.89551,5.4516602 3.64697,0 6.01562,-3.0078125 2.36866,-3.0078125 2.36866,-10.3393553 0,-9.173828 -3.94776,-14.4375 -2.66943,-3.609375 -6.80517,-3.609375 z" style="" id="path183"/><path d="m 369.5542,-28.160645 q 6.05322,-7.293945 11.54248,-7.293945 2.81982,0 4.8501,1.428711 2.03027,1.391113 3.2334,4.624512 0.82714,2.255859 0.82714,6.917969 v 14.7006832 q 0,3.2709961 0.52637,4.4365234 0.41358,0.9399414 1.31592,1.4663086 0.93994,0.5263672 3.42139,0.5263672 V 0 h -17.03174 v -1.3535156 h 0.71435 q 2.40625,0 3.34619,-0.7143555 0.97754,-0.7519531 1.35352,-2.1806641 0.15039,-0.5639648 0.15039,-3.5341796 V -21.881836 q 0,-4.699707 -1.24072,-6.805176 -1.20313,-2.143066 -4.09815,-2.143066 -4.47412,0 -8.91064,4.887695 v 18.1596682 q 0,3.496582 0.41357,4.3237304 0.52637,1.0903321 1.42871,1.6166992 0.93995,0.4887696 3.75977,0.4887696 V 0 h -17.03174 v -1.3535156 h 0.75195 q 2.63184,0 3.53418,-1.315918 0.93995,-1.3535156 0.93995,-5.1132812 V -20.565918 q 0,-6.203613 -0.30079,-7.557129 -0.26318,-1.353515 -0.86474,-1.842285 -0.56397,-0.48877 -1.54151,-0.48877 -1.05273,0 -2.51904,0.563965 l -0.56396,-1.353515 10.37695,-4.210938 h 1.6167 z" style="" id="path185"/><path d="m 406.4751,-35.492187 q 1.72949,0 2.93261,1.240722 1.24073,1.203125 1.24073,2.932617 0,1.729493 -1.24073,2.970215 -1.20312,1.203125 -2.93261,1.203125 -1.72949,0 -2.97022,-1.203125 -1.20312,-1.240722 -1.20312,-2.970215 0,-1.729492 1.20312,-2.932617 1.24073,-1.240722 2.97022,-1.240722 z m -0.0752,28.160644 q 1.76709,0 2.97022,1.2407227 1.24072,1.2407226 1.24072,2.9702148 0,1.7294922 -1.24072,2.97021488 -1.24073,1.20312502 -2.97022,1.20312502 -1.72949,0 -2.97021,-1.20312502 -1.20313,-1.24072268 -1.20313,-2.97021488 0,-1.7294922 1.20313,-2.9702148 1.24072,-1.2407227 2.97021,-1.2407227 z" style="" id="path187"/></g>
</g></g><g transform="scale(2.5835866,2.5834802)" id="g96"/><g id="g98"><path id="path100" style="fill:#000000;fill-opacity:1;fill-rule:evenodd;stroke:none" d="m 5371.2766,3229.3502 h 684.6504 v -41.3356 h -684.6504 z" inkscape:connector-curvature="0"/><path id="path102" style="fill:#000000;fill-opacity:1;fill-rule:evenodd;stroke:none" d="m 6399.5441,3229.3502 h 684.6504 v -41.3356 h -684.6504 z" inkscape:connector-curvature="0"/><path id="path104" style="fill:#000000;fill-opacity:1;fill-rule:evenodd;stroke:none" d="m 7549.2401,3229.3502 h 684.6505 v -41.3356 h -684.6505 z" inkscape:connector-curvature="0"/><path id="path106" style="fill:#000000;fill-opacity:1;fill-rule:evenodd;stroke:none" d="m 8577.5076,3229.3502 h 684.6504 v -41.3356 h -684.6504 z" inkscape:connector-curvature="0"/></g><g transform="scale(2.5835866,2.5834802)" id="g108"><path id="path110" style="fill:none;stroke:#000000;stroke-width:3;stroke-linecap:butt;stroke-linejoin:bevel;stroke-miterlimit:10;stroke-dasharray:none;stroke-opacity:1" d="M 2079,1029 V 922" inkscape:connector-curvature="0"/><g id="g112"><g aria-label="&#339;" transform="translate(2036,1034)" style="font-variant:normal;font-weight:normal;font-size:128px;font-family:'Opus Std';-inkscape-font-specification:OpusStd;writing-mode:lr-tb;fill:#000000;fill-opacity:1;fill-rule:nonzero;stroke:none" id="text116"><path d="m 14.336,16.64 c 13.184,0 29.44,-11.008 29.44,-22.272 0,-6.784 -6.016,-11.136 -14.592,-11.136 C 16.256,-16.768 0,-6.016 0,5.504 0,12.544 6.272,16.64 14.336,16.64 Z" style="" id="path191"/></g>
</g><g id="g118"><g aria-label="&#8482;" transform="translate(2101,1018)" style="font-variant:normal;font-weight:normal;font-size:128px;font-family:'Opus Special Std';-inkscape-font-specification:OpusSpecialStd;writing-mode:lr-tb;fill:#000000;fill-opacity:1;fill-rule:nonzero;stroke:none" id="text122"><path d="m 0,-6.144 c -3.072,0 -5.888,2.688 -5.888,6.144 0,2.944 2.944,5.76 5.888,5.76 C 3.456,5.76 6.144,2.944 6.144,0 6.144,-3.456 3.456,-6.144 0,-6.144 Z" style="" id="path194"/></g>
</g><path id="path124" style="fill:none;stroke:#000000;stroke-width:3;stroke-linecap:butt;stroke-linejoin:bevel;stroke-miterlimit:10;stroke-dasharray:none;stroke-opacity:1" d="M 2477,1029 V 922" inkscape:connector-curvature="0"/><g id="g126"><g aria-label="&#339;" transform="translate(2434,1034)" style="font-variant:normal;font-weight:normal;font-size:128px;font-family:'Opus Std';-inkscape-font-specification:OpusStd;writing-mode:lr-tb;fill:#000000;fill-opacity:1;fill-rule:nonzero;stroke:none" id="text130"><path d="m 14.336,16.64 c 13.184,0 29.44,-11.008 29.44,-22.272 0,-6.784 -6.016,-11.136 -14.592,-11.136 C 16.256,-16.768 0,-6.016 0,5.504 0,12.544 6.272,16.64 14.336,16.64 Z" style="" id="path197"/></g>
</g><g id="g132"><g aria-label="&#8482;" transform="translate(2499,1018)" style="font-variant:normal;font-weight:normal;font-size:128px;font-family:'Opus Special Std';-inkscape-font-specification:OpusSpecialStd;writing-mode:lr-tb;fill:#000000;fill-opacity:1;fill-rule:nonzero;stroke:none" id="text136"><path d="m 0,-6.144 c -3.072,0 -5.888,2.688 -5.888,6.144 0,2.944 2.944,5.76 5.888,5.76 C 3.456,5.76 6.144,2.944 6.144,0 6.144,-3.456 3.456,-6.144 0,-6.144 Z" style="" id="path200"/></g>
</g><path id="path138" style="fill:none;stroke:#000000;stroke-width:3;stroke-linecap:butt;stroke-linejoin:bevel;stroke-miterlimit:10;stroke-dasharray:none;stroke-opacity:1" d="M 2922,1029 V 922" inkscape:connector-curvature="0"/><g id="g140"><g aria-label="&#339;" transform="translate(2879,1034)" style="font-variant:normal;font-weight:normal;font-size:128px;font-family:'Opus Std';-inkscape-font-specification:OpusStd;writing-mode:lr-tb;fill:#000000;fill-opacity:1;fill-rule:nonzero;stroke:none" id="text144"><path d="m 14.336,16.64 c 13.184,0 29.44,-11.008 29.44,-22.272 0,-6.784 -6.016,-11.136 -14.592,-11.136 C 16.256,-16.768 0,-6.016 0,5.504 0,12.544 6.272,16.64 14.336,16.64 Z" style="" id="path203"/></g>
</g><g id="g146"><g aria-label="&#8482;" transform="translate(2944,1018)" style="font-variant:normal;font-weight:normal;font-size:128px;font-family:'Opus Special Std';-inkscape-font-specification:OpusSpecialStd;writing-mode:lr-tb;fill:#000000;fill-opacity:1;fill-rule:nonzero;stroke:none" id="text150"><path d="m 0,-6.144 c -3.072,0 -5.888,2.688 -5.888,6.144 0,2.944 2.944,5.76 5.888,5.76 C 3.456,5.76 6.144,2.944 6.144,0 6.144,-3.456 3.456,-6.144 0,-6.144 Z" style="" id="path207"/></g>
</g><path id="path152" style="fill:none;stroke:#000000;stroke-width:3;stroke-linecap:butt;stroke-linejoin:bevel;stroke-miterlimit:10;stroke-dasharray:none;stroke-opacity:1" d="M 3320,1029 V 922" inkscape:connector-curvature="0"/><g id="g154"><g aria-label="&#339;" transform="translate(3277,1034)" style="font-variant:normal;font-weight:normal;font-size:128px;font-family:'Opus Std';-inkscape-font-specification:OpusStd;writing-mode:lr-tb;fill:#000000;fill-opacity:1;fill-rule:nonzero;stroke:none" id="text158"><path d="m 14.336,16.64 c 13.184,0 29.44,-11.008 29.44,-22.272 0,-6.784 -6.016,-11.136 -14.592,-11.136 C 16.256,-16.768 0,-6.016 0,5.504 0,12.544 6.272,16.64 14.336,16.64 Z" style="" id="path210"/></g>
</g><g id="g160"><g aria-label="&#8482;" transform="translate(3342,1018)" style="font-variant:normal;font-weight:normal;font-size:128px;font-family:'Opus Special Std';-inkscape-font-specification:OpusSpecialStd;writing-mode:lr-tb;fill:#000000;fill-opacity:1;fill-rule:nonzero;stroke:none" id="text164"><path d="m 0,-6.144 c -3.072,0 -5.888,2.688 -5.888,6.144 0,2.944 2.944,5.76 5.888,5.76 C 3.456,5.76 6.144,2.944 6.144,0 6.144,-3.456 3.456,-6.144 0,-6.144 Z" style="" id="path213"/></g>
</g><path id="path166" style="fill:none;stroke:#000000;stroke-width:3;stroke-linecap:butt;stroke-linejoin:bevel;stroke-miterlimit:10;stroke-dasharray:none;stroke-opacity:1" d="m 2079,1333 v -98" inkscape:connector-curvature="0"/><g id="g168"><g aria-label="&#339;" transform="translate(2036,1338)" style="font-variant:normal;font-weight:normal;font-size:128px;font-family:'Opus Std';-inkscape-font-specification:OpusStd;writing-mode:lr-tb;fill:#000000;fill-opacity:1;fill-rule:nonzero;stroke:none" id="text172"><path d="m 14.336,16.64 c 13.184,0 29.44,-11.008 29.44,-22.272 0,-6.784 -6.016,-11.136 -14.592,-11.136 C 16.256,-16.768 0,-6.016 0,5.504 0,12.544 6.272,16.64 14.336,16.64 Z" style="" id="path216"/></g>
</g><path id="path174" style="fill:none;stroke:#000000;stroke-width:3;stroke-linecap:butt;stroke-linejoin:bevel;stroke-miterlimit:10;stroke-dasharray:none;stroke-opacity:1" d="m 2212,1333 v -98" inkscape:connector-curvature="0"/><g id="g176"><g aria-label="&#339;" transform="translate(2169,1338)" style="font-variant:normal;font-weight:normal;font-size:128px;font-family:'Opus Std';-inkscape-font-specification:OpusStd;writing-mode:lr-tb;fill:#000000;fill-opacity:1;fill-rule:nonzero;stroke:none" id="text180"><path d="m 14.336,16.64 c 13.184,0 29.44,-11.008 29.44,-22.272 0,-6.784 -6.016,-11.136 -14.592,-11.136 C 16.256,-16.768 0,-6.016 0,5.504 0,12.544 6.272,16.64 14.336,16.64 Z" style="" id="path219"/></g>
</g><path id="path182" style="fill:none;stroke:#000000;stroke-width:3;stroke-linecap:butt;stroke-linejoin:bevel;stroke-miterlimit:10;stroke-dasharray:none;stroke-opacity:1" d="m 2344,1333 v -98" inkscape:connector-curvature="0"/><g id="g184"><g aria-label="&#339;" transform="translate(2301,1338)" style="font-variant:normal;font-weight:normal;font-size:128px;font-family:'Opus Std';-inkscape-font-specification:OpusStd;writing-mode:lr-tb;fill:#000000;fill-opacity:1;fill-rule:nonzero;stroke:none" id="text188"><path d="m 14.336,16.64 c 13.184,0 29.44,-11.008 29.44,-22.272 0,-6.784 -6.016,-11.136 -14.592,-11.136 C 16.256,-16.768 0,-6.016 0,5.504 0,12.544 6.272,16.64 14.336,16.64 Z" style="" id="path223"/></g>
</g><path id="path190" style="fill:none;stroke:#000000;stroke-width:3;stroke-linecap:butt;stroke-linejoin:bevel;stroke-miterlimit:10;stroke-dasharray:none;stroke-opacity:1" d="m 2477,1333 v -98" inkscape:connector-curvature="0"/><g id="g192"><g aria-label="&#339;" transform="translate(2434,1338)" style="font-variant:normal;font-weight:normal;font-size:128px;font-family:'Opus Std';-inkscape-font-specification:OpusStd;writing-mode:lr-tb;fill:#000000;fill-opacity:1;fill-rule:nonzero;stroke:none" id="text196"><path d="m 14.336,16.64 c 13.184,0 29.44,-11.008 29.44,-22.272 0,-6.784 -6.016,-11.136 -14.592,-11.136 C 16.256,-16.768 0,-6.016 0,5.504 0,12.544 6.272,16.64 14.336,16.64 Z" style="" id="path226"/></g>
</g><path id="path198" style="fill:none;stroke:#000000;stroke-width:3;stroke-linecap:butt;stroke-linejoin:bevel;stroke-miterlimit:10;stroke-dasharray:none;stroke-opacity:1" d="m 2609,1333 v -98" inkscape:connector-curvature="0"/><g id="g200"><g aria-label="&#339;" transform="translate(2566,1338)" style="font-variant:normal;font-weight:normal;font-size:128px;font-family:'Opus Std';-inkscape-font-specification:OpusStd;writing-mode:lr-tb;fill:#000000;fill-opacity:1;fill-rule:nonzero;stroke:none" id="text204"><path d="m 14.336,16.64 c 13.184,0 29.44,-11.008 29.44,-22.272 0,-6.784 -6.016,-11.136 -14.592,-11.136 C 16.256,-16.768 0,-6.016 0,5.504 0,12.544 6.272,16.64 14.336,16.64 Z" style="" id="path229"/></g>
</g><path id="path206" style="fill:none;stroke:#000000;stroke-width:3;stroke-linecap:butt;stroke-linejoin:bevel;stroke-miterlimit:10;stroke-dasharray:none;stroke-opacity:1" d="m 2742,1333 v -98" inkscape:connector-curvature="0"/><g id="g208"><g aria-label="&#339;" transform="translate(2699,1338)" style="font-variant:normal;font-weight:normal;font-size:128px;font-family:'Opus Std';-inkscape-font-specification:OpusStd;writing-mode:lr-tb;fill:#000000;fill-opacity:1;fill-rule:nonzero;stroke:none" id="text212"><path d="m 14.336,16.64 c 13.184,0 29.44,-11.008 29.44,-22.272 0,-6.784 -6.016,-11.136 -14.592,-11.136 C 16.256,-16.768 0,-6.016 0,5.504 0,12.544 6.272,16.64 14.336,16.64 Z" style="" id="path232"/></g>
</g><path id="path214" style="fill:none;stroke:#000000;stroke-width:3;stroke-linecap:butt;stroke-linejoin:bevel;stroke-miterlimit:10;stroke-dasharray:none;stroke-opacity:1" d="m 2922,1333 v -98" inkscape:connector-curvature="0"/><g id="g216"><g aria-label="&#339;" transform="translate(2879,1338)" style="font-variant:normal;font-weight:normal;font-size:128px;font-family:'Opus Std';-inkscape-font-specification:OpusStd;writing-mode:lr-tb;fill:#000000;fill-opacity:1;fill-rule:nonzero;stroke:none" id="text220"><path d="m 14.336,16.64 c 13.184,0 29.44,-11.008 29.44,-22.272 0,-6.784 -6.016,-11.136 -14.592,-11.136 C 16.256,-16.768 0,-6.016 0,5.504 0,12.544 6.272,16.64 14.336,16.64 Z" style="" id="path235"/></g>
</g><path id="path222" style="fill:none;stroke:#000000;stroke-width:3;stroke-linecap:butt;stroke-linejoin:bevel;stroke-miterlimit:10;stroke-dasharray:none;stroke-opacity:1" d="m 3055,1333 v -98" inkscape:connector-curvature="0"/><g id="g224"><g aria-label="&#339;" transform="translate(3012,1338)" style="font-variant:normal;font-weight:normal;font-size:128px;font-family:'Opus Std';-inkscape-font-specification:OpusStd;writing-mode:lr-tb;fill:#000000;fill-opacity:1;fill-rule:nonzero;stroke:none" id="text228"><path d="m 14.336,16.64 c 13.184,0 29.44,-11.008 29.44,-22.272 0,-6.784 -6.016,-11.136 -14.592,-11.136 C 16.256,-16.768 0,-6.016 0,5.504 0,12.544 6.272,16.64 14.336,16.64 Z" style="" id="path239"/></g>
</g><path id="path230" style="fill:none;stroke:#000000;stroke-width:3;stroke-linecap:butt;stroke-linejoin:bevel;stroke-miterlimit:10;stroke-dasharray:none;stroke-opacity:1" d="m 3187,1333 v -98" inkscape:connector-curvature="0"/><g id="g232"><g aria-label="&#339;" transform="translate(3144,1338)" style="font-variant:normal;font-weight:normal;font-size:128px;font-family:'Opus Std';-inkscape-font-specification:OpusStd;writing-mode:lr-tb;fill:#000000;fill-opacity:1;fill-rule:nonzero;stroke:none" id="text236"><path d="m 14.336,16.64 c 13.184,0 29.44,-11.008 29.44,-22.272 0,-6.784 -6.016,-11.136 -14.592,-11.136 C 16.256,-16.768 0,-6.016 0,5.504 0,12.544 6.272,16.64 14.336,16.64 Z" style="" id="path242"/></g>
</g><path id="path238" style="fill:none;stroke:#000000;stroke-width:3;stroke-linecap:butt;stroke-linejoin:bevel;stroke-miterlimit:10;stroke-dasharray:none;stroke-opacity:1" d="m 3320,1333 v -98" inkscape:connector-curvature="0"/><g id="g240"><g aria-label="&#339;" transform="translate(3277,1338)" style="font-variant:normal;font-weight:normal;font-size:128px;font-family:'Opus Std';-inkscape-font-specification:OpusStd;writing-mode:lr-tb;fill:#000000;fill-opacity:1;fill-rule:nonzero;stroke:none" id="text244"><path d="m 14.336,16.64 c 13.184,0 29.44,-11.008 29.44,-22.272 0,-6.784 -6.016,-11.136 -14.592,-11.136 C 16.256,-16.768 0,-6.016 0,5.504 0,12.544 6.272,16.64 14.336,16.64 Z" style="" id="path245"/></g>
</g><path id="path246" style="fill:none;stroke:#000000;stroke-width:3;stroke-linecap:butt;stroke-linejoin:bevel;stroke-miterlimit:10;stroke-dasharray:none;stroke-opacity:1" d="m 3452,1333 v -98" inkscape:connector-curvature="0"/><g id="g248"><g aria-label="&#339;" transform="translate(3409,1338)" style="font-variant:normal;font-weight:normal;font-size:128px;font-family:'Opus Std';-inkscape-font-specification:OpusStd;writing-mode:lr-tb;fill:#000000;fill-opacity:1;fill-rule:nonzero;stroke:none" id="text252"><path d="m 14.336,16.64 c 13.184,0 29.44,-11.008 29.44,-22.272 0,-6.784 -6.016,-11.136 -14.592,-11.136 C 16.256,-16.768 0,-6.016 0,5.504 0,12.544 6.272,16.64 14.336,16.64 Z" style="" id="path248"/></g>
</g><path id="path254" style="fill:none;stroke:#000000;stroke-width:3;stroke-linecap:butt;stroke-linejoin:bevel;stroke-miterlimit:10;stroke-dasharray:none;stroke-opacity:1" d="m 3585,1333 v -98" inkscape:connector-curvature="0"/><g id="g256"><g aria-label="&#339;" transform="translate(3542,1338)" style="font-variant:normal;font-weight:normal;font-size:128px;font-family:'Opus Std';-inkscape-font-specification:OpusStd;writing-mode:lr-tb;fill:#000000;fill-opacity:1;fill-rule:nonzero;stroke:none" id="text260"><path d="m 14.336,16.64 c 13.184,0 29.44,-11.008 29.44,-22.272 0,-6.784 -6.016,-11.136 -14.592,-11.136 C 16.256,-16.768 0,-6.016 0,5.504 0,12.544 6.272,16.64 14.336,16.64 Z" style="" id="path251"/></g>
</g></g></g></g></g></svg>