<svg xmlns:dc="http://purl.org/dc/elements/1.1/" xmlns:cc="http://creativecommons.org/ns#" xmlns:rdf="http://www.w3.org/1999/02/22-rdf-syntax-ns#" xmlns:svg="http://www.w3.org/2000/svg" xmlns="http://www.w3.org/2000/svg" xmlns:sodipodi="http://sodipodi.sourceforge.net/DTD/sodipodi-0.dtd" xmlns:inkscape="http://www.inkscape.org/namespaces/inkscape" viewBox="0 0 278.09726 93.951309" height="140.9269635" width="417.14589" xml:space="preserve" id="svg2" version="1.1" sodipodi:docname="example_1-16.svg" inkscape:version="0.92.4 (5da689c313, 2019-01-14)" viewbox="0 0 417.14589 140.9269635"><sodipodi:namedview pagecolor="#ffffff" bordercolor="#666666" borderopacity="1" objecttolerance="10" gridtolerance="10" guidetolerance="10" inkscape:pageopacity="0" inkscape:pageshadow="2" inkscape:window-width="640" inkscape:window-height="480" id="namedview62" showgrid="false" inkscape:zoom="0.22348485" inkscape:cx="336.69301" inkscape:cy="-246.53347" inkscape:window-x="0" inkscape:window-y="0" inkscape:window-maximized="0" inkscape:current-layer="svg2"/><metadata id="metadata8"><rdf:RDF><cc:Work rdf:about=""><dc:format>image/svg+xml</dc:format><dc:type rdf:resource="http://purl.org/dc/dcmitype/StillImage"/></cc:Work></rdf:RDF></metadata><defs id="defs6"/><g transform="matrix(1.3333333,0,0,-1.3333333,-71.306988,868.48479)" id="g10"><g transform="matrix(0.06,0,0,-0.06,0,792)" id="g12"><g id="g14"><g id="g16"/></g><g id="g18"><g id="g20"/><g transform="scale(2.5835866,2.5834802)" id="g22"><path id="path24" style="fill:none;stroke:#000000;stroke-width:5;stroke-linecap:butt;stroke-linejoin:bevel;stroke-miterlimit:10;stroke-dasharray:none;stroke-opacity:1" d="m 1671,970 v 128" inkscape:connector-curvature="0"/><path id="path26" style="fill:none;stroke:#000000;stroke-width:5;stroke-linecap:butt;stroke-linejoin:bevel;stroke-miterlimit:10;stroke-dasharray:none;stroke-opacity:1" d="m 1688,970 v 128" inkscape:connector-curvature="0"/></g><g transform="matrix(2.5835866,0,0,2.5834802,658.81459,2561.1973)" id="g28"><g id="g30"/></g><g transform="scale(2.5835866,2.5834802)" id="g32"><path id="path34" style="fill:none;stroke:#000000;stroke-width:2;stroke-linecap:butt;stroke-linejoin:bevel;stroke-miterlimit:10;stroke-dasharray:none;stroke-opacity:1" d="m 555,1106 c 39,51 413,51 452,0" inkscape:connector-curvature="0"/><path id="path36" style="fill:#000000;fill-opacity:1;fill-rule:evenodd;stroke:#000000;stroke-width:1;stroke-linecap:butt;stroke-linejoin:bevel;stroke-miterlimit:10;stroke-dasharray:none;stroke-opacity:1" d="m 555,1106 c 39,46 413,46 452,0 -39,56 -413,56 -452,0 z" inkscape:connector-curvature="0"/><path id="path38" style="fill:none;stroke:#000000;stroke-width:3;stroke-linecap:butt;stroke-linejoin:bevel;stroke-miterlimit:10;stroke-dasharray:none;stroke-opacity:1" d="M 345,1098 H 1690" inkscape:connector-curvature="0"/><path id="path40" style="fill:none;stroke:#000000;stroke-width:3;stroke-linecap:butt;stroke-linejoin:bevel;stroke-miterlimit:10;stroke-dasharray:none;stroke-opacity:1" d="M 345,1066 H 1690" inkscape:connector-curvature="0"/><path id="path42" style="fill:none;stroke:#000000;stroke-width:3;stroke-linecap:butt;stroke-linejoin:bevel;stroke-miterlimit:10;stroke-dasharray:none;stroke-opacity:1" d="M 345,1034 H 1690" inkscape:connector-curvature="0"/><path id="path44" style="fill:none;stroke:#000000;stroke-width:3;stroke-linecap:butt;stroke-linejoin:bevel;stroke-miterlimit:10;stroke-dasharray:none;stroke-opacity:1" d="M 345,1002 H 1690" inkscape:connector-curvature="0"/><path id="path46" style="fill:none;stroke:#000000;stroke-width:3;stroke-linecap:butt;stroke-linejoin:bevel;stroke-miterlimit:10;stroke-dasharray:none;stroke-opacity:1" d="M 345,970 H 1690" inkscape:connector-curvature="0"/><g id="g48"><g aria-label="&amp;" transform="translate(369,1066)" style="font-variant:normal;font-weight:normal;font-size:128px;font-family:'Opus Std';-inkscape-font-specification:OpusStd;writing-mode:lr-tb;fill:#000000;fill-opacity:1;fill-rule:nonzero;stroke:none" id="text52"><path d="m 66.944,28.032 4.864,23.68 c 0.256,1.408 0.384,2.688 0.384,3.968 0,12.544 -12.8,23.04 -26.624,23.04 -4.224,0 -8.32,-1.024 -12.16,-2.944 9.856,-1.024 17.28,-7.04 17.28,-15.872 0,-7.808 -6.4,-16 -14.592,-16 -9.344,0 -15.744,7.168 -15.744,16.512 0,13.056 10.624,21.632 23.424,21.632 17.152,0 31.744,-11.136 31.744,-27.136 0,-3.584 -5.632,-28.928 -5.504,-28.032 13.696,-6.656 23.04,-18.432 23.04,-30.848 0,-17.024 -13.696,-30.08 -30.72,-30.08 -0.256,0 -2.048,0.128 -5.12,0.384 l -5.632,-27.008 c 19.072,-16.128 27.776,-33.28 27.776,-52.096 0,-14.464 -5.76,-29.824 -17.408,-45.952 -13.184,10.624 -20.736,31.872 -20.736,54.528 0,8.064 1.024,15.872 2.816,23.296 -29.184,24.448 -43.776,46.976 -43.776,67.584 0,24.192 24.96,44.288 52.096,44.288 6.016,0 10.496,-0.896 14.592,-2.944 z M 66.56,-140.16 c 4.224,4.352 6.4,9.472 6.4,15.488 0,12.416 -8.832,26.368 -26.112,41.728 -0.896,-3.712 -1.152,-7.808 -1.152,-12.288 0,-21.504 7.936,-45.184 18.56,-45.184 0.896,0 1.664,0.128 2.304,0.256 z M 69.248,22.784 60.16,-19.968 c 1.792,-0.128 2.816,-0.256 3.2,-0.256 11.008,0 18.688,10.368 18.688,20.992 0,8.448 -4.48,15.872 -12.8,22.016 z m -12.288,-42.24 9.216,44.032 c -4.48,2.432 -9.472,3.456 -15.488,3.456 -20.736,0 -38.656,-15.488 -38.656,-34.304 0,-17.024 12.672,-34.56 36.608,-52.48 l 5.376,25.6 C 40.704,-30.336 29.44,-19.072 29.44,-6.4 c 0,10.752 7.68,18.304 19.2,20.096 C 41.6,9.344 38.144,3.84 38.144,-2.688 c 0,-8.832 8.192,-15.36 18.816,-16.768 z" style="" id="path65"/></g>
</g></g><g transform="matrix(2.5835866,0,0,2.5834802,1940.2736,3359.2909)" id="g54"><g id="g56"><g aria-label="tie" transform="translate(0,60.671875)" style="font-variant:normal;font-weight:normal;font-size:65px;font-family:'Times New Roman';-inkscape-font-specification:TimesNewRomanPSMT;writing-mode:lr-tb;fill:#000000;fill-opacity:1;fill-rule:nonzero;stroke:none" id="text60"><path d="m 10.473633,-38.625488 v 9.553222 h 6.791992 v 2.22168 h -6.791992 v 18.8525391 q 0,2.8247071 0.793457,3.8085938 0.825195,0.9838867 2.094726,0.9838867 1.047364,0 2.03125,-0.6347656 0.983887,-0.6665039 1.523438,-1.9360352 h 1.237793 q -1.11084,3.1103516 -3.14209,4.6972656 -2.03125,1.55517582 -4.189453,1.55517582 -1.459961,0 -2.8564454,-0.79345703 Q 6.5698242,-1.1425781 5.9033203,-2.6342773 5.2368164,-4.1577148 5.2368164,-7.2998047 V -26.850586 H 0.63476562 v -1.047363 q 1.74560548,-0.698242 3.55468748,-2.348633 1.8408203,-1.682129 3.269043,-3.967285 0.7299805,-1.206055 2.03125,-4.411621 z" style="" id="path68"/><path d="m 27.473145,-45.131836 q 1.333007,0 2.253417,0.952149 0.952149,0.92041 0.952149,2.253417 0,1.333008 -0.952149,2.285157 -0.92041,0.952148 -2.253417,0.952148 -1.333008,0 -2.285157,-0.952148 -0.952148,-0.952149 -0.952148,-2.285157 0,-1.333007 0.92041,-2.253417 0.952148,-0.952149 2.316895,-0.952149 z m 2.634277,15.202637 v 23.3593748 q 0,2.7294922 0.380859,3.6499023 0.412598,0.8886719 1.174317,1.3330078 0.793457,0.444336 2.856445,0.444336 V 0 H 20.395508 v -1.1425781 q 2.126465,0 2.856445,-0.4125977 0.729981,-0.4125976 1.142578,-1.3647461 0.444336,-0.9521484 0.444336,-3.6499023 V -17.773437 q 0,-4.729004 -0.285644,-6.125489 -0.222168,-1.015625 -0.698243,-1.396484 -0.476074,-0.412598 -1.301269,-0.412598 -0.888672,0 -2.158203,0.476074 l -0.444336,-1.142578 8.759765,-3.554687 z" style="" id="path70"/><path d="m 43.012695,-18.122559 q -0.03174,6.47461 3.14209,10.1562504 3.173828,3.6816406 7.458496,3.6816406 2.856446,0 4.951172,-1.5551757 2.126465,-1.5869141 3.554688,-5.3955083 l 0.983886,0.634766 q -0.666504,4.3481446 -3.87207,7.9345704 -3.205566,3.55468748 -8.029785,3.55468748 -5.236817,0 -8.981934,-4.06249998 -3.713379,-4.0942383 -3.713379,-10.9814449 0,-7.458497 3.808594,-11.616211 3.840332,-4.189453 9.616699,-4.189453 4.887696,0 8.029785,3.237304 3.14209,3.205567 3.14209,8.601074 z m 0,-1.84082 h 13.457032 q -0.158692,-2.792969 -0.666504,-3.935547 -0.793457,-1.777344 -2.380371,-2.792969 -1.555176,-1.015625 -3.269043,-1.015625 -2.634278,0 -4.729004,2.062989 -2.062989,2.03125 -2.41211,5.681152 z" style="" id="path72"/></g>
</g></g><g transform="scale(2.5835866,2.5834802)" id="g62"><path id="path64" style="fill:#000000;fill-opacity:1;fill-rule:evenodd;stroke:#000000;stroke-width:5;stroke-linecap:butt;stroke-linejoin:bevel;stroke-miterlimit:10;stroke-dasharray:none;stroke-opacity:1" d="m 811,1199 -15,-30 -15,30 15,-6 z" inkscape:connector-curvature="0"/><path id="path66" style="fill:none;stroke:#000000;stroke-width:5;stroke-linecap:butt;stroke-linejoin:bevel;stroke-miterlimit:10;stroke-dasharray:none;stroke-opacity:1" d="M 796,1293 V 1169" inkscape:connector-curvature="0"/></g><g transform="matrix(2.5835866,0,0,2.5834802,3255.3191,3359.2909)" id="g68"><g id="g70"><g aria-label="slur" transform="translate(0,60.671875)" style="font-variant:normal;font-weight:normal;font-size:65px;font-family:'Times New Roman';-inkscape-font-specification:TimesNewRomanPSMT;writing-mode:lr-tb;fill:#000000;fill-opacity:1;fill-rule:nonzero;stroke:none" id="text74"><path d="m 20.820312,-29.929199 v 9.902344 h -1.047363 q -1.206054,-4.665528 -3.110351,-6.347657 -1.872559,-1.682129 -4.792481,-1.682129 -2.2216795,0 -3.5864256,1.174317 -1.3647461,1.174316 -1.3647461,2.602539 0,1.777344 1.015625,3.046875 0.9838867,1.301269 3.9990237,2.76123 l 4.633789,2.253418 q 6.442871,3.14209 6.442871,8.2836917 0,3.9672851 -3.015137,6.4111328 -2.983398,2.41210938 -6.696777,2.41210938 -2.666016,0 -6.0937502,-0.95214844 -1.0473632,-0.31738282 -1.7138671,-0.31738282 -0.7299805,0 -1.1425782,0.82519532 H 3.3007813 V -9.934082 h 1.0473632 q 0.8886719,4.4433593 3.3959961,6.6967773 2.5073244,2.25341798 5.6176754,2.25341798 2.189942,0 3.554688,-1.26953128 1.396484,-1.3012695 1.396484,-3.1103515 0,-2.1899414 -1.555176,-3.6816407 -1.523437,-1.4916988 -6.125488,-3.7768558 -4.6020506,-2.285156 -6.0302732,-4.125976 -1.4282227,-1.809082 -1.4282227,-4.570313 0,-3.586425 2.4438477,-5.998535 2.4755859,-2.412109 6.3793942,-2.412109 1.713868,0 4.157715,0.72998 1.618652,0.476074 2.158203,0.476074 0.507813,0 0.793457,-0.222167 0.285645,-0.222168 0.666504,-0.983887 z" style="" id="path75"/><path d="m 37.310059,-45.131836 v 38.5620118 q 0,2.7294922 0.380859,3.618164 0.412598,0.8886719 1.237793,1.3647461 0.825195,0.444336 3.078613,0.444336 V 0 H 27.756836 v -1.1425781 q 1.999512,0 2.729492,-0.4125977 0.729981,-0.4125976 1.142578,-1.3647461 0.412598,-0.9521484 0.412598,-3.6499023 V -32.976074 q 0,-4.919434 -0.222168,-6.030274 -0.222168,-1.142578 -0.729981,-1.555175 -0.476074,-0.412598 -1.237793,-0.412598 -0.825195,0 -2.094726,0.507812 l -0.539551,-1.110839 8.664551,-3.554688 z" style="" id="path77"/><path d="m 70.845215,-29.072266 v 17.614746 q 0,5.0463872 0.222168,6.1889653 0.253906,1.1108399 0.761719,1.5551758 0.53955,0.4443359 1.237793,0.4443359 0.983886,0 2.221679,-0.5395508 l 0.444336,1.1108399 -8.696289,3.58642578 H 65.608398 V -5.2685547 q -3.745117,4.0625 -5.71289,5.10986329 -1.967774,1.04736329 -4.157715,1.04736329 -2.443848,0 -4.25293,-1.39648438 -1.777343,-1.4282227 -2.475586,-3.6499023 -0.698242,-2.2216797 -0.698242,-6.2841802 v -12.980957 q 0,-2.062988 -0.444336,-2.856445 -0.444336,-0.793457 -1.333008,-1.206055 -0.856933,-0.444335 -3.142089,-0.412597 v -1.174317 H 53.57959 v 19.4555668 q 0,4.0625 1.396484,5.3320312 1.428223,1.2695313 3.427735,1.2695313 1.364746,0 3.078613,-0.8569336 1.745605,-0.8569336 4.125976,-3.269043 V -23.613281 q 0,-2.475586 -0.92041,-3.33252 -0.888672,-0.888672 -3.745117,-0.952148 v -1.174317 z" style="" id="path79"/><path d="m 86.365234,-29.929199 v 6.538086 q 3.649903,-6.538086 7.490235,-6.538086 1.745605,0 2.888183,1.079101 1.142578,1.047364 1.142578,2.443848 0,1.237793 -0.825195,2.094727 -0.825195,0.856933 -1.967773,0.856933 -1.11084,0 -2.507325,-1.079101 -1.364746,-1.11084 -2.03125,-1.11084 -0.571289,0 -1.237792,0.634765 -1.428223,1.30127 -2.951661,4.284668 v 13.9331058 q 0,2.4121094 0.603028,3.6499024 0.412597,0.8569335 1.459961,1.4282226 1.047363,0.5712891 3.015136,0.5712891 V 0 H 76.558105 v -1.1425781 q 2.22168,0 3.300782,-0.6982422 0.793457,-0.5078125 1.11084,-1.6186524 0.158691,-0.5395507 0.158691,-3.0786132 V -17.805176 q 0,-5.078125 -0.222168,-6.030273 -0.19043,-0.983887 -0.761719,-1.428223 -0.539551,-0.444336 -1.364746,-0.444336 -0.983887,0 -2.22168,0.476074 l -0.317382,-1.142578 8.791504,-3.554687 z" style="" id="path81"/></g>
</g></g><g transform="scale(2.5835866,2.5834802)" id="g76"/><g id="g78"><path id="path80" style="fill:#000000;fill-opacity:1;fill-rule:evenodd;stroke:none" d="m 2666.2614,2547.3115 506.383,-20.6679 v -41.3356 l -506.383,20.6678 z" inkscape:connector-curvature="0"/></g><g transform="scale(2.5835866,2.5834802)" id="g82"><path id="path84" style="fill:none;stroke:#000000;stroke-width:2;stroke-linecap:butt;stroke-linejoin:bevel;stroke-miterlimit:10;stroke-dasharray:none;stroke-opacity:1" d="m 1212,1114 c 38,35 161,13 186,-32" inkscape:connector-curvature="0"/><path id="path86" style="fill:#000000;fill-opacity:1;fill-rule:evenodd;stroke:#000000;stroke-width:1;stroke-linecap:butt;stroke-linejoin:bevel;stroke-miterlimit:10;stroke-dasharray:none;stroke-opacity:1" d="m 1212,1114 c 37,30 160,8 186,-32 -24,50 -147,72 -186,32 z" inkscape:connector-curvature="0"/><path id="path88" style="fill:#000000;fill-opacity:1;fill-rule:evenodd;stroke:#000000;stroke-width:5;stroke-linecap:butt;stroke-linejoin:bevel;stroke-miterlimit:10;stroke-dasharray:none;stroke-opacity:1" d="m 1355,1199 -15,-30 -15,30 15,-6 z" inkscape:connector-curvature="0"/><path id="path90" style="fill:none;stroke:#000000;stroke-width:5;stroke-linecap:butt;stroke-linejoin:bevel;stroke-miterlimit:10;stroke-dasharray:none;stroke-opacity:1" d="M 1340,1293 V 1169" inkscape:connector-curvature="0"/><path id="path92" style="fill:none;stroke:#000000;stroke-width:3;stroke-linecap:butt;stroke-linejoin:bevel;stroke-miterlimit:10;stroke-dasharray:none;stroke-opacity:1" d="M 573,1077 V 970" inkscape:connector-curvature="0"/><g id="g94"><g aria-label="&#729;" transform="translate(529,1082)" style="font-variant:normal;font-weight:normal;font-size:128px;font-family:'Opus Std';-inkscape-font-specification:OpusStd;writing-mode:lr-tb;fill:#000000;fill-opacity:1;fill-rule:nonzero;stroke:none" id="text98"><path d="m 0,5.888 c 0,7.168 7.04,11.392 15.744,11.392 14.592,0 29.312,-9.728 29.312,-21.76 0,-8.192 -6.912,-12.928 -17.536,-12.928 C 14.464,-17.408 0,-5.888 0,5.888 Z m 34.816,-19.456 c 4.864,0 7.296,2.048 7.296,6.016 0,7.424 -22.784,20.992 -31.872,20.992 -4.864,0 -7.296,-2.048 -7.296,-6.016 0,-7.936 23.68,-20.992 31.872,-20.992 z" style="" id="path85"/></g>
</g><path id="path100" style="fill:none;stroke:#000000;stroke-width:3;stroke-linecap:butt;stroke-linejoin:bevel;stroke-miterlimit:10;stroke-dasharray:none;stroke-opacity:1" d="M 1032,1077 V 971" inkscape:connector-curvature="0"/><g id="g102"><g aria-label="&#339;" transform="translate(989,1082)" style="font-variant:normal;font-weight:normal;font-size:128px;font-family:'Opus Std';-inkscape-font-specification:OpusStd;writing-mode:lr-tb;fill:#000000;fill-opacity:1;fill-rule:nonzero;stroke:none" id="text106"><path d="m 14.336,16.64 c 13.184,0 29.44,-11.008 29.44,-22.272 0,-6.784 -6.016,-11.136 -14.592,-11.136 C 16.256,-16.768 0,-6.016 0,5.504 0,12.544 6.272,16.64 14.336,16.64 Z" style="" id="path89"/></g>
</g><path id="path108" style="fill:none;stroke:#000000;stroke-width:3;stroke-linecap:butt;stroke-linejoin:bevel;stroke-miterlimit:10;stroke-dasharray:none;stroke-opacity:1" d="M 1228,1061 V 963" inkscape:connector-curvature="0"/><g id="g110"><g aria-label="&#339;" transform="translate(1185,1066)" style="font-variant:normal;font-weight:normal;font-size:128px;font-family:'Opus Std';-inkscape-font-specification:OpusStd;writing-mode:lr-tb;fill:#000000;fill-opacity:1;fill-rule:nonzero;stroke:none" id="text114"><path d="m 14.336,16.64 c 13.184,0 29.44,-11.008 29.44,-22.272 0,-6.784 -6.016,-11.136 -14.592,-11.136 C 16.256,-16.768 0,-6.016 0,5.504 0,12.544 6.272,16.64 14.336,16.64 Z" style="" id="path93"/></g>
</g><path id="path116" style="fill:none;stroke:#000000;stroke-width:3;stroke-linecap:butt;stroke-linejoin:bevel;stroke-miterlimit:10;stroke-dasharray:none;stroke-opacity:1" d="M 1424,1045 V 938" inkscape:connector-curvature="0"/><g id="g118"><g aria-label="&#339;" transform="translate(1381,1050)" style="font-variant:normal;font-weight:normal;font-size:128px;font-family:'Opus Std';-inkscape-font-specification:OpusStd;writing-mode:lr-tb;fill:#000000;fill-opacity:1;fill-rule:nonzero;stroke:none" id="text122"><path d="m 14.336,16.64 c 13.184,0 29.44,-11.008 29.44,-22.272 0,-6.784 -6.016,-11.136 -14.592,-11.136 C 16.256,-16.768 0,-6.016 0,5.504 0,12.544 6.272,16.64 14.336,16.64 Z" style="" id="path96"/></g>
</g></g></g></g></g></svg>