<svg xmlns:dc="http://purl.org/dc/elements/1.1/" xmlns:cc="http://creativecommons.org/ns#" xmlns:rdf="http://www.w3.org/1999/02/22-rdf-syntax-ns#" xmlns:svg="http://www.w3.org/2000/svg" xmlns="http://www.w3.org/2000/svg" xmlns:sodipodi="http://sodipodi.sourceforge.net/DTD/sodipodi-0.dtd" xmlns:inkscape="http://www.inkscape.org/namespaces/inkscape" viewBox="0 0 360.66867 170.43529" height="255.652935" width="541.003005" xml:space="preserve" id="svg2" version="1.1" sodipodi:docname="example_1-10.svg" inkscape:version="0.92.4 (5da689c313, 2019-01-14)" viewbox="0 0 541.003005 255.652935"><sodipodi:namedview pagecolor="#ffffff" bordercolor="#666666" borderopacity="1" objecttolerance="10" gridtolerance="10" guidetolerance="10" inkscape:pageopacity="0" inkscape:pageshadow="2" inkscape:window-width="640" inkscape:window-height="480" id="namedview160" showgrid="false" inkscape:zoom="0.22348485" inkscape:cx="336.69301" inkscape:cy="-182.71475" inkscape:window-x="0" inkscape:window-y="0" inkscape:window-maximized="0" inkscape:current-layer="svg2"/><metadata id="metadata8"><rdf:RDF><cc:Work rdf:about=""><dc:format>image/svg+xml</dc:format><dc:type rdf:resource="http://purl.org/dc/dcmitype/StillImage"/></cc:Work></rdf:RDF></metadata><defs id="defs6"/><g transform="matrix(1.3333333,0,0,-1.3333333,-71.306988,881.15004)" id="g10"><g transform="matrix(0.06,0,0,-0.06,0,792)" id="g12"><g id="g14"><g id="g16"/></g><g id="g18"><g id="g20"/><g transform="scale(2.5835866,2.5834802)" id="g22"><path id="path24" style="fill:none;stroke:#000000;stroke-width:3;stroke-linecap:butt;stroke-linejoin:bevel;stroke-miterlimit:10;stroke-dasharray:none;stroke-opacity:1" d="m 346,958 h 705" inkscape:connector-curvature="0"/><path id="path26" style="fill:none;stroke:#000000;stroke-width:3;stroke-linecap:butt;stroke-linejoin:bevel;stroke-miterlimit:10;stroke-dasharray:none;stroke-opacity:1" d="m 1372,958 h 718" inkscape:connector-curvature="0"/></g><g transform="matrix(2.5835866,0,0,2.5834802,2715.3495,2131.613)" id="g28"><g id="g30"/></g><g transform="scale(2.5835866,2.5834802)" id="g32"/><g transform="matrix(2.5835866,0,0,2.5834802,3084.8024,2366.7097)" id="g34"><g id="g36"><g aria-label="=" transform="translate(0,68.890625)" style="font-variant:normal;font-weight:normal;font-size:77px;font-family:'Plantin MT Std';-inkscape-font-specification:PlantinMTStd-Regular;writing-mode:lr-tb;fill:#000000;fill-opacity:1;fill-rule:nonzero;stroke:none" id="text40"><path d="m 5.082,-36.96 v 5.929 h 41.195 v -5.929 z m 0,17.787 v 5.929 h 41.195 v -5.929 z" style="" id="path162"/></g>
</g></g><g transform="scale(2.5835866,2.5834802)" id="g42"/><g id="g44"><path id="path46" style="fill:#000000;fill-opacity:1;fill-rule:evenodd;stroke:none" d="m 4014.8936,2247.6278 h 720.8207 v -41.3357 h -720.8207 z" inkscape:connector-curvature="0"/></g><g transform="scale(2.5835866,2.5834802)" id="g48"><path id="path50" style="fill:none;stroke:#000000;stroke-width:3;stroke-linecap:butt;stroke-linejoin:bevel;stroke-miterlimit:10;stroke-dasharray:none;stroke-opacity:1" d="m 345,1306 h 705" inkscape:connector-curvature="0"/><path id="path52" style="fill:none;stroke:#000000;stroke-width:3;stroke-linecap:butt;stroke-linejoin:bevel;stroke-miterlimit:10;stroke-dasharray:none;stroke-opacity:1" d="m 1372,1306 h 718" inkscape:connector-curvature="0"/></g><g id="g54"/><g id="g56"/><g transform="matrix(2.5835866,0,0,2.5834802,2712.766,3030.6641)" id="g58"><g id="g60"/></g><g id="g62"/><g id="g64"/><g id="g66"/><g transform="matrix(2.5835866,0,0,2.5834802,3082.2188,3265.7608)" id="g68"><g id="g70"><g aria-label="=" transform="translate(0,68.890625)" style="font-variant:normal;font-weight:normal;font-size:77px;font-family:'Plantin MT Std';-inkscape-font-specification:PlantinMTStd-Regular;writing-mode:lr-tb;fill:#000000;fill-opacity:1;fill-rule:nonzero;stroke:none" id="text74"><path d="m 5.082,-36.96 v 5.929 h 41.195 v -5.929 z m 0,17.787 v 5.929 h 41.195 v -5.929 z" style="" id="path165"/></g>
</g></g><g id="g76"/><g id="g78"><path id="path80" style="fill:#000000;fill-opacity:1;fill-rule:evenodd;stroke:none" d="m 4014.8936,3208.6824 h 1082.5228 v -41.3357 H 4014.8936 Z" inkscape:connector-curvature="0"/><path id="path82" style="fill:#000000;fill-opacity:1;fill-rule:evenodd;stroke:none" d="m 4014.8936,3146.6789 h 1082.5228 v -41.3357 H 4014.8936 Z" inkscape:connector-curvature="0"/></g><g transform="scale(2.5835866,2.5834802)" id="g84"><path id="path86" style="fill:none;stroke:#000000;stroke-width:3;stroke-linecap:butt;stroke-linejoin:bevel;stroke-miterlimit:10;stroke-dasharray:none;stroke-opacity:1" d="m 345,1654 h 705" inkscape:connector-curvature="0"/><path id="path88" style="fill:none;stroke:#000000;stroke-width:3;stroke-linecap:butt;stroke-linejoin:bevel;stroke-miterlimit:10;stroke-dasharray:none;stroke-opacity:1" d="m 1372,1654 h 718" inkscape:connector-curvature="0"/></g><g id="g90"/><g id="g92"/><g transform="matrix(2.5835866,0,0,2.5834802,2712.766,3929.7152)" id="g94"><g id="g96"/></g><g id="g98"/><g id="g100"/><g id="g102"/><g transform="matrix(2.5835866,0,0,2.5834802,3082.2188,4164.8119)" id="g104"><g id="g106"><g aria-label="=" transform="translate(0,68.890625)" style="font-variant:normal;font-weight:normal;font-size:77px;font-family:'Plantin MT Std';-inkscape-font-specification:PlantinMTStd-Regular;writing-mode:lr-tb;fill:#000000;fill-opacity:1;fill-rule:nonzero;stroke:none" id="text110"><path d="m 5.082,-36.96 v 5.929 h 41.195 v -5.929 z m 0,17.787 v 5.929 h 41.195 v -5.929 z" style="" id="path168"/></g>
</g></g><g id="g112"/><g id="g114"><path id="path116" style="fill:#000000;fill-opacity:1;fill-rule:evenodd;stroke:none" d="m 4014.8936,4107.7335 h 361.7021 v -41.3357 h -361.7021 z" inkscape:connector-curvature="0"/><path id="path118" style="fill:#000000;fill-opacity:1;fill-rule:evenodd;stroke:none" d="m 4014.8936,4045.73 h 720.8207 v -41.3357 h -720.8207 z" inkscape:connector-curvature="0"/></g><g transform="scale(2.5835866,2.5834802)" id="g120"><path id="path122" style="fill:none;stroke:#000000;stroke-width:3;stroke-linecap:butt;stroke-linejoin:bevel;stroke-miterlimit:10;stroke-dasharray:none;stroke-opacity:1" d="M 536,953 V 846" inkscape:connector-curvature="0"/><g id="g124"><g aria-label="&#339;" transform="translate(493,958)" style="font-variant:normal;font-weight:normal;font-size:128px;font-family:'Opus Std';-inkscape-font-specification:OpusStd;writing-mode:lr-tb;fill:#000000;fill-opacity:1;fill-rule:nonzero;stroke:none" id="text128"><path d="m 14.336,16.64 c 13.184,0 29.44,-11.008 29.44,-22.272 0,-6.784 -6.016,-11.136 -14.592,-11.136 C 16.256,-16.768 0,-6.016 0,5.504 0,12.544 6.272,16.64 14.336,16.64 Z" style="" id="path171"/></g>
</g><g id="g130"><g aria-label="j" transform="translate(535,878)" style="font-variant:normal;font-weight:normal;font-size:128px;font-family:'Opus Std';-inkscape-font-specification:OpusStd;writing-mode:lr-tb;fill:#000000;fill-opacity:1;fill-rule:nonzero;stroke:none" id="text134"><path d="m 1.28,0 c 6.4,0 8.576,2.432 12.288,5.12 10.368,7.296 15.616,15.36 15.616,24.32 v 0.64 C 28.928,41.6 28.8,42.496 25.472,49.92 c -0.512,1.152 -0.768,1.92 -0.768,2.432 0,0.64 0.384,1.024 1.024,1.024 1.28,0 7.808,-8.96 7.808,-25.344 v -0.64 C 33.536,21.888 32,16.64 28.928,11.776 28.032,10.24 24.064,4.992 17.024,-3.84 11.52,-10.88 6.784,-19.584 2.944,-29.696 2.816,-30.08 2.816,-30.464 2.816,-30.848 c 0,-0.384 0,-0.768 0.128,-1.024 C 3.072,-32 2.432,-32 1.28,-32 Z" style="" id="path174"/></g>
</g><path id="path136" style="fill:none;stroke:#000000;stroke-width:3;stroke-linecap:butt;stroke-linejoin:bevel;stroke-miterlimit:10;stroke-dasharray:none;stroke-opacity:1" d="M 815,953 V 846" inkscape:connector-curvature="0"/><g id="g138"><g aria-label="&#339;" transform="translate(772,958)" style="font-variant:normal;font-weight:normal;font-size:128px;font-family:'Opus Std';-inkscape-font-specification:OpusStd;writing-mode:lr-tb;fill:#000000;fill-opacity:1;fill-rule:nonzero;stroke:none" id="text142"><path d="m 14.336,16.64 c 13.184,0 29.44,-11.008 29.44,-22.272 0,-6.784 -6.016,-11.136 -14.592,-11.136 C 16.256,-16.768 0,-6.016 0,5.504 0,12.544 6.272,16.64 14.336,16.64 Z" style="" id="path177"/></g>
</g><g id="g144"><g aria-label="j" transform="translate(814,878)" style="font-variant:normal;font-weight:normal;font-size:128px;font-family:'Opus Std';-inkscape-font-specification:OpusStd;writing-mode:lr-tb;fill:#000000;fill-opacity:1;fill-rule:nonzero;stroke:none" id="text148"><path d="m 1.28,0 c 6.4,0 8.576,2.432 12.288,5.12 10.368,7.296 15.616,15.36 15.616,24.32 v 0.64 C 28.928,41.6 28.8,42.496 25.472,49.92 c -0.512,1.152 -0.768,1.92 -0.768,2.432 0,0.64 0.384,1.024 1.024,1.024 1.28,0 7.808,-8.96 7.808,-25.344 v -0.64 C 33.536,21.888 32,16.64 28.928,11.776 28.032,10.24 24.064,4.992 17.024,-3.84 11.52,-10.88 6.784,-19.584 2.944,-29.696 2.816,-30.08 2.816,-30.464 2.816,-30.848 c 0,-0.384 0,-0.768 0.128,-1.024 C 3.072,-32 2.432,-32 1.28,-32 Z" style="" id="path181"/></g>
</g><path id="path150" style="fill:none;stroke:#000000;stroke-width:3;stroke-linecap:butt;stroke-linejoin:bevel;stroke-miterlimit:10;stroke-dasharray:none;stroke-opacity:1" d="M 1554,953 V 855" inkscape:connector-curvature="0"/><g id="g152"><g aria-label="&#339;" transform="translate(1511,958)" style="font-variant:normal;font-weight:normal;font-size:128px;font-family:'Opus Std';-inkscape-font-specification:OpusStd;writing-mode:lr-tb;fill:#000000;fill-opacity:1;fill-rule:nonzero;stroke:none" id="text156"><path d="m 14.336,16.64 c 13.184,0 29.44,-11.008 29.44,-22.272 0,-6.784 -6.016,-11.136 -14.592,-11.136 C 16.256,-16.768 0,-6.016 0,5.504 0,12.544 6.272,16.64 14.336,16.64 Z" style="" id="path184"/></g>
</g><path id="path158" style="fill:none;stroke:#000000;stroke-width:3;stroke-linecap:butt;stroke-linejoin:bevel;stroke-miterlimit:10;stroke-dasharray:none;stroke-opacity:1" d="M 1833,953 V 855" inkscape:connector-curvature="0"/><g id="g160"><g aria-label="&#339;" transform="translate(1790,958)" style="font-variant:normal;font-weight:normal;font-size:128px;font-family:'Opus Std';-inkscape-font-specification:OpusStd;writing-mode:lr-tb;fill:#000000;fill-opacity:1;fill-rule:nonzero;stroke:none" id="text164"><path d="m 14.336,16.64 c 13.184,0 29.44,-11.008 29.44,-22.272 0,-6.784 -6.016,-11.136 -14.592,-11.136 C 16.256,-16.768 0,-6.016 0,5.504 0,12.544 6.272,16.64 14.336,16.64 Z" style="" id="path187"/></g>
</g><path id="path166" style="fill:none;stroke:#000000;stroke-width:3;stroke-linecap:butt;stroke-linejoin:bevel;stroke-miterlimit:10;stroke-dasharray:none;stroke-opacity:1" d="M 535,1301 V 1194" inkscape:connector-curvature="0"/><g id="g168"><g aria-label="&#339;" transform="translate(492,1306)" style="font-variant:normal;font-weight:normal;font-size:128px;font-family:'Opus Std';-inkscape-font-specification:OpusStd;writing-mode:lr-tb;fill:#000000;fill-opacity:1;fill-rule:nonzero;stroke:none" id="text172"><path d="m 14.336,16.64 c 13.184,0 29.44,-11.008 29.44,-22.272 0,-6.784 -6.016,-11.136 -14.592,-11.136 C 16.256,-16.768 0,-6.016 0,5.504 0,12.544 6.272,16.64 14.336,16.64 Z" style="" id="path190"/></g>
</g><g id="g174"><g aria-label="r" transform="translate(534,1226)" style="font-variant:normal;font-weight:normal;font-size:128px;font-family:'Opus Std';-inkscape-font-specification:OpusStd;writing-mode:lr-tb;fill:#000000;fill-opacity:1;fill-rule:nonzero;stroke:none" id="text178"><path d="m 28.288,65.92 c 2.56,0 6.144,-11.008 6.144,-15.744 v -0.64 C 34.304,45.696 33.92,42.752 33.024,40.576 34.432,37.76 35.072,34.048 35.072,29.312 35.072,22.784 33.28,16 29.44,10.88 25.472,5.632 20.864,1.152 17.152,-3.968 9.856,-12.928 5.12,-21.632 2.944,-29.696 2.56,-31.232 2.688,-32 1.664,-32 H 1.28 v 56.32 c 4.608,0 5.76,0.512 12.288,5.504 13.568,10.624 16,13.44 16.256,19.584 0,4.608 -2.56,13.568 -2.56,15.488 0,0.64 0.384,1.024 1.024,1.024 z M 30.72,31.36 c 0,1.152 0,2.304 -0.128,3.584 C 28.416,30.592 18.048,21.376 17.024,20.096 12.544,14.592 8.832,8.192 5.632,0.896 12.16,2.944 25.088,15.744 25.6,16.384 c 3.456,4.224 5.12,9.216 5.12,14.976 z" style="" id="path193"/></g>
</g><path id="path180" style="fill:none;stroke:#000000;stroke-width:3;stroke-linecap:butt;stroke-linejoin:bevel;stroke-miterlimit:10;stroke-dasharray:none;stroke-opacity:1" d="M 674,1301 V 1194" inkscape:connector-curvature="0"/><g id="g182"><g aria-label="&#339;" transform="translate(631,1306)" style="font-variant:normal;font-weight:normal;font-size:128px;font-family:'Opus Std';-inkscape-font-specification:OpusStd;writing-mode:lr-tb;fill:#000000;fill-opacity:1;fill-rule:nonzero;stroke:none" id="text186"><path d="m 14.336,16.64 c 13.184,0 29.44,-11.008 29.44,-22.272 0,-6.784 -6.016,-11.136 -14.592,-11.136 C 16.256,-16.768 0,-6.016 0,5.504 0,12.544 6.272,16.64 14.336,16.64 Z" style="" id="path196"/></g>
</g><g id="g188"><g aria-label="r" transform="translate(673,1226)" style="font-variant:normal;font-weight:normal;font-size:128px;font-family:'Opus Std';-inkscape-font-specification:OpusStd;writing-mode:lr-tb;fill:#000000;fill-opacity:1;fill-rule:nonzero;stroke:none" id="text192"><path d="m 28.288,65.92 c 2.56,0 6.144,-11.008 6.144,-15.744 v -0.64 C 34.304,45.696 33.92,42.752 33.024,40.576 34.432,37.76 35.072,34.048 35.072,29.312 35.072,22.784 33.28,16 29.44,10.88 25.472,5.632 20.864,1.152 17.152,-3.968 9.856,-12.928 5.12,-21.632 2.944,-29.696 2.56,-31.232 2.688,-32 1.664,-32 H 1.28 v 56.32 c 4.608,0 5.76,0.512 12.288,5.504 13.568,10.624 16,13.44 16.256,19.584 0,4.608 -2.56,13.568 -2.56,15.488 0,0.64 0.384,1.024 1.024,1.024 z M 30.72,31.36 c 0,1.152 0,2.304 -0.128,3.584 C 28.416,30.592 18.048,21.376 17.024,20.096 12.544,14.592 8.832,8.192 5.632,0.896 12.16,2.944 25.088,15.744 25.6,16.384 c 3.456,4.224 5.12,9.216 5.12,14.976 z" style="" id="path199"/></g>
</g><path id="path194" style="fill:none;stroke:#000000;stroke-width:3;stroke-linecap:butt;stroke-linejoin:bevel;stroke-miterlimit:10;stroke-dasharray:none;stroke-opacity:1" d="M 814,1301 V 1194" inkscape:connector-curvature="0"/><g id="g196"><g aria-label="&#339;" transform="translate(771,1306)" style="font-variant:normal;font-weight:normal;font-size:128px;font-family:'Opus Std';-inkscape-font-specification:OpusStd;writing-mode:lr-tb;fill:#000000;fill-opacity:1;fill-rule:nonzero;stroke:none" id="text200"><path d="m 14.336,16.64 c 13.184,0 29.44,-11.008 29.44,-22.272 0,-6.784 -6.016,-11.136 -14.592,-11.136 C 16.256,-16.768 0,-6.016 0,5.504 0,12.544 6.272,16.64 14.336,16.64 Z" style="" id="path202"/></g>
</g><g id="g202"><g aria-label="r" transform="translate(813,1226)" style="font-variant:normal;font-weight:normal;font-size:128px;font-family:'Opus Std';-inkscape-font-specification:OpusStd;writing-mode:lr-tb;fill:#000000;fill-opacity:1;fill-rule:nonzero;stroke:none" id="text206"><path d="m 28.288,65.92 c 2.56,0 6.144,-11.008 6.144,-15.744 v -0.64 C 34.304,45.696 33.92,42.752 33.024,40.576 34.432,37.76 35.072,34.048 35.072,29.312 35.072,22.784 33.28,16 29.44,10.88 25.472,5.632 20.864,1.152 17.152,-3.968 9.856,-12.928 5.12,-21.632 2.944,-29.696 2.56,-31.232 2.688,-32 1.664,-32 H 1.28 v 56.32 c 4.608,0 5.76,0.512 12.288,5.504 13.568,10.624 16,13.44 16.256,19.584 0,4.608 -2.56,13.568 -2.56,15.488 0,0.64 0.384,1.024 1.024,1.024 z M 30.72,31.36 c 0,1.152 0,2.304 -0.128,3.584 C 28.416,30.592 18.048,21.376 17.024,20.096 12.544,14.592 8.832,8.192 5.632,0.896 12.16,2.944 25.088,15.744 25.6,16.384 c 3.456,4.224 5.12,9.216 5.12,14.976 z" style="" id="path205"/></g>
</g><path id="path208" style="fill:none;stroke:#000000;stroke-width:3;stroke-linecap:butt;stroke-linejoin:bevel;stroke-miterlimit:10;stroke-dasharray:none;stroke-opacity:1" d="M 953,1301 V 1194" inkscape:connector-curvature="0"/><g id="g210"><g aria-label="&#339;" transform="translate(910,1306)" style="font-variant:normal;font-weight:normal;font-size:128px;font-family:'Opus Std';-inkscape-font-specification:OpusStd;writing-mode:lr-tb;fill:#000000;fill-opacity:1;fill-rule:nonzero;stroke:none" id="text214"><path d="m 14.336,16.64 c 13.184,0 29.44,-11.008 29.44,-22.272 0,-6.784 -6.016,-11.136 -14.592,-11.136 C 16.256,-16.768 0,-6.016 0,5.504 0,12.544 6.272,16.64 14.336,16.64 Z" style="" id="path209"/></g>
</g><g id="g216"><g aria-label="r" transform="translate(952,1226)" style="font-variant:normal;font-weight:normal;font-size:128px;font-family:'Opus Std';-inkscape-font-specification:OpusStd;writing-mode:lr-tb;fill:#000000;fill-opacity:1;fill-rule:nonzero;stroke:none" id="text220"><path d="m 28.288,65.92 c 2.56,0 6.144,-11.008 6.144,-15.744 v -0.64 C 34.304,45.696 33.92,42.752 33.024,40.576 34.432,37.76 35.072,34.048 35.072,29.312 35.072,22.784 33.28,16 29.44,10.88 25.472,5.632 20.864,1.152 17.152,-3.968 9.856,-12.928 5.12,-21.632 2.944,-29.696 2.56,-31.232 2.688,-32 1.664,-32 H 1.28 v 56.32 c 4.608,0 5.76,0.512 12.288,5.504 13.568,10.624 16,13.44 16.256,19.584 0,4.608 -2.56,13.568 -2.56,15.488 0,0.64 0.384,1.024 1.024,1.024 z M 30.72,31.36 c 0,1.152 0,2.304 -0.128,3.584 C 28.416,30.592 18.048,21.376 17.024,20.096 12.544,14.592 8.832,8.192 5.632,0.896 12.16,2.944 25.088,15.744 25.6,16.384 c 3.456,4.224 5.12,9.216 5.12,14.976 z" style="" id="path212"/></g>
</g><path id="path222" style="fill:none;stroke:#000000;stroke-width:3;stroke-linecap:butt;stroke-linejoin:bevel;stroke-miterlimit:10;stroke-dasharray:none;stroke-opacity:1" d="m 1554,1301 v -98" inkscape:connector-curvature="0"/><g id="g224"><g aria-label="&#339;" transform="translate(1511,1306)" style="font-variant:normal;font-weight:normal;font-size:128px;font-family:'Opus Std';-inkscape-font-specification:OpusStd;writing-mode:lr-tb;fill:#000000;fill-opacity:1;fill-rule:nonzero;stroke:none" id="text228"><path d="m 14.336,16.64 c 13.184,0 29.44,-11.008 29.44,-22.272 0,-6.784 -6.016,-11.136 -14.592,-11.136 C 16.256,-16.768 0,-6.016 0,5.504 0,12.544 6.272,16.64 14.336,16.64 Z" style="" id="path215"/></g>
</g><path id="path230" style="fill:none;stroke:#000000;stroke-width:3;stroke-linecap:butt;stroke-linejoin:bevel;stroke-miterlimit:10;stroke-dasharray:none;stroke-opacity:1" d="m 1694,1301 v -98" inkscape:connector-curvature="0"/><g id="g232"><g aria-label="&#339;" transform="translate(1651,1306)" style="font-variant:normal;font-weight:normal;font-size:128px;font-family:'Opus Std';-inkscape-font-specification:OpusStd;writing-mode:lr-tb;fill:#000000;fill-opacity:1;fill-rule:nonzero;stroke:none" id="text236"><path d="m 14.336,16.64 c 13.184,0 29.44,-11.008 29.44,-22.272 0,-6.784 -6.016,-11.136 -14.592,-11.136 C 16.256,-16.768 0,-6.016 0,5.504 0,12.544 6.272,16.64 14.336,16.64 Z" style="" id="path218"/></g>
</g><path id="path238" style="fill:none;stroke:#000000;stroke-width:3;stroke-linecap:butt;stroke-linejoin:bevel;stroke-miterlimit:10;stroke-dasharray:none;stroke-opacity:1" d="m 1833,1301 v -98" inkscape:connector-curvature="0"/><g id="g240"><g aria-label="&#339;" transform="translate(1790,1306)" style="font-variant:normal;font-weight:normal;font-size:128px;font-family:'Opus Std';-inkscape-font-specification:OpusStd;writing-mode:lr-tb;fill:#000000;fill-opacity:1;fill-rule:nonzero;stroke:none" id="text244"><path d="m 14.336,16.64 c 13.184,0 29.44,-11.008 29.44,-22.272 0,-6.784 -6.016,-11.136 -14.592,-11.136 C 16.256,-16.768 0,-6.016 0,5.504 0,12.544 6.272,16.64 14.336,16.64 Z" style="" id="path221"/></g>
</g><path id="path246" style="fill:none;stroke:#000000;stroke-width:3;stroke-linecap:butt;stroke-linejoin:bevel;stroke-miterlimit:10;stroke-dasharray:none;stroke-opacity:1" d="m 1973,1301 v -98" inkscape:connector-curvature="0"/><g id="g248"><g aria-label="&#339;" transform="translate(1930,1306)" style="font-variant:normal;font-weight:normal;font-size:128px;font-family:'Opus Std';-inkscape-font-specification:OpusStd;writing-mode:lr-tb;fill:#000000;fill-opacity:1;fill-rule:nonzero;stroke:none" id="text252"><path d="m 14.336,16.64 c 13.184,0 29.44,-11.008 29.44,-22.272 0,-6.784 -6.016,-11.136 -14.592,-11.136 C 16.256,-16.768 0,-6.016 0,5.504 0,12.544 6.272,16.64 14.336,16.64 Z" style="" id="path224"/></g>
</g><path id="path254" style="fill:none;stroke:#000000;stroke-width:3;stroke-linecap:butt;stroke-linejoin:bevel;stroke-miterlimit:10;stroke-dasharray:none;stroke-opacity:1" d="M 535,1649 V 1542" inkscape:connector-curvature="0"/><g id="g256"><g aria-label="&#339;" transform="translate(492,1654)" style="font-variant:normal;font-weight:normal;font-size:128px;font-family:'Opus Std';-inkscape-font-specification:OpusStd;writing-mode:lr-tb;fill:#000000;fill-opacity:1;fill-rule:nonzero;stroke:none" id="text260"><path d="m 14.336,16.64 c 13.184,0 29.44,-11.008 29.44,-22.272 0,-6.784 -6.016,-11.136 -14.592,-11.136 C 16.256,-16.768 0,-6.016 0,5.504 0,12.544 6.272,16.64 14.336,16.64 Z" style="" id="path227"/></g>
</g><g id="g262"><g aria-label="r" transform="translate(534,1574)" style="font-variant:normal;font-weight:normal;font-size:128px;font-family:'Opus Std';-inkscape-font-specification:OpusStd;writing-mode:lr-tb;fill:#000000;fill-opacity:1;fill-rule:nonzero;stroke:none" id="text266"><path d="m 28.288,65.92 c 2.56,0 6.144,-11.008 6.144,-15.744 v -0.64 C 34.304,45.696 33.92,42.752 33.024,40.576 34.432,37.76 35.072,34.048 35.072,29.312 35.072,22.784 33.28,16 29.44,10.88 25.472,5.632 20.864,1.152 17.152,-3.968 9.856,-12.928 5.12,-21.632 2.944,-29.696 2.56,-31.232 2.688,-32 1.664,-32 H 1.28 v 56.32 c 4.608,0 5.76,0.512 12.288,5.504 13.568,10.624 16,13.44 16.256,19.584 0,4.608 -2.56,13.568 -2.56,15.488 0,0.64 0.384,1.024 1.024,1.024 z M 30.72,31.36 c 0,1.152 0,2.304 -0.128,3.584 C 28.416,30.592 18.048,21.376 17.024,20.096 12.544,14.592 8.832,8.192 5.632,0.896 12.16,2.944 25.088,15.744 25.6,16.384 c 3.456,4.224 5.12,9.216 5.12,14.976 z" style="" id="path231"/></g>
</g><path id="path268" style="fill:none;stroke:#000000;stroke-width:3;stroke-linecap:butt;stroke-linejoin:bevel;stroke-miterlimit:10;stroke-dasharray:none;stroke-opacity:1" d="M 674,1649 V 1542" inkscape:connector-curvature="0"/><g id="g270"><g aria-label="&#339;" transform="translate(631,1654)" style="font-variant:normal;font-weight:normal;font-size:128px;font-family:'Opus Std';-inkscape-font-specification:OpusStd;writing-mode:lr-tb;fill:#000000;fill-opacity:1;fill-rule:nonzero;stroke:none" id="text274"><path d="m 14.336,16.64 c 13.184,0 29.44,-11.008 29.44,-22.272 0,-6.784 -6.016,-11.136 -14.592,-11.136 C 16.256,-16.768 0,-6.016 0,5.504 0,12.544 6.272,16.64 14.336,16.64 Z" style="" id="path234"/></g>
</g><g id="g276"><g aria-label="r" transform="translate(673,1574)" style="font-variant:normal;font-weight:normal;font-size:128px;font-family:'Opus Std';-inkscape-font-specification:OpusStd;writing-mode:lr-tb;fill:#000000;fill-opacity:1;fill-rule:nonzero;stroke:none" id="text280"><path d="m 28.288,65.92 c 2.56,0 6.144,-11.008 6.144,-15.744 v -0.64 C 34.304,45.696 33.92,42.752 33.024,40.576 34.432,37.76 35.072,34.048 35.072,29.312 35.072,22.784 33.28,16 29.44,10.88 25.472,5.632 20.864,1.152 17.152,-3.968 9.856,-12.928 5.12,-21.632 2.944,-29.696 2.56,-31.232 2.688,-32 1.664,-32 H 1.28 v 56.32 c 4.608,0 5.76,0.512 12.288,5.504 13.568,10.624 16,13.44 16.256,19.584 0,4.608 -2.56,13.568 -2.56,15.488 0,0.64 0.384,1.024 1.024,1.024 z M 30.72,31.36 c 0,1.152 0,2.304 -0.128,3.584 C 28.416,30.592 18.048,21.376 17.024,20.096 12.544,14.592 8.832,8.192 5.632,0.896 12.16,2.944 25.088,15.744 25.6,16.384 c 3.456,4.224 5.12,9.216 5.12,14.976 z" style="" id="path237"/></g>
</g><path id="path282" style="fill:none;stroke:#000000;stroke-width:3;stroke-linecap:butt;stroke-linejoin:bevel;stroke-miterlimit:10;stroke-dasharray:none;stroke-opacity:1" d="M 814,1649 V 1542" inkscape:connector-curvature="0"/><g id="g284"><g aria-label="&#339;" transform="translate(771,1654)" style="font-variant:normal;font-weight:normal;font-size:128px;font-family:'Opus Std';-inkscape-font-specification:OpusStd;writing-mode:lr-tb;fill:#000000;fill-opacity:1;fill-rule:nonzero;stroke:none" id="text288"><path d="m 14.336,16.64 c 13.184,0 29.44,-11.008 29.44,-22.272 0,-6.784 -6.016,-11.136 -14.592,-11.136 C 16.256,-16.768 0,-6.016 0,5.504 0,12.544 6.272,16.64 14.336,16.64 Z" style="" id="path240"/></g>
</g><g id="g290"><g aria-label="j" transform="translate(813,1574)" style="font-variant:normal;font-weight:normal;font-size:128px;font-family:'Opus Std';-inkscape-font-specification:OpusStd;writing-mode:lr-tb;fill:#000000;fill-opacity:1;fill-rule:nonzero;stroke:none" id="text294"><path d="m 1.28,0 c 6.4,0 8.576,2.432 12.288,5.12 10.368,7.296 15.616,15.36 15.616,24.32 v 0.64 C 28.928,41.6 28.8,42.496 25.472,49.92 c -0.512,1.152 -0.768,1.92 -0.768,2.432 0,0.64 0.384,1.024 1.024,1.024 1.28,0 7.808,-8.96 7.808,-25.344 v -0.64 C 33.536,21.888 32,16.64 28.928,11.776 28.032,10.24 24.064,4.992 17.024,-3.84 11.52,-10.88 6.784,-19.584 2.944,-29.696 2.816,-30.08 2.816,-30.464 2.816,-30.848 c 0,-0.384 0,-0.768 0.128,-1.024 C 3.072,-32 2.432,-32 1.28,-32 Z" style="" id="path243"/></g>
</g><path id="path296" style="fill:none;stroke:#000000;stroke-width:3;stroke-linecap:butt;stroke-linejoin:bevel;stroke-miterlimit:10;stroke-dasharray:none;stroke-opacity:1" d="m 1554,1649 v -98" inkscape:connector-curvature="0"/><g id="g298"><g aria-label="&#339;" transform="translate(1511,1654)" style="font-variant:normal;font-weight:normal;font-size:128px;font-family:'Opus Std';-inkscape-font-specification:OpusStd;writing-mode:lr-tb;fill:#000000;fill-opacity:1;fill-rule:nonzero;stroke:none" id="text302"><path d="m 14.336,16.64 c 13.184,0 29.44,-11.008 29.44,-22.272 0,-6.784 -6.016,-11.136 -14.592,-11.136 C 16.256,-16.768 0,-6.016 0,5.504 0,12.544 6.272,16.64 14.336,16.64 Z" style="" id="path247"/></g>
</g><path id="path304" style="fill:none;stroke:#000000;stroke-width:3;stroke-linecap:butt;stroke-linejoin:bevel;stroke-miterlimit:10;stroke-dasharray:none;stroke-opacity:1" d="m 1694,1649 v -98" inkscape:connector-curvature="0"/><g id="g306"><g aria-label="&#339;" transform="translate(1651,1654)" style="font-variant:normal;font-weight:normal;font-size:128px;font-family:'Opus Std';-inkscape-font-specification:OpusStd;writing-mode:lr-tb;fill:#000000;fill-opacity:1;fill-rule:nonzero;stroke:none" id="text310"><path d="m 14.336,16.64 c 13.184,0 29.44,-11.008 29.44,-22.272 0,-6.784 -6.016,-11.136 -14.592,-11.136 C 16.256,-16.768 0,-6.016 0,5.504 0,12.544 6.272,16.64 14.336,16.64 Z" style="" id="path250"/></g>
</g><path id="path312" style="fill:none;stroke:#000000;stroke-width:3;stroke-linecap:butt;stroke-linejoin:bevel;stroke-miterlimit:10;stroke-dasharray:none;stroke-opacity:1" d="m 1833,1649 v -98" inkscape:connector-curvature="0"/><g id="g314"><g aria-label="&#339;" transform="translate(1790,1654)" style="font-variant:normal;font-weight:normal;font-size:128px;font-family:'Opus Std';-inkscape-font-specification:OpusStd;writing-mode:lr-tb;fill:#000000;fill-opacity:1;fill-rule:nonzero;stroke:none" id="text318"><path d="m 14.336,16.64 c 13.184,0 29.44,-11.008 29.44,-22.272 0,-6.784 -6.016,-11.136 -14.592,-11.136 C 16.256,-16.768 0,-6.016 0,5.504 0,12.544 6.272,16.64 14.336,16.64 Z" style="" id="path253"/></g>
</g></g></g></g></g></svg>