<svg xmlns:dc="http://purl.org/dc/elements/1.1/" xmlns:cc="http://creativecommons.org/ns#" xmlns:rdf="http://www.w3.org/1999/02/22-rdf-syntax-ns#" xmlns:svg="http://www.w3.org/2000/svg" xmlns="http://www.w3.org/2000/svg" xmlns:sodipodi="http://sodipodi.sourceforge.net/DTD/sodipodi-0.dtd" xmlns:inkscape="http://www.inkscape.org/namespaces/inkscape" viewBox="0 0 688.37079 61.623898" height="92.435847" width="1032.5561850000001" xml:space="preserve" id="svg2" version="1.1" sodipodi:docname="example_1-7.svg" inkscape:version="0.92.4 (5da689c313, 2019-01-14)" viewbox="0 0 1032.5561850000001 92.435847"><sodipodi:namedview pagecolor="#ffffff" bordercolor="#666666" borderopacity="1" objecttolerance="10" gridtolerance="10" guidetolerance="10" inkscape:pageopacity="0" inkscape:pageshadow="2" inkscape:window-width="640" inkscape:window-height="480" id="namedview95" showgrid="false" inkscape:zoom="0.22348485" inkscape:cx="336.8997" inkscape:cy="-286.18623" inkscape:window-x="0" inkscape:window-y="0" inkscape:window-maximized="0" inkscape:current-layer="svg2"/><metadata id="metadata8"><rdf:RDF><cc:Work rdf:about=""><dc:format>image/svg+xml</dc:format><dc:type rdf:resource="http://purl.org/dc/dcmitype/StillImage"/></cc:Work></rdf:RDF></metadata><defs id="defs6"/><g transform="matrix(1.3333333,0,0,-1.3333333,-71.100301,875.81013)" id="g10"><g transform="matrix(0.06,0,0,-0.06,0,792)" id="g12"><g id="g14"><g id="g16"/></g><g id="g18"><g id="g20"/><g transform="scale(2.5835866,2.5834802)" id="g22"><path id="path24" style="fill:none;stroke:#000000;stroke-width:5;stroke-linecap:butt;stroke-linejoin:bevel;stroke-miterlimit:10;stroke-dasharray:none;stroke-opacity:1" d="m 1025,970 v 128" inkscape:connector-curvature="0"/><path id="path26" style="fill:none;stroke:#000000;stroke-width:5;stroke-linecap:butt;stroke-linejoin:bevel;stroke-miterlimit:10;stroke-dasharray:none;stroke-opacity:1" d="m 1544,970 v 128" inkscape:connector-curvature="0"/><path id="path28" style="fill:none;stroke:#000000;stroke-width:5;stroke-linecap:butt;stroke-linejoin:bevel;stroke-miterlimit:10;stroke-dasharray:none;stroke-opacity:1" d="m 2062,970 v 128" inkscape:connector-curvature="0"/><path id="path30" style="fill:none;stroke:#000000;stroke-width:5;stroke-linecap:butt;stroke-linejoin:bevel;stroke-miterlimit:10;stroke-dasharray:none;stroke-opacity:1" d="m 2580,970 v 128" inkscape:connector-curvature="0"/><path id="path32" style="fill:none;stroke:#000000;stroke-width:5;stroke-linecap:butt;stroke-linejoin:bevel;stroke-miterlimit:10;stroke-dasharray:none;stroke-opacity:1" d="m 3098,970 v 128" inkscape:connector-curvature="0"/><path id="path34" style="fill:none;stroke:#000000;stroke-width:5;stroke-linecap:butt;stroke-linejoin:bevel;stroke-miterlimit:10;stroke-dasharray:none;stroke-opacity:1" d="m 3655,970 v 128" inkscape:connector-curvature="0"/><path id="path36" style="fill:none;stroke:#000000;stroke-width:5;stroke-linecap:butt;stroke-linejoin:bevel;stroke-miterlimit:10;stroke-dasharray:none;stroke-opacity:1" d="m 3672,970 v 128" inkscape:connector-curvature="0"/></g><g transform="matrix(2.5835866,0,0,2.5834802,656.231,2561.1973)" id="g38"><g id="g40"/></g><g transform="scale(2.5835866,2.5834802)" id="g42"><path id="path44" style="fill:none;stroke:#000000;stroke-width:3;stroke-linecap:butt;stroke-linejoin:bevel;stroke-miterlimit:10;stroke-dasharray:none;stroke-opacity:1" d="M 344,1098 H 3674" inkscape:connector-curvature="0"/><path id="path46" style="fill:none;stroke:#000000;stroke-width:3;stroke-linecap:butt;stroke-linejoin:bevel;stroke-miterlimit:10;stroke-dasharray:none;stroke-opacity:1" d="M 344,1066 H 3674" inkscape:connector-curvature="0"/><path id="path48" style="fill:none;stroke:#000000;stroke-width:3;stroke-linecap:butt;stroke-linejoin:bevel;stroke-miterlimit:10;stroke-dasharray:none;stroke-opacity:1" d="M 344,1034 H 3674" inkscape:connector-curvature="0"/><path id="path50" style="fill:none;stroke:#000000;stroke-width:3;stroke-linecap:butt;stroke-linejoin:bevel;stroke-miterlimit:10;stroke-dasharray:none;stroke-opacity:1" d="M 344,1002 H 3674" inkscape:connector-curvature="0"/><path id="path52" style="fill:none;stroke:#000000;stroke-width:3;stroke-linecap:butt;stroke-linejoin:bevel;stroke-miterlimit:10;stroke-dasharray:none;stroke-opacity:1" d="M 344,970 H 3674" inkscape:connector-curvature="0"/><g id="g54"><g aria-label="&amp;" transform="translate(368,1066)" style="font-variant:normal;font-weight:normal;font-size:128px;font-family:'Opus Std';-inkscape-font-specification:OpusStd;writing-mode:lr-tb;fill:#000000;fill-opacity:1;fill-rule:nonzero;stroke:none" id="text58"><path d="m 66.944,28.032 4.864,23.68 c 0.256,1.408 0.384,2.688 0.384,3.968 0,12.544 -12.8,23.04 -26.624,23.04 -4.224,0 -8.32,-1.024 -12.16,-2.944 9.856,-1.024 17.28,-7.04 17.28,-15.872 0,-7.808 -6.4,-16 -14.592,-16 -9.344,0 -15.744,7.168 -15.744,16.512 0,13.056 10.624,21.632 23.424,21.632 17.152,0 31.744,-11.136 31.744,-27.136 0,-3.584 -5.632,-28.928 -5.504,-28.032 13.696,-6.656 23.04,-18.432 23.04,-30.848 0,-17.024 -13.696,-30.08 -30.72,-30.08 -0.256,0 -2.048,0.128 -5.12,0.384 l -5.632,-27.008 c 19.072,-16.128 27.776,-33.28 27.776,-52.096 0,-14.464 -5.76,-29.824 -17.408,-45.952 -13.184,10.624 -20.736,31.872 -20.736,54.528 0,8.064 1.024,15.872 2.816,23.296 -29.184,24.448 -43.776,46.976 -43.776,67.584 0,24.192 24.96,44.288 52.096,44.288 6.016,0 10.496,-0.896 14.592,-2.944 z M 66.56,-140.16 c 4.224,4.352 6.4,9.472 6.4,15.488 0,12.416 -8.832,26.368 -26.112,41.728 -0.896,-3.712 -1.152,-7.808 -1.152,-12.288 0,-21.504 7.936,-45.184 18.56,-45.184 0.896,0 1.664,0.128 2.304,0.256 z M 69.248,22.784 60.16,-19.968 c 1.792,-0.128 2.816,-0.256 3.2,-0.256 11.008,0 18.688,10.368 18.688,20.992 0,8.448 -4.48,15.872 -12.8,22.016 z m -12.288,-42.24 9.216,44.032 c -4.48,2.432 -9.472,3.456 -15.488,3.456 -20.736,0 -38.656,-15.488 -38.656,-34.304 0,-17.024 12.672,-34.56 36.608,-52.48 l 5.376,25.6 C 40.704,-30.336 29.44,-19.072 29.44,-6.4 c 0,10.752 7.68,18.304 19.2,20.096 C 41.6,9.344 38.144,3.84 38.144,-2.688 c 0,-8.832 8.192,-15.36 18.816,-16.768 z" style="" id="path97"/></g>
</g></g><g transform="matrix(2.5835866,0,0,2.5834802,1278.8754,2212.2257)" id="g60"><g id="g62"><g aria-label="whole note:" transform="translate(0,60.671875)" style="font-variant:normal;font-weight:normal;font-size:65px;font-family:'Times New Roman';-inkscape-font-specification:TimesNewRomanPSMT;writing-mode:lr-tb;fill:#000000;fill-opacity:1;fill-rule:nonzero;stroke:none" id="text66"><path d="M 0.41259766,-29.072266 H 12.600098 v 1.174317 q -1.682129,0.126953 -2.22168,0.603027 -0.5078125,0.476074 -0.5078125,1.364746 0,0.983887 0.5395505,2.380371 l 6.220703,16.7260745 6.252442,-13.6157225 -1.650391,-4.284668 q -0.761719,-1.904297 -1.999512,-2.634277 -0.698242,-0.444336 -2.602539,-0.539551 v -1.174317 H 30.46875 v 1.174317 q -2.285156,0.09521 -3.237305,0.825195 -0.634765,0.507813 -0.634765,1.618652 0,0.634766 0.253906,1.30127 l 6.601562,16.6943359 6.125489,-16.0913089 q 0.634765,-1.713867 0.634765,-2.729492 0,-0.603027 -0.634765,-1.079101 -0.603028,-0.476075 -2.41211,-0.539551 v -1.174317 h 9.172364 v 1.174317 q -2.761231,0.412597 -4.0625,3.745117 L 32.563477,0.88867188 h -1.30127 L 23.994141,-17.678223 15.52002,0.88867188 H 14.345703 L 5.0146484,-23.549805 q -0.9204101,-2.316894 -1.809082,-3.110351 -0.8886719,-0.825196 -2.79296874,-1.237793 z" style="" id="path100"/><path d="m 57.506348,-45.131836 v 21.264649 q 3.522949,-3.872071 5.585937,-4.951172 2.062988,-1.11084 4.125977,-1.11084 2.475586,0 4.252929,1.364746 1.777344,1.364746 2.634278,4.284668 0.603027,2.03125 0.603027,7.426758 v 10.2832028 q 0,2.7612304 0.444336,3.7768554 0.317383,0.7617188 1.079102,1.2060547 0.761718,0.444336 2.792968,0.444336 V 0 H 64.742676 v -1.1425781 h 0.666504 q 2.03125,0 2.824707,-0.6030274 0.793457,-0.6347656 1.11084,-1.8408203 0.09521,-0.5078125 0.09521,-2.9833984 V -16.853027 q 0,-4.760743 -0.507812,-6.252442 -0.476074,-1.491699 -1.555176,-2.221679 -1.079101,-0.761719 -2.602539,-0.761719 -1.555176,0 -3.237305,0.825195 -1.682129,0.825195 -4.030761,3.33252 v 15.3613278 q 0,2.9833984 0.317382,3.7133789 0.349122,0.7299805 1.237793,1.237793 0.920411,0.4760742 3.14209,0.4760742 V 0 H 47.794434 v -1.1425781 q 1.936035,0 3.046875,-0.6030274 0.634765,-0.3173828 1.015625,-1.2060547 0.380859,-0.8886718 0.380859,-3.618164 V -32.880859 q 0,-4.982911 -0.253906,-6.125489 -0.222168,-1.142578 -0.729981,-1.555175 -0.476074,-0.412598 -1.301269,-0.412598 -0.666504,0 -2.158203,0.507812 l -0.444336,-1.110839 8.696289,-3.554688 z" style="" id="path102"/><path d="m 95.6875,-29.929199 q 6.60156,0 10.60059,5.014648 3.39599,4.284668 3.39599,9.838867 0,3.903809 -1.87256,7.9028324 -1.87256,3.9990235 -5.17334,6.0302735 -3.269039,2.03124998 -7.299801,2.03124998 -6.569824,0 -10.441895,-5.23681638 -3.269043,-4.4116211 -3.269043,-9.9023435 0,-3.999024 1.967774,-7.934571 1.999512,-3.967285 5.236816,-5.839843 3.237305,-1.904297 6.855469,-1.904297 z m -0.983887,2.062988 q -1.682129,0 -3.395996,1.015625 -1.682129,0.983887 -2.729492,3.491211 -1.047363,2.507324 -1.047363,6.442871 0,6.347656 2.507324,10.9497071 2.539062,4.6020508 6.665039,4.6020508 3.078613,0 5.078125,-2.5390625 1.99951,-2.5390625 1.99951,-8.7280274 0,-7.744141 -3.33252,-12.1875 -2.253416,-3.046875 -5.744627,-3.046875 z" style="" id="path104"/><path d="m 123.96631,-45.131836 v 38.5620118 q 0,2.7294922 0.38086,3.618164 0.4126,0.8886719 1.23779,1.3647461 0.8252,0.444336 3.07861,0.444336 V 0 h -14.25048 v -1.1425781 q 1.99951,0 2.72949,-0.4125977 0.72998,-0.4125976 1.14258,-1.3647461 0.41259,-0.9521484 0.41259,-3.6499023 V -32.976074 q 0,-4.919434 -0.22216,-6.030274 -0.22217,-1.142578 -0.72998,-1.555175 -0.47608,-0.412598 -1.2378,-0.412598 -0.82519,0 -2.09472,0.507812 l -0.53955,-1.110839 8.66455,-3.554688 z" style="" id="path106"/><path d="m 136.90332,-18.122559 q -0.0317,6.47461 3.14209,10.1562504 3.17383,3.6816406 7.4585,3.6816406 2.85644,0 4.95117,-1.5551757 2.12646,-1.5869141 3.55469,-5.3955083 l 0.98388,0.634766 q -0.6665,4.3481446 -3.87207,7.9345704 -3.20556,3.55468748 -8.02978,3.55468748 -5.23682,0 -8.98194,-4.06249998 -3.71338,-4.0942383 -3.71338,-10.9814449 0,-7.458497 3.8086,-11.616211 3.84033,-4.189453 9.6167,-4.189453 4.88769,0 8.02978,3.237304 3.14209,3.205567 3.14209,8.601074 z m 0,-1.84082 h 13.45703 q -0.15869,-2.792969 -0.6665,-3.935547 -0.79346,-1.777344 -2.38037,-2.792969 -1.55518,-1.015625 -3.26905,-1.015625 -2.63427,0 -4.729,2.062989 -2.06299,2.03125 -2.41211,5.681152 z" style="" id="path108"/><path d="m 185.5835,-23.771973 q 5.10986,-6.157226 9.74365,-6.157226 2.38037,0 4.09424,1.206054 1.71386,1.174317 2.72949,3.903809 0.69824,1.904297 0.69824,5.839844 v 12.4096678 q 0,2.7612304 0.44434,3.7451172 0.34912,0.793457 1.11084,1.2377929 0.79345,0.444336 2.88818,0.444336 V 0 h -14.37744 v -1.1425781 h 0.60303 q 2.03125,0 2.8247,-0.6030274 0.8252,-0.6347656 1.14258,-1.8408203 0.12695,-0.4760742 0.12695,-2.9833984 V -18.47168 q 0,-3.967285 -1.04736,-5.744629 -1.01562,-1.809082 -3.45947,-1.809082 -3.77686,0 -7.52197,4.125977 v 15.3295898 q 0,2.9516601 0.34912,3.6499023 0.44433,0.9204102 1.20605,1.3647461 0.79346,0.4125977 3.17383,0.4125977 V 0 h -14.37744 v -1.1425781 h 0.63476 q 2.22168,0 2.9834,-1.1108399 0.79346,-1.1425781 0.79346,-4.3164062 V -17.36084 q 0,-5.236816 -0.25391,-6.379394 -0.22216,-1.142578 -0.72998,-1.555176 -0.47607,-0.412598 -1.30127,-0.412598 -0.88867,0 -2.12646,0.476074 l -0.47608,-1.142578 8.75977,-3.554687 h 1.36475 z" style="" id="path110"/><path d="m 223.82812,-29.929199 q 6.60157,0 10.60059,5.014648 3.396,4.284668 3.396,9.838867 0,3.903809 -1.87256,7.9028324 -1.87256,3.9990235 -5.17334,6.0302735 -3.26904,2.03124998 -7.29981,2.03124998 -6.56982,0 -10.44189,-5.23681638 -3.26904,-4.4116211 -3.26904,-9.9023435 0,-3.999024 1.96777,-7.934571 1.99951,-3.967285 5.23682,-5.839843 3.2373,-1.904297 6.85546,-1.904297 z m -0.98388,2.062988 q -1.68213,0 -3.396,1.015625 -1.68213,0.983887 -2.72949,3.491211 -1.04736,2.507324 -1.04736,6.442871 0,6.347656 2.50732,10.9497071 2.53906,4.6020508 6.66504,4.6020508 3.07861,0 5.07812,-2.5390625 1.99952,-2.5390625 1.99952,-8.7280274 0,-7.744141 -3.33252,-12.1875 -2.25342,-3.046875 -5.74463,-3.046875 z" style="" id="path112"/><path d="m 250.55176,-38.625488 v 9.553222 h 6.79199 v 2.22168 h -6.79199 v 18.8525391 q 0,2.8247071 0.79345,3.8085938 0.8252,0.9838867 2.09473,0.9838867 1.04736,0 2.03125,-0.6347656 0.98389,-0.6665039 1.52344,-1.9360352 h 1.23779 q -1.11084,3.1103516 -3.14209,4.6972656 -2.03125,1.55517582 -4.18945,1.55517582 -1.45996,0 -2.85645,-0.79345703 -1.39648,-0.82519529 -2.06298,-2.31689449 -0.66651,-1.5234375 -0.66651,-4.6655274 V -26.850586 h -4.60205 v -1.047363 q 1.74561,-0.698242 3.55469,-2.348633 1.84082,-1.682129 3.26904,-3.967285 0.72998,-1.206055 2.03125,-4.411621 z" style="" id="path114"/><path d="m 265.04395,-18.122559 q -0.0317,6.47461 3.14209,10.1562504 3.17382,3.6816406 7.45849,3.6816406 2.85645,0 4.95117,-1.5551757 2.12647,-1.5869141 3.55469,-5.3955083 l 0.98389,0.634766 q -0.66651,4.3481446 -3.87207,7.9345704 -3.20557,3.55468748 -8.02979,3.55468748 -5.23681,0 -8.98193,-4.06249998 -3.71338,-4.0942383 -3.71338,-10.9814449 0,-7.458497 3.80859,-11.616211 3.84034,-4.189453 9.6167,-4.189453 4.8877,0 8.02979,3.237304 3.14209,3.205567 3.14209,8.601074 z m 0,-1.84082 h 13.45703 q -0.15869,-2.792969 -0.66651,-3.935547 -0.79345,-1.777344 -2.38037,-2.792969 -1.55517,-1.015625 -3.26904,-1.015625 -2.63428,0 -4.72901,2.062989 -2.06298,2.03125 -2.4121,5.681152 z" style="" id="path116"/><path d="m 296.14111,-29.960937 q 1.45996,0 2.47559,1.047363 1.04736,1.015625 1.04736,2.475586 0,1.459961 -1.04736,2.507324 -1.01563,1.015625 -2.47559,1.015625 -1.45996,0 -2.50732,-1.015625 -1.01563,-1.047363 -1.01563,-2.507324 0,-1.459961 1.01563,-2.475586 1.04736,-1.047363 2.50732,-1.047363 z m -0.0635,23.7719722 q 1.4917,0 2.50732,1.0473632 1.04736,1.0473633 1.04736,2.5073243 0,1.4599609 -1.04736,2.50732418 -1.04736,1.015625 -2.50732,1.015625 -1.45996,0 -2.50733,-1.015625 -1.01562,-1.04736328 -1.01562,-2.50732418 0,-1.459961 1.01562,-2.5073243 1.04737,-1.0473632 2.50733,-1.0473632 z" style="" id="path118"/></g>
</g></g><g transform="scale(2.5835866,2.5834802)" id="g68"/><g transform="matrix(2.5835866,0,0,2.5834802,2640.4255,2212.2257)" id="g70"><g id="g72"><g aria-label="half note:" transform="translate(0,60.671875)" style="font-variant:normal;font-weight:normal;font-size:65px;font-family:'Times New Roman';-inkscape-font-specification:TimesNewRomanPSMT;writing-mode:lr-tb;fill:#000000;fill-opacity:1;fill-rule:nonzero;stroke:none" id="text76"><path d="m 10.568848,-45.131836 v 21.264649 q 3.522949,-3.872071 5.585937,-4.951172 2.062988,-1.11084 4.125977,-1.11084 2.475586,0 4.252929,1.364746 1.777344,1.364746 2.634278,4.284668 0.603027,2.03125 0.603027,7.426758 v 10.2832028 q 0,2.7612304 0.444336,3.7768554 0.317383,0.7617188 1.079102,1.2060547 0.761718,0.444336 2.792968,0.444336 V 0 H 17.805176 v -1.1425781 h 0.666504 q 2.03125,0 2.824707,-0.6030274 0.793457,-0.6347656 1.11084,-1.8408203 0.09521,-0.5078125 0.09521,-2.9833984 V -16.853027 q 0,-4.760743 -0.507812,-6.252442 -0.476074,-1.491699 -1.555176,-2.221679 -1.079101,-0.761719 -2.602539,-0.761719 -1.555176,0 -3.237305,0.825195 -1.682129,0.825195 -4.030761,3.33252 v 15.3613278 q 0,2.9833984 0.317382,3.7133789 0.349122,0.7299805 1.237793,1.237793 0.920411,0.4760742 3.14209,0.4760742 V 0 H 0.85693359 v -1.1425781 q 1.93603521,0 3.04687501,-0.6030274 0.6347656,-0.3173828 1.015625,-1.2060547 Q 5.300293,-3.840332 5.300293,-6.5698242 V -32.880859 q 0,-4.982911 -0.2539063,-6.125489 -0.222168,-1.142578 -0.7299805,-1.555175 -0.4760742,-0.412598 -1.3012695,-0.412598 -0.6665039,0 -2.15820311,0.507812 l -0.44433593,-1.110839 8.69628904,-3.554688 z" style="" id="path121"/><path d="m 51.003418,-4.1894531 q -4.475098,3.45947263 -5.617676,3.99902341 -1.713867,0.79345703 -3.649902,0.79345703 -3.015137,0 -4.98291,-2.06298824 -1.936035,-2.0629883 -1.936035,-5.4272461 0,-2.1264649 0.952148,-3.681641 1.301269,-2.158203 4.506836,-4.0625 3.237305,-1.904297 10.727539,-4.633789 v -1.142578 q 0,-4.348144 -1.396484,-5.966797 -1.364747,-1.618652 -3.999024,-1.618652 -1.999512,0 -3.173828,1.079102 -1.206055,1.079101 -1.206055,2.475585 l 0.06348,1.840821 q 0,1.459961 -0.761719,2.253418 -0.72998,0.793457 -1.936035,0.793457 -1.174316,0 -1.936035,-0.825196 -0.729981,-0.825195 -0.729981,-2.253418 0,-2.729492 2.792969,-5.014648 2.792969,-2.285156 7.839356,-2.285156 3.87207,0 6.347656,1.301269 1.872558,0.983887 2.76123,3.078614 0.571289,1.364746 0.571289,5.585937 v 9.870606 q 0,4.1577144 0.158692,5.1098628 0.158691,0.9204102 0.507812,1.237793 0.38086,0.3173828 0.856934,0.3173828 0.507812,0 0.888672,-0.2221679 0.666504,-0.4125977 2.570801,-2.3168946 v 1.7773438 q -3.554688,4.76074216 -6.791993,4.76074216 -1.555175,0 -2.475586,-1.07910156 -0.92041,-1.0791016 -0.952148,-3.6816406 z m 0,-2.0629883 V -17.329102 q -4.792481,1.904297 -6.188965,2.697754 -2.507324,1.396485 -3.586426,2.919922 -1.079101,1.523438 -1.079101,3.3325197 0,2.2851563 1.364746,3.8085938 1.364746,1.4916992 3.14209,1.4916992 2.412109,0 6.347656,-3.1738281 z" style="" id="path123"/><path d="m 73.372559,-45.131836 v 38.5620118 q 0,2.7294922 0.380859,3.618164 0.412598,0.8886719 1.237793,1.3647461 0.825195,0.444336 3.078613,0.444336 V 0 H 63.819336 v -1.1425781 q 1.999512,0 2.729492,-0.4125977 0.729981,-0.4125976 1.142578,-1.3647461 0.412598,-0.9521484 0.412598,-3.6499023 V -32.976074 q 0,-4.919434 -0.222168,-6.030274 -0.222168,-1.142578 -0.729981,-1.555175 -0.476074,-0.412598 -1.237793,-0.412598 -0.825195,0 -2.094726,0.507812 l -0.539551,-1.110839 8.664551,-3.554688 z" style="" id="path125"/><path d="m 92.78418,-26.787109 v 19.1064449 q 0,4.0625 0.888672,5.1416016 1.174316,1.3964844 3.142089,1.3964844 h 2.634278 V 0 h -17.36084 v -1.1425781 h 1.301269 q 1.269532,0 2.316895,-0.6347656 1.047363,-0.6347657 1.428223,-1.7138672 0.412597,-1.0791016 0.412597,-4.1894532 V -26.787109 h -5.649414 v -2.285157 h 5.649414 v -1.904296 q 0,-4.348145 1.396485,-7.363282 1.396484,-3.015136 4.252929,-4.855957 2.888184,-1.872558 6.47461,-1.872558 3.332523,0 6.125493,2.158203 1.84082,1.428222 1.84082,3.205566 0,0.952149 -0.8252,1.809082 -0.8252,0.825196 -1.77734,0.825196 -0.72998,0 -1.55518,-0.507813 -0.79346,-0.539551 -1.96777,-2.253418 -1.17432,-1.745605 -2.158206,-2.348633 -0.983887,-0.603027 -2.189942,-0.603027 -1.45996,0 -2.475585,0.793457 -1.015625,0.761719 -1.459961,2.412109 -0.444336,1.618653 -0.444336,8.410645 v 2.094726 h 7.49023 v 2.285157 z" style="" id="path127"/><path d="m 127.78662,-23.771973 q 5.10986,-6.157226 9.74365,-6.157226 2.38037,0 4.09424,1.206054 1.71387,1.174317 2.72949,3.903809 0.69825,1.904297 0.69825,5.839844 v 12.4096678 q 0,2.7612304 0.44433,3.7451172 0.34912,0.793457 1.11084,1.2377929 0.79346,0.444336 2.88819,0.444336 V 0 h -14.37745 v -1.1425781 h 0.60303 q 2.03125,0 2.82471,-0.6030274 0.82519,-0.6347656 1.14258,-1.8408203 0.12695,-0.4760742 0.12695,-2.9833984 V -18.47168 q 0,-3.967285 -1.04736,-5.744629 -1.01563,-1.809082 -3.45948,-1.809082 -3.77685,0 -7.52197,4.125977 v 15.3295898 q 0,2.9516601 0.34912,3.6499023 0.44434,0.9204102 1.20606,1.3647461 0.79345,0.4125977 3.17382,0.4125977 V 0 h -14.37744 v -1.1425781 h 0.63477 q 2.22168,0 2.9834,-1.1108399 0.79345,-1.1425781 0.79345,-4.3164062 V -17.36084 q 0,-5.236816 -0.2539,-6.379394 -0.22217,-1.142578 -0.72998,-1.555176 -0.47608,-0.412598 -1.30127,-0.412598 -0.88867,0 -2.12647,0.476074 l -0.47607,-1.142578 8.75977,-3.554687 h 1.36474 z" style="" id="path129"/><path d="m 166.03125,-29.929199 q 6.60156,0 10.60059,5.014648 3.39599,4.284668 3.39599,9.838867 0,3.903809 -1.87256,7.9028324 -1.87256,3.9990235 -5.17334,6.0302735 -3.26904,2.03124998 -7.2998,2.03124998 -6.56983,0 -10.4419,-5.23681638 -3.26904,-4.4116211 -3.26904,-9.9023435 0,-3.999024 1.96777,-7.934571 1.99952,-3.967285 5.23682,-5.839843 3.23731,-1.904297 6.85547,-1.904297 z m -0.98389,2.062988 q -1.68213,0 -3.39599,1.015625 -1.68213,0.983887 -2.7295,3.491211 -1.04736,2.507324 -1.04736,6.442871 0,6.347656 2.50733,10.9497071 2.53906,4.6020508 6.66503,4.6020508 3.07862,0 5.07813,-2.5390625 1.99951,-2.5390625 1.99951,-8.7280274 0,-7.744141 -3.33252,-12.1875 -2.25342,-3.046875 -5.74463,-3.046875 z" style="" id="path131"/><path d="m 192.75488,-38.625488 v 9.553222 h 6.79199 v 2.22168 h -6.79199 v 18.8525391 q 0,2.8247071 0.79346,3.8085938 0.8252,0.9838867 2.09473,0.9838867 1.04736,0 2.03125,-0.6347656 0.98388,-0.6665039 1.52343,-1.9360352 h 1.2378 q -1.11084,3.1103516 -3.14209,4.6972656 -2.03125,1.55517582 -4.18946,1.55517582 -1.45996,0 -2.85644,-0.79345703 -1.39649,-0.82519529 -2.06299,-2.31689449 -0.6665,-1.5234375 -0.6665,-4.6655274 V -26.850586 h -4.60205 v -1.047363 q 1.7456,-0.698242 3.55468,-2.348633 1.84082,-1.682129 3.26905,-3.967285 0.72998,-1.206055 2.03125,-4.411621 z" style="" id="path133"/><path d="m 207.24707,-18.122559 q -0.0317,6.47461 3.14209,10.1562504 3.17383,3.6816406 7.4585,3.6816406 2.85644,0 4.95117,-1.5551757 2.12646,-1.5869141 3.55469,-5.3955083 l 0.98388,0.634766 q -0.6665,4.3481446 -3.87207,7.9345704 -3.20556,3.55468748 -8.02978,3.55468748 -5.23682,0 -8.98194,-4.06249998 -3.71338,-4.0942383 -3.71338,-10.9814449 0,-7.458497 3.8086,-11.616211 3.84033,-4.189453 9.6167,-4.189453 4.88769,0 8.02978,3.237304 3.14209,3.205567 3.14209,8.601074 z m 0,-1.84082 h 13.45703 q -0.15869,-2.792969 -0.6665,-3.935547 -0.79346,-1.777344 -2.38037,-2.792969 -1.55518,-1.015625 -3.26905,-1.015625 -2.63427,0 -4.729,2.062989 -2.06299,2.03125 -2.41211,5.681152 z" style="" id="path135"/><path d="m 238.34424,-29.960937 q 1.45996,0 2.47558,1.047363 1.04737,1.015625 1.04737,2.475586 0,1.459961 -1.04737,2.507324 -1.01562,1.015625 -2.47558,1.015625 -1.45996,0 -2.50733,-1.015625 -1.01562,-1.047363 -1.01562,-2.507324 0,-1.459961 1.01562,-2.475586 1.04737,-1.047363 2.50733,-1.047363 z m -0.0635,23.7719722 q 1.4917,0 2.50733,1.0473632 1.04736,1.0473633 1.04736,2.5073243 0,1.4599609 -1.04736,2.50732418 -1.04737,1.015625 -2.50733,1.015625 -1.45996,0 -2.50732,-1.015625 -1.01563,-1.04736328 -1.01563,-2.50732418 0,-1.459961 1.01563,-2.5073243 1.04736,-1.0473632 2.50732,-1.0473632 z" style="" id="path137"/></g>
</g></g><g transform="scale(2.5835866,2.5834802)" id="g78"/><g transform="matrix(2.5835866,0,0,2.5834802,3981.307,2212.2257)" id="g80"><g id="g82"><g aria-label="quarter note:" transform="translate(0,60.671875)" style="font-variant:normal;font-weight:normal;font-size:65px;font-family:'Times New Roman';-inkscape-font-specification:TimesNewRomanPSMT;writing-mode:lr-tb;fill:#000000;fill-opacity:1;fill-rule:nonzero;stroke:none" id="text86"><path d="M 27.770996,-29.929199 V 7.4584961 q 0,2.7929689 0.380859,3.5864259 0.38086,0.793457 1.174317,1.237793 0.825195,0.444336 3.173828,0.444336 v 1.174316 H 17.836914 v -1.174316 h 0.603027 q 1.777344,0 2.697754,-0.507813 0.634766,-0.349121 1.015625,-1.269531 0.38086,-0.888672 0.38086,-3.4912109 V -5.0463867 q -2.888184,3.4277344 -5.046387,4.69726561 -2.158203,1.23779297 -4.475098,1.23779297 -4.2211911,0 -7.5537106,-3.84033208 -3.3007813,-3.840332 -3.3007813,-10.2832028 0,-7.39502 4.3798828,-12.028809 4.3798831,-4.665527 10.5688481,-4.665527 1.809082,0 3.332519,0.507812 1.523438,0.507813 2.729492,1.523438 1.840821,-0.888672 3.52295,-2.03125 z M 22.53418,-7.0458984 V -20.693359 q 0,-2.380371 -0.634766,-3.745118 -0.603027,-1.364746 -2.189941,-2.316894 -1.586914,-0.952149 -3.586426,-0.952149 -3.554688,0 -6.09375,3.015137 -2.5390626,3.015137 -2.5390626,9.140625 0,5.8715822 2.5708006,8.9184572 2.602539,3.046875 6.252442,3.046875 1.872558,0 3.332519,-0.793457 1.459961,-0.8251953 2.888184,-2.6660156 z" style="" id="path140"/><path d="m 60.01709,-29.072266 v 17.614746 q 0,5.0463872 0.222168,6.1889653 0.253906,1.1108399 0.761719,1.5551758 0.53955,0.4443359 1.237793,0.4443359 0.983886,0 2.221679,-0.5395508 l 0.444336,1.1108399 -8.696289,3.58642578 H 54.780273 V -5.2685547 q -3.745117,4.0625 -5.71289,5.10986329 -1.967774,1.04736329 -4.157715,1.04736329 -2.443848,0 -4.25293,-1.39648438 -1.777343,-1.4282227 -2.475586,-3.6499023 -0.698242,-2.2216797 -0.698242,-6.2841802 v -12.980957 q 0,-2.062988 -0.444336,-2.856445 -0.444336,-0.793457 -1.333008,-1.206055 -0.856933,-0.444335 -3.142089,-0.412597 v -1.174317 h 10.187988 v 19.4555668 q 0,4.0625 1.396484,5.3320312 1.428223,1.2695313 3.427735,1.2695313 1.364746,0 3.078613,-0.8569336 1.745605,-0.8569336 4.125976,-3.269043 V -23.613281 q 0,-2.475586 -0.92041,-3.33252 -0.888672,-0.888672 -3.745117,-0.952148 v -1.174317 z" style="" id="path143"/><path d="m 83.503418,-4.1894531 q -4.475098,3.45947263 -5.617676,3.99902341 -1.713867,0.79345703 -3.649902,0.79345703 -3.015137,0 -4.98291,-2.06298824 -1.936035,-2.0629883 -1.936035,-5.4272461 0,-2.1264649 0.952148,-3.681641 1.301269,-2.158203 4.506836,-4.0625 3.237305,-1.904297 10.727539,-4.633789 v -1.142578 q 0,-4.348144 -1.396484,-5.966797 -1.364747,-1.618652 -3.999024,-1.618652 -1.999512,0 -3.173828,1.079102 -1.206055,1.079101 -1.206055,2.475585 l 0.06348,1.840821 q 0,1.459961 -0.761719,2.253418 -0.72998,0.793457 -1.936035,0.793457 -1.174316,0 -1.936035,-0.825196 -0.729981,-0.825195 -0.729981,-2.253418 0,-2.729492 2.792969,-5.014648 2.792969,-2.285156 7.839356,-2.285156 3.87207,0 6.347656,1.301269 1.872558,0.983887 2.76123,3.078614 0.571289,1.364746 0.571289,5.585937 v 9.870606 q 0,4.1577144 0.158692,5.1098628 0.158691,0.9204102 0.507812,1.237793 0.38086,0.3173828 0.856934,0.3173828 0.507812,0 0.888672,-0.2221679 0.666504,-0.4125977 2.570801,-2.3168946 v 1.7773438 q -3.554688,4.76074216 -6.791993,4.76074216 -1.555175,0 -2.475586,-1.07910156 -0.92041,-1.0791016 -0.952148,-3.6816406 z m 0,-2.0629883 V -17.329102 q -4.792481,1.904297 -6.188965,2.697754 -2.507324,1.396485 -3.586426,2.919922 -1.079101,1.523438 -1.079101,3.3325197 0,2.2851563 1.364746,3.8085938 1.364746,1.4916992 3.14209,1.4916992 2.412109,0 6.347656,-3.1738281 z" style="" id="path145"/><path d="m 104.38086,-29.929199 v 6.538086 q 3.6499,-6.538086 7.49023,-6.538086 1.74561,0 2.88819,1.079101 1.14258,1.047364 1.14258,2.443848 0,1.237793 -0.8252,2.094727 -0.8252,0.856933 -1.96777,0.856933 -1.11084,0 -2.50733,-1.079101 -1.36474,-1.11084 -2.03125,-1.11084 -0.57129,0 -1.23779,0.634765 -1.42822,1.30127 -2.95166,4.284668 v 13.9331058 q 0,2.4121094 0.60303,3.6499024 0.41259,0.8569335 1.45996,1.4282226 1.04736,0.5712891 3.01513,0.5712891 V 0 H 94.57373 v -1.1425781 q 2.22168,0 3.300782,-0.6982422 0.793457,-0.5078125 1.11084,-1.6186524 0.158691,-0.5395507 0.158691,-3.0786132 V -17.805176 q 0,-5.078125 -0.222168,-6.030273 -0.19043,-0.983887 -0.761719,-1.428223 -0.539551,-0.444336 -1.364746,-0.444336 -0.983887,0 -2.22168,0.476074 l -0.317382,-1.142578 8.791502,-3.554687 z" style="" id="path147"/><path d="m 125.95802,-38.625488 v 9.553222 h 6.79199 v 2.22168 h -6.79199 v 18.8525391 q 0,2.8247071 0.79345,3.8085938 0.8252,0.9838867 2.09473,0.9838867 1.04736,0 2.03125,-0.6347656 0.98389,-0.6665039 1.52344,-1.9360352 h 1.23779 q -1.11084,3.1103516 -3.14209,4.6972656 -2.03125,1.55517582 -4.18945,1.55517582 -1.45996,0 -2.85645,-0.79345703 -1.39648,-0.82519529 -2.06299,-2.31689449 -0.6665,-1.5234375 -0.6665,-4.6655274 V -26.850586 h -4.60205 v -1.047363 q 1.7456,-0.698242 3.55469,-2.348633 1.84082,-1.682129 3.26904,-3.967285 0.72998,-1.206055 2.03125,-4.411621 z" style="" id="path149"/><path d="m 140.4502,-18.122559 q -0.0317,6.47461 3.14209,10.1562504 3.17382,3.6816406 7.45849,3.6816406 2.85645,0 4.95117,-1.5551757 2.12647,-1.5869141 3.55469,-5.3955083 l 0.98389,0.634766 q -0.66651,4.3481446 -3.87207,7.9345704 -3.20557,3.55468748 -8.02979,3.55468748 -5.23681,0 -8.98193,-4.06249998 -3.71338,-4.0942383 -3.71338,-10.9814449 0,-7.458497 3.80859,-11.616211 3.84034,-4.189453 9.6167,-4.189453 4.8877,0 8.02979,3.237304 3.14209,3.205567 3.14209,8.601074 z m 0,-1.84082 h 13.45703 q -0.15869,-2.792969 -0.66651,-3.935547 -0.79345,-1.777344 -2.38037,-2.792969 -1.55517,-1.015625 -3.26904,-1.015625 -2.63428,0 -4.72901,2.062989 -2.06298,2.03125 -2.4121,5.681152 z" style="" id="path151"/><path d="m 172.91211,-29.929199 v 6.538086 q 3.6499,-6.538086 7.49023,-6.538086 1.74561,0 2.88819,1.079101 1.14258,1.047364 1.14258,2.443848 0,1.237793 -0.8252,2.094727 -0.8252,0.856933 -1.96777,0.856933 -1.11084,0 -2.50733,-1.079101 -1.36474,-1.11084 -2.03125,-1.11084 -0.57129,0 -1.23779,0.634765 -1.42822,1.30127 -2.95166,4.284668 v 13.9331058 q 0,2.4121094 0.60303,3.6499024 0.41259,0.8569335 1.45996,1.4282226 1.04736,0.5712891 3.01513,0.5712891 V 0 h -14.88525 v -1.1425781 q 2.22168,0 3.30078,-0.6982422 0.79346,-0.5078125 1.11084,-1.6186524 0.15869,-0.5395507 0.15869,-3.0786132 V -17.805176 q 0,-5.078125 -0.22217,-6.030273 -0.19042,-0.983887 -0.76171,-1.428223 -0.53955,-0.444336 -1.36475,-0.444336 -0.98389,0 -2.22168,0.476074 l -0.31738,-1.142578 8.7915,-3.554687 z" style="" id="path153"/><path d="m 210.771,-23.771973 q 5.10986,-6.157226 9.74365,-6.157226 2.38037,0 4.09424,1.206054 1.71386,1.174317 2.72949,3.903809 0.69824,1.904297 0.69824,5.839844 v 12.4096678 q 0,2.7612304 0.44434,3.7451172 0.34912,0.793457 1.11084,1.2377929 0.79345,0.444336 2.88818,0.444336 V 0 h -14.37744 v -1.1425781 h 0.60303 q 2.03125,0 2.8247,-0.6030274 0.8252,-0.6347656 1.14258,-1.8408203 0.12695,-0.4760742 0.12695,-2.9833984 V -18.47168 q 0,-3.967285 -1.04736,-5.744629 -1.01562,-1.809082 -3.45947,-1.809082 -3.77686,0 -7.52197,4.125977 v 15.3295898 q 0,2.9516601 0.34912,3.6499023 0.44433,0.9204102 1.20605,1.3647461 0.79346,0.4125977 3.17383,0.4125977 V 0 h -14.37744 v -1.1425781 h 0.63476 q 2.22168,0 2.9834,-1.1108399 0.79346,-1.1425781 0.79346,-4.3164062 V -17.36084 q 0,-5.236816 -0.25391,-6.379394 -0.22216,-1.142578 -0.72998,-1.555176 -0.47607,-0.412598 -1.30127,-0.412598 -0.88867,0 -2.12646,0.476074 l -0.47608,-1.142578 8.75977,-3.554687 h 1.36475 z" style="" id="path155"/><path d="m 249.01562,-29.929199 q 6.60157,0 10.60059,5.014648 3.396,4.284668 3.396,9.838867 0,3.903809 -1.87256,7.9028324 -1.87256,3.9990235 -5.17334,6.0302735 -3.26904,2.03124998 -7.29981,2.03124998 -6.56982,0 -10.44189,-5.23681638 -3.26904,-4.4116211 -3.26904,-9.9023435 0,-3.999024 1.96777,-7.934571 1.99951,-3.967285 5.23682,-5.839843 3.2373,-1.904297 6.85546,-1.904297 z m -0.98388,2.062988 q -1.68213,0 -3.396,1.015625 -1.68213,0.983887 -2.72949,3.491211 -1.04736,2.507324 -1.04736,6.442871 0,6.347656 2.50732,10.9497071 2.53906,4.6020508 6.66504,4.6020508 3.07861,0 5.07812,-2.5390625 1.99952,-2.5390625 1.99952,-8.7280274 0,-7.744141 -3.33252,-12.1875 -2.25342,-3.046875 -5.74463,-3.046875 z" style="" id="path157"/><path d="m 275.73926,-38.625488 v 9.553222 h 6.79199 v 2.22168 h -6.79199 v 18.8525391 q 0,2.8247071 0.79345,3.8085938 0.8252,0.9838867 2.09473,0.9838867 1.04736,0 2.03125,-0.6347656 0.98389,-0.6665039 1.52344,-1.9360352 h 1.23779 q -1.11084,3.1103516 -3.14209,4.6972656 -2.03125,1.55517582 -4.18945,1.55517582 -1.45996,0 -2.85645,-0.79345703 -1.39648,-0.82519529 -2.06298,-2.31689449 -0.66651,-1.5234375 -0.66651,-4.6655274 V -26.850586 h -4.60205 v -1.047363 q 1.74561,-0.698242 3.55469,-2.348633 1.84082,-1.682129 3.26904,-3.967285 0.72998,-1.206055 2.03125,-4.411621 z" style="" id="path159"/><path d="m 290.23145,-18.122559 q -0.0317,6.47461 3.14209,10.1562504 3.17382,3.6816406 7.45849,3.6816406 2.85645,0 4.95117,-1.5551757 2.12647,-1.5869141 3.55469,-5.3955083 l 0.98389,0.634766 q -0.66651,4.3481446 -3.87207,7.9345704 -3.20557,3.55468748 -8.02979,3.55468748 -5.23681,0 -8.98193,-4.06249998 -3.71338,-4.0942383 -3.71338,-10.9814449 0,-7.458497 3.80859,-11.616211 3.84034,-4.189453 9.6167,-4.189453 4.8877,0 8.02979,3.237304 3.14209,3.205567 3.14209,8.601074 z m 0,-1.84082 h 13.45703 q -0.15869,-2.792969 -0.66651,-3.935547 -0.79345,-1.777344 -2.38037,-2.792969 -1.55517,-1.015625 -3.26904,-1.015625 -2.63428,0 -4.72901,2.062989 -2.06298,2.03125 -2.4121,5.681152 z" style="" id="path161"/><path d="m 321.32861,-29.960937 q 1.45996,0 2.47559,1.047363 1.04736,1.015625 1.04736,2.475586 0,1.459961 -1.04736,2.507324 -1.01563,1.015625 -2.47559,1.015625 -1.45996,0 -2.50732,-1.015625 -1.01563,-1.047363 -1.01563,-2.507324 0,-1.459961 1.01563,-2.475586 1.04736,-1.047363 2.50732,-1.047363 z m -0.0635,23.7719722 q 1.4917,0 2.50732,1.0473632 1.04736,1.0473633 1.04736,2.5073243 0,1.4599609 -1.04736,2.50732418 -1.04736,1.015625 -2.50732,1.015625 -1.45996,0 -2.50733,-1.015625 -1.01562,-1.04736328 -1.01562,-2.50732418 0,-1.459961 1.01562,-2.5073243 1.04737,-1.0473632 2.50733,-1.0473632 z" style="" id="path163"/></g>
</g></g><g transform="scale(2.5835866,2.5834802)" id="g88"/><g transform="matrix(2.5835866,0,0,2.5834802,5319.6048,2212.2257)" id="g90"><g id="g92"><g aria-label="eighth note:" transform="translate(0,60.671875)" style="font-variant:normal;font-weight:normal;font-size:65px;font-family:'Times New Roman';-inkscape-font-specification:TimesNewRomanPSMT;writing-mode:lr-tb;fill:#000000;fill-opacity:1;fill-rule:nonzero;stroke:none" id="text96"><path d="m 6.9189453,-18.122559 q -0.031738,6.47461 3.1420897,10.1562504 3.173828,3.6816406 7.458496,3.6816406 2.856446,0 4.951172,-1.5551757 2.126465,-1.5869141 3.554688,-5.3955083 l 0.983886,0.634766 q -0.666504,4.3481446 -3.87207,7.9345704 -3.205566,3.55468748 -8.029785,3.55468748 -5.2368165,0 -8.9819337,-4.06249998 -3.7133789,-4.0942383 -3.7133789,-10.9814449 0,-7.458497 3.8085937,-11.616211 3.8403319,-4.189453 9.6166989,-4.189453 4.887696,0 8.029785,3.237304 3.14209,3.205567 3.14209,8.601074 z m 0,-1.84082 H 20.375977 q -0.158692,-2.792969 -0.666504,-3.935547 -0.793457,-1.777344 -2.380371,-2.792969 -1.555176,-1.015625 -3.269043,-1.015625 -2.634278,0 -4.7290043,2.062989 -2.0629883,2.03125 -2.4121094,5.681152 z" style="" id="path166"/><path d="m 38.27002,-45.131836 q 1.333007,0 2.253417,0.952149 0.952149,0.92041 0.952149,2.253417 0,1.333008 -0.952149,2.285157 -0.92041,0.952148 -2.253417,0.952148 -1.333008,0 -2.285157,-0.952148 -0.952148,-0.952149 -0.952148,-2.285157 0,-1.333007 0.92041,-2.253417 0.952148,-0.952149 2.316895,-0.952149 z m 2.634277,15.202637 v 23.3593748 q 0,2.7294922 0.380859,3.6499023 0.412598,0.8886719 1.174317,1.3330078 0.793457,0.444336 2.856445,0.444336 V 0 H 31.192383 v -1.1425781 q 2.126465,0 2.856445,-0.4125977 0.729981,-0.4125976 1.142578,-1.3647461 0.444336,-0.9521484 0.444336,-3.6499023 V -17.773437 q 0,-4.729004 -0.285644,-6.125489 -0.222168,-1.015625 -0.698243,-1.396484 -0.476074,-0.412598 -1.301269,-0.412598 -0.888672,0 -2.158203,0.476074 l -0.444336,-1.142578 8.759765,-3.554687 z" style="" id="path168"/><path d="m 56.697754,-10.600586 q -2.666016,-1.301269 -4.094238,-3.618164 -1.428223,-2.348633 -1.428223,-5.17334 0,-4.316406 3.237305,-7.426758 3.269043,-3.110351 8.347168,-3.110351 4.157714,0 7.204589,2.03125 h 6.157227 q 1.364746,0 1.586914,0.09521 0.222168,0.06348 0.317383,0.253906 0.19043,0.285644 0.19043,1.015625 0,0.825195 -0.158692,1.142578 -0.09521,0.158691 -0.349121,0.253906 -0.222168,0.09521 -1.586914,0.09521 h -3.776855 q 1.777343,2.285156 1.777343,5.839844 0,4.0625 -3.110351,6.950683 -3.110352,2.888184 -8.347168,2.888184 -2.158203,0 -4.411621,-0.6347656 -1.396485,1.2060547 -1.904297,2.1264649 -0.476074,0.8886718 -0.476074,1.5234375 0,0.5395507 0.507812,1.0473632 0.539551,0.5078125 2.062988,0.7299805 0.888672,0.1269531 4.44336,0.222168 6.538086,0.1586914 8.474121,0.4443359 2.95166,0.4125977 4.697265,2.1899414 1.777344,1.77734376 1.777344,4.3798828 0,3.5864258 -3.364258,6.7285157 -4.951171,4.6337887 -12.91748,4.6337887 -6.125488,0 -10.34668,-2.76123 -2.380371,-1.5869142 -2.380371,-3.3007814 0,-0.7617188 0.349121,-1.5234375 0.539551,-1.1743164 2.22168,-3.269043 0.222168,-0.2856445 3.237305,-3.42773435 -1.650391,-0.98388675 -2.348633,-1.74560545 -0.666504,-0.7934571 -0.666504,-1.7773438 0,-1.1108398 0.888672,-2.602539 0.92041,-1.4916992 4.189453,-4.2211915 z m 5.522461,-17.805176 q -2.348633,0 -3.935547,1.872559 -1.586914,1.872558 -1.586914,5.744629 0,5.014648 2.158203,7.775879 1.650391,2.094726 4.189453,2.094726 2.41211,0 3.967285,-1.809082 1.555176,-1.809082 1.555176,-5.681152 0,-5.046387 -2.189941,-7.902832 -1.618653,-2.094727 -4.157715,-2.094727 z M 56.380371,0 q -1.491699,1.6186523 -2.253418,3.0151367 -0.761719,1.3964844 -0.761719,2.5708008 0,1.5234375 1.840821,2.6660156 3.173828,1.9677739 9.172363,1.9677739 5.712891,0 8.410644,-2.0312504 2.729493,-1.9995118 2.729493,-4.284668 0,-1.6503906 -1.618653,-2.3486328 Q 72.249512,0.85693359 67.361816,0.72998047 60.220703,0.53955078 56.380371,0 Z" style="" id="path171"/><path d="m 89.959473,-45.131836 v 21.264649 q 3.522949,-3.872071 5.585937,-4.951172 2.062988,-1.11084 4.125977,-1.11084 2.475583,0 4.252933,1.364746 1.77734,1.364746 2.63427,4.284668 0.60303,2.03125 0.60303,7.426758 v 10.2832028 q 0,2.7612304 0.44434,3.7768554 0.31738,0.7617188 1.0791,1.2060547 0.76172,0.444336 2.79297,0.444336 V 0 H 97.195801 v -1.1425781 h 0.666504 q 2.03125,0 2.824705,-0.6030274 0.79346,-0.6347656 1.11084,-1.8408203 0.0952,-0.5078125 0.0952,-2.9833984 V -16.853027 q 0,-4.760743 -0.50782,-6.252442 -0.47607,-1.491699 -1.555172,-2.221679 -1.079101,-0.761719 -2.602539,-0.761719 -1.555176,0 -3.237305,0.825195 -1.682129,0.825195 -4.030761,3.33252 v 15.3613278 q 0,2.9833984 0.317382,3.7133789 0.349122,0.7299805 1.237793,1.237793 0.920411,0.4760742 3.14209,0.4760742 V 0 H 80.247559 v -1.1425781 q 1.936035,0 3.046875,-0.6030274 0.634765,-0.3173828 1.015625,-1.2060547 0.380859,-0.8886718 0.380859,-3.618164 V -32.880859 q 0,-4.982911 -0.253906,-6.125489 -0.222168,-1.142578 -0.729981,-1.555175 -0.476074,-0.412598 -1.301269,-0.412598 -0.666504,0 -2.158203,0.507812 l -0.444336,-1.110839 8.696289,-3.554688 z" style="" id="path173"/><path d="m 122.36425,-38.625488 v 9.553222 h 6.79199 v 2.22168 h -6.79199 v 18.8525391 q 0,2.8247071 0.79346,3.8085938 0.82519,0.9838867 2.09472,0.9838867 1.04737,0 2.03125,-0.6347656 0.98389,-0.6665039 1.52344,-1.9360352 h 1.23779 q -1.11084,3.1103516 -3.14209,4.6972656 -2.03125,1.55517582 -4.18945,1.55517582 -1.45996,0 -2.85644,-0.79345703 -1.39649,-0.82519529 -2.06299,-2.31689449 -0.66651,-1.5234375 -0.66651,-4.6655274 V -26.850586 h -4.60205 v -1.047363 q 1.74561,-0.698242 3.55469,-2.348633 1.84082,-1.682129 3.26904,-3.967285 0.72998,-1.206055 2.03125,-4.411621 z" style="" id="path175"/><path d="m 140.50635,-45.131836 v 21.264649 q 3.52295,-3.872071 5.58594,-4.951172 2.06298,-1.11084 4.12597,-1.11084 2.47559,0 4.25293,1.364746 1.77735,1.364746 2.63428,4.284668 0.60303,2.03125 0.60303,7.426758 v 10.2832028 q 0,2.7612304 0.44433,3.7768554 0.31738,0.7617188 1.0791,1.2060547 0.76172,0.444336 2.79297,0.444336 V 0 h -14.28222 v -1.1425781 h 0.6665 q 2.03125,0 2.82471,-0.6030274 0.79345,-0.6347656 1.11084,-1.8408203 0.0952,-0.5078125 0.0952,-2.9833984 V -16.853027 q 0,-4.760743 -0.50781,-6.252442 -0.47608,-1.491699 -1.55518,-2.221679 -1.0791,-0.761719 -2.60254,-0.761719 -1.55517,0 -3.2373,0.825195 -1.68213,0.825195 -4.03076,3.33252 v 15.3613278 q 0,2.9833984 0.31738,3.7133789 0.34912,0.7299805 1.23779,1.237793 0.92041,0.4760742 3.14209,0.4760742 V 0 h -14.40918 v -1.1425781 q 1.93604,0 3.04688,-0.6030274 0.63476,-0.3173828 1.01562,-1.2060547 0.38086,-0.8886718 0.38086,-3.618164 V -32.880859 q 0,-4.982911 -0.2539,-6.125489 -0.22217,-1.142578 -0.72998,-1.555175 -0.47608,-0.412598 -1.30127,-0.412598 -0.66651,0 -2.15821,0.507812 l -0.44433,-1.110839 8.69629,-3.554688 z" style="" id="path177"/><path d="m 189.19287,-23.771973 q 5.10986,-6.157226 9.74365,-6.157226 2.38037,0 4.09424,1.206054 1.71387,1.174317 2.72949,3.903809 0.69825,1.904297 0.69825,5.839844 v 12.4096678 q 0,2.7612304 0.44433,3.7451172 0.34912,0.793457 1.11084,1.2377929 0.79346,0.444336 2.88819,0.444336 V 0 h -14.37745 v -1.1425781 h 0.60303 q 2.03125,0 2.82471,-0.6030274 0.82519,-0.6347656 1.14258,-1.8408203 0.12695,-0.4760742 0.12695,-2.9833984 V -18.47168 q 0,-3.967285 -1.04736,-5.744629 -1.01563,-1.809082 -3.45948,-1.809082 -3.77685,0 -7.52197,4.125977 v 15.3295898 q 0,2.9516601 0.34912,3.6499023 0.44434,0.9204102 1.20606,1.3647461 0.79345,0.4125977 3.17382,0.4125977 V 0 h -14.37744 v -1.1425781 h 0.63477 q 2.22168,0 2.9834,-1.1108399 0.79345,-1.1425781 0.79345,-4.3164062 V -17.36084 q 0,-5.236816 -0.2539,-6.379394 -0.22217,-1.142578 -0.72998,-1.555176 -0.47608,-0.412598 -1.30127,-0.412598 -0.88867,0 -2.12647,0.476074 l -0.47607,-1.142578 8.75976,-3.554687 h 1.36475 z" style="" id="path179"/><path d="m 227.4375,-29.929199 q 6.60156,0 10.60059,5.014648 3.39599,4.284668 3.39599,9.838867 0,3.903809 -1.87256,7.9028324 -1.87256,3.9990235 -5.17334,6.0302735 -3.26904,2.03124998 -7.2998,2.03124998 -6.56983,0 -10.4419,-5.23681638 -3.26904,-4.4116211 -3.26904,-9.9023435 0,-3.999024 1.96777,-7.934571 1.99952,-3.967285 5.23682,-5.839843 3.23731,-1.904297 6.85547,-1.904297 z m -0.98389,2.062988 q -1.68213,0 -3.39599,1.015625 -1.68213,0.983887 -2.7295,3.491211 -1.04736,2.507324 -1.04736,6.442871 0,6.347656 2.50733,10.9497071 2.53906,4.6020508 6.66503,4.6020508 3.07862,0 5.07813,-2.5390625 1.99951,-2.5390625 1.99951,-8.7280274 0,-7.744141 -3.33252,-12.1875 -2.25342,-3.046875 -5.74463,-3.046875 z" style="" id="path181"/><path d="m 254.16113,-38.625488 v 9.553222 h 6.79199 v 2.22168 h -6.79199 v 18.8525391 q 0,2.8247071 0.79346,3.8085938 0.8252,0.9838867 2.09473,0.9838867 1.04736,0 2.03125,-0.6347656 0.98388,-0.6665039 1.52343,-1.9360352 h 1.2378 q -1.11084,3.1103516 -3.14209,4.6972656 -2.03125,1.55517582 -4.18946,1.55517582 -1.45996,0 -2.85644,-0.79345703 -1.39649,-0.82519529 -2.06299,-2.31689449 -0.6665,-1.5234375 -0.6665,-4.6655274 V -26.850586 h -4.60205 v -1.047363 q 1.7456,-0.698242 3.55468,-2.348633 1.84082,-1.682129 3.26905,-3.967285 0.72998,-1.206055 2.03125,-4.411621 z" style="" id="path183"/><path d="m 268.65332,-18.122559 q -0.0317,6.47461 3.14209,10.1562504 3.17383,3.6816406 7.4585,3.6816406 2.85644,0 4.95117,-1.5551757 2.12646,-1.5869141 3.55469,-5.3955083 l 0.98388,0.634766 q -0.6665,4.3481446 -3.87207,7.9345704 -3.20556,3.55468748 -8.02978,3.55468748 -5.23682,0 -8.98194,-4.06249998 -3.71338,-4.0942383 -3.71338,-10.9814449 0,-7.458497 3.8086,-11.616211 3.84033,-4.189453 9.6167,-4.189453 4.88769,0 8.02978,3.237304 3.14209,3.205567 3.14209,8.601074 z m 0,-1.84082 h 13.45703 q -0.15869,-2.792969 -0.6665,-3.935547 -0.79346,-1.777344 -2.38037,-2.792969 -1.55518,-1.015625 -3.26905,-1.015625 -2.63427,0 -4.729,2.062989 -2.06299,2.03125 -2.41211,5.681152 z" style="" id="path185"/><path d="m 299.75049,-29.960937 q 1.45996,0 2.47558,1.047363 1.04737,1.015625 1.04737,2.475586 0,1.459961 -1.04737,2.507324 -1.01562,1.015625 -2.47558,1.015625 -1.45996,0 -2.50733,-1.015625 -1.01562,-1.047363 -1.01562,-2.507324 0,-1.459961 1.01562,-2.475586 1.04737,-1.047363 2.50733,-1.047363 z m -0.0635,23.7719722 q 1.4917,0 2.50733,1.0473632 1.04736,1.0473633 1.04736,2.5073243 0,1.4599609 -1.04736,2.50732418 -1.04737,1.015625 -2.50733,1.015625 -1.45996,0 -2.50732,-1.015625 -1.01563,-1.04736328 -1.01563,-2.50732418 0,-1.459961 1.01563,-2.5073243 1.04736,-1.0473632 2.50732,-1.0473632 z" style="" id="path187"/></g>
</g></g><g transform="scale(2.5835866,2.5834802)" id="g98"/><g transform="matrix(2.5835866,0,0,2.5834802,6657.9027,2212.2257)" id="g100"><g id="g102"><g aria-label="sixteenth note:" transform="translate(0,60.671875)" style="font-variant:normal;font-weight:normal;font-size:65px;font-family:'Times New Roman';-inkscape-font-specification:TimesNewRomanPSMT;writing-mode:lr-tb;fill:#000000;fill-opacity:1;fill-rule:nonzero;stroke:none" id="text106"><path d="m 20.820312,-29.929199 v 9.902344 h -1.047363 q -1.206054,-4.665528 -3.110351,-6.347657 -1.872559,-1.682129 -4.792481,-1.682129 -2.2216795,0 -3.5864256,1.174317 -1.3647461,1.174316 -1.3647461,2.602539 0,1.777344 1.015625,3.046875 0.9838867,1.301269 3.9990237,2.76123 l 4.633789,2.253418 q 6.442871,3.14209 6.442871,8.2836917 0,3.9672851 -3.015137,6.4111328 -2.983398,2.41210938 -6.696777,2.41210938 -2.666016,0 -6.0937502,-0.95214844 -1.0473632,-0.31738282 -1.7138671,-0.31738282 -0.7299805,0 -1.1425782,0.82519532 H 3.3007813 V -9.934082 h 1.0473632 q 0.8886719,4.4433593 3.3959961,6.6967773 2.5073244,2.25341798 5.6176754,2.25341798 2.189942,0 3.554688,-1.26953128 1.396484,-1.3012695 1.396484,-3.1103515 0,-2.1899414 -1.555176,-3.6816407 -1.523437,-1.4916988 -6.125488,-3.7768558 -4.6020506,-2.285156 -6.0302732,-4.125976 -1.4282227,-1.809082 -1.4282227,-4.570313 0,-3.586425 2.4438477,-5.998535 2.4755859,-2.412109 6.3793942,-2.412109 1.713868,0 4.157715,0.72998 1.618652,0.476074 2.158203,0.476074 0.507813,0 0.793457,-0.222167 0.285645,-0.222168 0.666504,-0.983887 z" style="" id="path190"/><path d="m 34.70752,-45.131836 q 1.333007,0 2.253417,0.952149 0.952149,0.92041 0.952149,2.253417 0,1.333008 -0.952149,2.285157 -0.92041,0.952148 -2.253417,0.952148 -1.333008,0 -2.285157,-0.952148 -0.952148,-0.952149 -0.952148,-2.285157 0,-1.333007 0.92041,-2.253417 0.952148,-0.952149 2.316895,-0.952149 z m 2.634277,15.202637 v 23.3593748 q 0,2.7294922 0.380859,3.6499023 0.412598,0.8886719 1.174317,1.3330078 0.793457,0.444336 2.856445,0.444336 V 0 H 27.629883 v -1.1425781 q 2.126465,0 2.856445,-0.4125977 0.729981,-0.4125976 1.142578,-1.3647461 0.444336,-0.9521484 0.444336,-3.6499023 V -17.773437 q 0,-4.729004 -0.285644,-6.125489 -0.222168,-1.015625 -0.698243,-1.396484 -0.476074,-0.412598 -1.301269,-0.412598 -0.888672,0 -2.158203,0.476074 l -0.444336,-1.142578 8.759765,-3.554687 z" style="" id="path192"/><path d="m 44.185059,-29.072266 h 13.679199 v 1.174317 q -1.30127,0 -1.840821,0.444336 -0.507812,0.444336 -0.507812,1.174316 0,0.761719 1.11084,2.348633 0.349121,0.507812 1.047363,1.586914 l 2.062988,3.300781 2.380371,-3.300781 q 2.285157,-3.14209 2.285157,-3.967285 0,-0.666504 -0.539551,-1.11084 -0.539551,-0.476074 -1.745606,-0.476074 v -1.174317 h 9.838868 v 1.174317 q -1.555176,0.09521 -2.697754,0.856933 -1.555176,1.079102 -4.25293,4.697266 l -3.967285,5.300293 7.236328,10.4101562 q 2.666016,3.840332 3.808594,4.6337891 1.142578,0.7617187 2.95166,0.8569336 V 0 H 61.32373 v -1.1425781 q 1.428223,0 2.22168,-0.6347656 0.603027,-0.444336 0.603027,-1.1743165 0,-0.7299804 -2.03125,-3.6816406 l -4.252929,-6.2207032 -4.665528,6.2207032 q -2.158203,2.8881836 -2.158203,3.4277344 0,0.7617187 0.698243,1.3964844 0.72998,0.6030273 2.158203,0.6665039 V 0 h -9.489746 v -1.1425781 q 1.142578,-0.1586914 1.999511,-0.7934571 1.206055,-0.9204101 4.0625,-4.6972656 l 6.09375,-8.0932622 -5.522461,-7.998046 q -2.348632,-3.427735 -3.649902,-4.284668 -1.269531,-0.888672 -3.205566,-0.888672 z" style="" id="path194"/><path d="m 86.301758,-38.625488 v 9.553222 h 6.791992 v 2.22168 h -6.791992 v 18.8525391 q 0,2.8247071 0.793457,3.8085938 0.825195,0.9838867 2.094726,0.9838867 1.047364,0 2.03125,-0.6347656 0.983887,-0.6665039 1.523438,-1.9360352 h 1.237793 q -1.11084,3.1103516 -3.14209,4.6972656 -2.03125,1.55517582 -4.189453,1.55517582 -1.459961,0 -2.856445,-0.79345703 Q 82.397949,-1.1425781 81.731445,-2.6342773 81.064941,-4.1577148 81.064941,-7.2998047 V -26.850586 h -4.60205 v -1.047363 q 1.745605,-0.698242 3.554687,-2.348633 1.84082,-1.682129 3.269043,-3.967285 0.729981,-1.206055 2.03125,-4.411621 z" style="" id="path196"/><path d="m 100.79395,-18.122559 q -0.0317,6.47461 3.14209,10.1562504 3.17382,3.6816406 7.45849,3.6816406 2.85645,0 4.95117,-1.5551757 2.12647,-1.5869141 3.55469,-5.3955083 l 0.98389,0.634766 q -0.66651,4.3481446 -3.87207,7.9345704 -3.20557,3.55468748 -8.02979,3.55468748 -5.23681,0 -8.98193,-4.06249998 -3.713381,-4.0942383 -3.713381,-10.9814449 0,-7.458497 3.808591,-11.616211 3.84034,-4.189453 9.6167,-4.189453 4.8877,0 8.02979,3.237304 3.14209,3.205567 3.14209,8.601074 z m 0,-1.84082 h 13.45703 q -0.15869,-2.792969 -0.66651,-3.935547 -0.79345,-1.777344 -2.38037,-2.792969 -1.55517,-1.015625 -3.26904,-1.015625 -2.63428,0 -4.72901,2.062989 -2.06298,2.03125 -2.4121,5.681152 z" style="" id="path198"/><path d="m 129.6377,-18.122559 q -0.0317,6.47461 3.14209,10.1562504 3.17382,3.6816406 7.45849,3.6816406 2.85645,0 4.95117,-1.5551757 2.12647,-1.5869141 3.55469,-5.3955083 l 0.98389,0.634766 q -0.66651,4.3481446 -3.87207,7.9345704 -3.20557,3.55468748 -8.02979,3.55468748 -5.23681,0 -8.98193,-4.06249998 -3.71338,-4.0942383 -3.71338,-10.9814449 0,-7.458497 3.80859,-11.616211 3.84034,-4.189453 9.6167,-4.189453 4.8877,0 8.02979,3.237304 3.14209,3.205567 3.14209,8.601074 z m 0,-1.84082 h 13.45703 q -0.15869,-2.792969 -0.66651,-3.935547 -0.79345,-1.777344 -2.38037,-2.792969 -1.55517,-1.015625 -3.26904,-1.015625 -2.63428,0 -4.72901,2.062989 -2.06298,2.03125 -2.4121,5.681152 z" style="" id="path200"/><path d="m 162.06787,-23.771973 q 5.10986,-6.157226 9.74365,-6.157226 2.38037,0 4.09424,1.206054 1.71387,1.174317 2.72949,3.903809 0.69825,1.904297 0.69825,5.839844 v 12.4096678 q 0,2.7612304 0.44433,3.7451172 0.34912,0.793457 1.11084,1.2377929 0.79346,0.444336 2.88819,0.444336 V 0 h -14.37745 v -1.1425781 h 0.60303 q 2.03125,0 2.82471,-0.6030274 0.82519,-0.6347656 1.14258,-1.8408203 0.12695,-0.4760742 0.12695,-2.9833984 V -18.47168 q 0,-3.967285 -1.04736,-5.744629 -1.01563,-1.809082 -3.45948,-1.809082 -3.77685,0 -7.52197,4.125977 v 15.3295898 q 0,2.9516601 0.34912,3.6499023 0.44434,0.9204102 1.20606,1.3647461 0.79345,0.4125977 3.17382,0.4125977 V 0 h -14.37744 v -1.1425781 h 0.63477 q 2.22168,0 2.9834,-1.1108399 0.79345,-1.1425781 0.79345,-4.3164062 V -17.36084 q 0,-5.236816 -0.2539,-6.379394 -0.22217,-1.142578 -0.72998,-1.555176 -0.47608,-0.412598 -1.30127,-0.412598 -0.88867,0 -2.12647,0.476074 l -0.47607,-1.142578 8.75976,-3.554687 h 1.36475 z" style="" id="path202"/><path d="m 194.53613,-38.625488 v 9.553222 h 6.79199 v 2.22168 h -6.79199 v 18.8525391 q 0,2.8247071 0.79346,3.8085938 0.8252,0.9838867 2.09473,0.9838867 1.04736,0 2.03125,-0.6347656 0.98388,-0.6665039 1.52343,-1.9360352 h 1.2378 q -1.11084,3.1103516 -3.14209,4.6972656 -2.03125,1.55517582 -4.18946,1.55517582 -1.45996,0 -2.85644,-0.79345703 -1.39649,-0.82519529 -2.06299,-2.31689449 -0.6665,-1.5234375 -0.6665,-4.6655274 V -26.850586 h -4.60205 v -1.047363 q 1.7456,-0.698242 3.55468,-2.348633 1.84082,-1.682129 3.26905,-3.967285 0.72998,-1.206055 2.03125,-4.411621 z" style="" id="path204"/><path d="m 212.67822,-45.131836 v 21.264649 q 3.52295,-3.872071 5.58594,-4.951172 2.06299,-1.11084 4.12598,-1.11084 2.47558,0 4.25293,1.364746 1.77734,1.364746 2.63427,4.284668 0.60303,2.03125 0.60303,7.426758 v 10.2832028 q 0,2.7612304 0.44434,3.7768554 0.31738,0.7617188 1.0791,1.2060547 0.76172,0.444336 2.79297,0.444336 V 0 h -14.28223 v -1.1425781 h 0.6665 q 2.03125,0 2.82471,-0.6030274 0.79346,-0.6347656 1.11084,-1.8408203 0.0952,-0.5078125 0.0952,-2.9833984 V -16.853027 q 0,-4.760743 -0.50782,-6.252442 -0.47607,-1.491699 -1.55517,-2.221679 -1.0791,-0.761719 -2.60254,-0.761719 -1.55518,0 -3.23731,0.825195 -1.68212,0.825195 -4.03076,3.33252 v 15.3613278 q 0,2.9833984 0.31739,3.7133789 0.34912,0.7299805 1.23779,1.237793 0.92041,0.4760742 3.14209,0.4760742 V 0 h -14.40918 v -1.1425781 q 1.93603,0 3.04687,-0.6030274 0.63477,-0.3173828 1.01563,-1.2060547 0.38086,-0.8886718 0.38086,-3.618164 V -32.880859 q 0,-4.982911 -0.25391,-6.125489 -0.22217,-1.142578 -0.72998,-1.555175 -0.47607,-0.412598 -1.30127,-0.412598 -0.6665,0 -2.1582,0.507812 l -0.44434,-1.110839 8.69629,-3.554688 z" style="" id="path206"/><path d="m 261.36475,-23.771973 q 5.10986,-6.157226 9.74365,-6.157226 2.38037,0 4.09424,1.206054 1.71386,1.174317 2.72949,3.903809 0.69824,1.904297 0.69824,5.839844 v 12.4096678 q 0,2.7612304 0.44434,3.7451172 0.34912,0.793457 1.11084,1.2377929 0.79345,0.444336 2.88818,0.444336 V 0 h -14.37744 v -1.1425781 h 0.60303 q 2.03125,0 2.8247,-0.6030274 0.8252,-0.6347656 1.14258,-1.8408203 0.12695,-0.4760742 0.12695,-2.9833984 V -18.47168 q 0,-3.967285 -1.04736,-5.744629 -1.01562,-1.809082 -3.45947,-1.809082 -3.77686,0 -7.52197,4.125977 v 15.3295898 q 0,2.9516601 0.34912,3.6499023 0.44433,0.9204102 1.20605,1.3647461 0.79346,0.4125977 3.17383,0.4125977 V 0 h -14.37744 v -1.1425781 h 0.63476 q 2.22168,0 2.9834,-1.1108399 0.79346,-1.1425781 0.79346,-4.3164062 V -17.36084 q 0,-5.236816 -0.25391,-6.379394 -0.22216,-1.142578 -0.72998,-1.555176 -0.47607,-0.412598 -1.30127,-0.412598 -0.88867,0 -2.12646,0.476074 L 251.24023,-26.374512 260,-29.929199 h 1.36475 z" style="" id="path208"/><path d="m 299.60937,-29.929199 q 6.60157,0 10.60059,5.014648 3.396,4.284668 3.396,9.838867 0,3.903809 -1.87256,7.9028324 -1.87256,3.9990235 -5.17334,6.0302735 -3.26904,2.03124998 -7.29981,2.03124998 -6.56982,0 -10.44189,-5.23681638 -3.26904,-4.4116211 -3.26904,-9.9023435 0,-3.999024 1.96777,-7.934571 1.99951,-3.967285 5.23682,-5.839843 3.2373,-1.904297 6.85546,-1.904297 z m -0.98388,2.062988 q -1.68213,0 -3.396,1.015625 -1.68213,0.983887 -2.72949,3.491211 -1.04736,2.507324 -1.04736,6.442871 0,6.347656 2.50732,10.9497071 2.53906,4.6020508 6.66504,4.6020508 3.07861,0 5.07812,-2.5390625 1.99952,-2.5390625 1.99952,-8.7280274 0,-7.744141 -3.33252,-12.1875 -2.25342,-3.046875 -5.74463,-3.046875 z" style="" id="path210"/><path d="m 326.33301,-38.625488 v 9.553222 h 6.79199 v 2.22168 h -6.79199 v 18.8525391 q 0,2.8247071 0.79345,3.8085938 0.8252,0.9838867 2.09473,0.9838867 1.04736,0 2.03125,-0.6347656 0.98389,-0.6665039 1.52344,-1.9360352 h 1.23779 q -1.11084,3.1103516 -3.14209,4.6972656 -2.03125,1.55517582 -4.18945,1.55517582 -1.45996,0 -2.85645,-0.79345703 -1.39648,-0.82519529 -2.06298,-2.31689449 -0.66651,-1.5234375 -0.66651,-4.6655274 V -26.850586 h -4.60205 v -1.047363 q 1.74561,-0.698242 3.55469,-2.348633 1.84082,-1.682129 3.26904,-3.967285 0.72998,-1.206055 2.03125,-4.411621 z" style="" id="path212"/><path d="m 340.8252,-18.122559 q -0.0317,6.47461 3.14209,10.1562504 3.17382,3.6816406 7.45849,3.6816406 2.85645,0 4.95117,-1.5551757 2.12647,-1.5869141 3.55469,-5.3955083 l 0.98389,0.634766 q -0.66651,4.3481446 -3.87207,7.9345704 -3.20557,3.55468748 -8.02979,3.55468748 -5.23681,0 -8.98193,-4.06249998 -3.71338,-4.0942383 -3.71338,-10.9814449 0,-7.458497 3.80859,-11.616211 3.84034,-4.189453 9.6167,-4.189453 4.8877,0 8.02979,3.237304 3.14209,3.205567 3.14209,8.601074 z m 0,-1.84082 h 13.45703 q -0.15869,-2.792969 -0.66651,-3.935547 -0.79345,-1.777344 -2.38037,-2.792969 -1.55517,-1.015625 -3.26904,-1.015625 -2.63428,0 -4.72901,2.062989 -2.06298,2.03125 -2.4121,5.681152 z" style="" id="path214"/><path d="m 371.92236,-29.960937 q 1.45996,0 2.47559,1.047363 1.04736,1.015625 1.04736,2.475586 0,1.459961 -1.04736,2.507324 -1.01563,1.015625 -2.47559,1.015625 -1.45996,0 -2.50732,-1.015625 -1.01563,-1.047363 -1.01563,-2.507324 0,-1.459961 1.01563,-2.475586 1.04736,-1.047363 2.50732,-1.047363 z m -0.0635,23.7719722 q 1.4917,0 2.50732,1.0473632 1.04736,1.0473633 1.04736,2.5073243 0,1.4599609 -1.04736,2.50732418 -1.04736,1.015625 -2.50732,1.015625 -1.45996,0 -2.50733,-1.015625 -1.01562,-1.04736328 -1.01562,-2.50732418 0,-1.459961 1.01562,-2.5073243 1.04737,-1.0473632 2.50733,-1.0473632 z" style="" id="path216"/></g>
</g></g><g transform="scale(2.5835866,2.5834802)" id="g108"/><g transform="matrix(2.5835866,0,0,2.5834802,7996.2006,2212.2257)" id="g110"><g id="g112"><g aria-label="thirty-second note:" transform="translate(0,60.671875)" style="font-variant:normal;font-weight:normal;font-size:65px;font-family:'Times New Roman';-inkscape-font-specification:TimesNewRomanPSMT;writing-mode:lr-tb;fill:#000000;fill-opacity:1;fill-rule:nonzero;stroke:none" id="text116"><path d="m 10.473633,-38.625488 v 9.553222 h 6.791992 v 2.22168 h -6.791992 v 18.8525391 q 0,2.8247071 0.793457,3.8085938 0.825195,0.9838867 2.094726,0.9838867 1.047364,0 2.03125,-0.6347656 0.983887,-0.6665039 1.523438,-1.9360352 h 1.237793 q -1.11084,3.1103516 -3.14209,4.6972656 -2.03125,1.55517582 -4.189453,1.55517582 -1.459961,0 -2.8564454,-0.79345703 Q 6.5698242,-1.1425781 5.9033203,-2.6342773 5.2368164,-4.1577148 5.2368164,-7.2998047 V -26.850586 H 0.63476562 v -1.047363 q 1.74560548,-0.698242 3.55468748,-2.348633 1.8408203,-1.682129 3.269043,-3.967285 0.7299805,-1.206055 2.03125,-4.411621 z" style="" id="path219"/><path d="m 28.615723,-45.131836 v 21.264649 q 3.522949,-3.872071 5.585937,-4.951172 2.062988,-1.11084 4.125977,-1.11084 2.475586,0 4.252929,1.364746 1.777344,1.364746 2.634278,4.284668 0.603027,2.03125 0.603027,7.426758 v 10.2832028 q 0,2.7612304 0.444336,3.7768554 0.317383,0.7617188 1.079102,1.2060547 0.761718,0.444336 2.792968,0.444336 V 0 H 35.852051 v -1.1425781 h 0.666504 q 2.03125,0 2.824707,-0.6030274 0.793457,-0.6347656 1.11084,-1.8408203 0.09521,-0.5078125 0.09521,-2.9833984 V -16.853027 q 0,-4.760743 -0.507812,-6.252442 -0.476074,-1.491699 -1.555176,-2.221679 -1.079101,-0.761719 -2.602539,-0.761719 -1.555176,0 -3.237305,0.825195 -1.682129,0.825195 -4.030761,3.33252 v 15.3613278 q 0,2.9833984 0.317382,3.7133789 0.349122,0.7299805 1.237793,1.237793 0.920411,0.4760742 3.14209,0.4760742 V 0 H 18.903809 v -1.1425781 q 1.936035,0 3.046875,-0.6030274 0.634765,-0.3173828 1.015625,-1.2060547 0.380859,-0.8886718 0.380859,-3.618164 V -32.880859 q 0,-4.982911 -0.253906,-6.125489 -0.222168,-1.142578 -0.729981,-1.555175 -0.476074,-0.412598 -1.301269,-0.412598 -0.666504,0 -2.158203,0.507812 l -0.444336,-1.110839 8.696289,-3.554688 z" style="" id="path221"/><path d="m 59.973145,-45.131836 q 1.333007,0 2.253417,0.952149 0.952149,0.92041 0.952149,2.253417 0,1.333008 -0.952149,2.285157 -0.92041,0.952148 -2.253417,0.952148 -1.333008,0 -2.285157,-0.952148 -0.952148,-0.952149 -0.952148,-2.285157 0,-1.333007 0.92041,-2.253417 0.952148,-0.952149 2.316895,-0.952149 z m 2.634277,15.202637 v 23.3593748 q 0,2.7294922 0.380859,3.6499023 0.412598,0.8886719 1.174317,1.3330078 0.793457,0.444336 2.856445,0.444336 V 0 H 52.895508 v -1.1425781 q 2.126465,0 2.856445,-0.4125977 0.729981,-0.4125976 1.142578,-1.3647461 0.444336,-0.9521484 0.444336,-3.6499023 V -17.773437 q 0,-4.729004 -0.285644,-6.125489 -0.222168,-1.015625 -0.698243,-1.396484 -0.476074,-0.412598 -1.301269,-0.412598 -0.888672,0 -2.158203,0.476074 l -0.444336,-1.142578 8.759765,-3.554687 z" style="" id="path223"/><path d="m 79.130859,-29.929199 v 6.538086 q 3.649903,-6.538086 7.490235,-6.538086 1.745605,0 2.888183,1.079101 1.142578,1.047364 1.142578,2.443848 0,1.237793 -0.825195,2.094727 -0.825195,0.856933 -1.967773,0.856933 -1.11084,0 -2.507325,-1.079101 -1.364746,-1.11084 -2.03125,-1.11084 -0.571289,0 -1.237792,0.634765 -1.428223,1.30127 -2.951661,4.284668 v 13.9331058 q 0,2.4121094 0.603028,3.6499024 0.412597,0.8569335 1.459961,1.4282226 1.047363,0.5712891 3.015136,0.5712891 V 0 H 69.32373 v -1.1425781 q 2.22168,0 3.300782,-0.6982422 0.793457,-0.5078125 1.11084,-1.6186524 0.158691,-0.5395507 0.158691,-3.0786132 V -17.805176 q 0,-5.078125 -0.222168,-6.030273 -0.19043,-0.983887 -0.761719,-1.428223 -0.539551,-0.444336 -1.364746,-0.444336 -0.983887,0 -2.22168,0.476074 l -0.317382,-1.142578 8.791504,-3.554687 z" style="" id="path225"/><path d="m 100.70801,-38.625488 v 9.553222 H 107.5 v 2.22168 h -6.79199 v 18.8525391 q 0,2.8247071 0.79345,3.8085938 0.8252,0.9838867 2.09473,0.9838867 1.04736,0 2.03125,-0.6347656 0.98389,-0.6665039 1.52344,-1.9360352 h 1.23779 q -1.11084,3.1103516 -3.14209,4.6972656 -2.03125,1.55517582 -4.18945,1.55517582 -1.459962,0 -2.856446,-0.79345703 Q 96.804199,-1.1425781 96.137695,-2.6342773 95.471191,-4.1577148 95.471191,-7.2998047 V -26.850586 h -4.60205 v -1.047363 q 1.745605,-0.698242 3.554687,-2.348633 1.84082,-1.682129 3.269043,-3.967285 0.729981,-1.206055 2.03125,-4.411621 z" style="" id="path227"/><path d="m 108.66211,-29.072266 h 13.55225 v 1.174317 h -0.66651 q -1.42822,0 -2.1582,0.634765 -0.69824,0.603028 -0.69824,1.523438 0,1.237793 1.04736,3.427734 l 7.07764,14.6630862 6.50634,-16.0595702 q 0.53955,-1.30127 0.53955,-2.570801 0,-0.571289 -0.22216,-0.856933 -0.25391,-0.349122 -0.79346,-0.539551 -0.53955,-0.222168 -1.9043,-0.222168 v -1.174317 h 9.45801 v 1.174317 q -1.17432,0.126953 -1.80908,0.507812 -0.63477,0.38086 -1.39649,1.428223 -0.28564,0.444336 -1.0791,2.443848 L 124.27734,5.4907227 q -1.71386,4.2211914 -4.50683,6.3793943 -2.76123,2.158203 -5.33203,2.158203 -1.87256,0 -3.07862,-1.079101 -1.20605,-1.079102 -1.20605,-2.475586 0,-1.333008 0.85693,-2.1582033 0.88867,-0.793457 2.41211,-0.793457 1.04736,0 2.85645,0.6982421 1.26953,0.4760743 1.58691,0.4760743 0.95215,0 2.06299,-0.9838868 1.14258,-0.9838867 2.28516,-3.8085937 l 2.06298,-5.0463867 -10.44189,-21.9311519 q -0.47607,-0.983887 -1.52344,-2.443848 -0.79346,-1.11084 -1.30127,-1.491699 -0.72998,-0.507813 -2.34863,-0.888672 z" style="" id="path229"/><path d="m 143.41553,-16.97998 h 16.40869 v 4.79248 h -16.40869 z" style="" id="path231"/><path d="m 183.24219,-29.929199 v 9.902344 h -1.04737 q -1.20605,-4.665528 -3.11035,-6.347657 -1.87256,-1.682129 -4.79248,-1.682129 -2.22168,0 -3.58642,1.174317 -1.36475,1.174316 -1.36475,2.602539 0,1.777344 1.01563,3.046875 0.98388,1.301269 3.99902,2.76123 l 4.63379,2.253418 q 6.44287,3.14209 6.44287,8.2836917 0,3.9672851 -3.01514,6.4111328 -2.9834,2.41210938 -6.69678,2.41210938 -2.66601,0 -6.09375,-0.95214844 -1.04736,-0.31738282 -1.71386,-0.31738282 -0.72998,0 -1.14258,0.82519532 h -1.04736 V -9.934082 h 1.04736 q 0.88867,4.4433593 3.396,6.6967773 2.50732,2.25341798 5.61767,2.25341798 2.18994,0 3.55469,-1.26953128 1.39648,-1.3012695 1.39648,-3.1103515 0,-2.1899414 -1.55517,-3.6816407 -1.52344,-1.4916988 -6.12549,-3.7768558 -4.60205,-2.285156 -6.03027,-4.125976 -1.42823,-1.809082 -1.42823,-4.570313 0,-3.586425 2.44385,-5.998535 2.47559,-2.412109 6.3794,-2.412109 1.71386,0 4.15771,0.72998 1.61865,0.476074 2.1582,0.476074 0.50782,0 0.79346,-0.222167 0.28564,-0.222168 0.6665,-0.983887 z" style="" id="path233"/><path d="m 194.62207,-18.122559 q -0.0317,6.47461 3.14209,10.1562504 3.17383,3.6816406 7.4585,3.6816406 2.85644,0 4.95117,-1.5551757 2.12646,-1.5869141 3.55469,-5.3955083 l 0.98388,0.634766 q -0.6665,4.3481446 -3.87207,7.9345704 -3.20556,3.55468748 -8.02978,3.55468748 -5.23682,0 -8.98194,-4.06249998 -3.71338,-4.0942383 -3.71338,-10.9814449 0,-7.458497 3.8086,-11.616211 3.84033,-4.189453 9.6167,-4.189453 4.88769,0 8.02978,3.237304 3.14209,3.205567 3.14209,8.601074 z m 0,-1.84082 h 13.45703 q -0.15869,-2.792969 -0.6665,-3.935547 -0.79346,-1.777344 -2.38037,-2.792969 -1.55518,-1.015625 -3.26905,-1.015625 -2.63427,0 -4.729,2.062989 -2.06299,2.03125 -2.41211,5.681152 z" style="" id="path235"/><path d="m 243.27051,-11.044922 q -1.17432,5.744629 -4.60205,8.8549806 -3.42774,3.07861328 -7.58545,3.07861328 -4.95117,0 -8.63281,-4.15771488 -3.68165,-4.1577148 -3.68165,-11.235352 0,-6.855468 4.0625,-11.140136 4.09424,-4.284668 9.80713,-4.284668 4.28467,0 7.0459,2.285156 2.76123,2.253418 2.76123,4.697266 0,1.206054 -0.79345,1.967773 -0.76172,0.729981 -2.15821,0.729981 -1.87256,0 -2.8247,-1.206055 -0.53956,-0.666504 -0.72999,-2.539063 -0.15869,-1.872558 -1.26953,-2.856445 -1.11084,-0.952148 -3.07861,-0.952148 -3.17383,0 -5.10986,2.348632 -2.5708,3.110352 -2.5708,8.220215 0,5.205078 2.53906,9.2041018 2.5708,3.9672852 6.91894,3.9672852 3.11036,0 5.58594,-2.1264648 1.74561,-1.459961 3.396,-5.3002932 z" style="" id="path237"/><path d="m 261.64062,-29.929199 q 6.60157,0 10.60059,5.014648 3.396,4.284668 3.396,9.838867 0,3.903809 -1.87256,7.9028324 -1.87256,3.9990235 -5.17334,6.0302735 -3.26904,2.03124998 -7.29981,2.03124998 -6.56982,0 -10.44189,-5.23681638 -3.26904,-4.4116211 -3.26904,-9.9023435 0,-3.999024 1.96777,-7.934571 1.99951,-3.967285 5.23682,-5.839843 3.2373,-1.904297 6.85546,-1.904297 z m -0.98388,2.062988 q -1.68213,0 -3.396,1.015625 -1.68213,0.983887 -2.72949,3.491211 -1.04736,2.507324 -1.04736,6.442871 0,6.347656 2.50732,10.9497071 2.53906,4.6020508 6.66504,4.6020508 3.07861,0 5.07812,-2.5390625 1.99952,-2.5390625 1.99952,-8.7280274 0,-7.744141 -3.33252,-12.1875 -2.25342,-3.046875 -5.74463,-3.046875 z" style="" id="path239"/><path d="m 288.396,-23.771973 q 5.10986,-6.157226 9.74365,-6.157226 2.38037,0 4.09424,1.206054 1.71386,1.174317 2.72949,3.903809 0.69824,1.904297 0.69824,5.839844 v 12.4096678 q 0,2.7612304 0.44434,3.7451172 0.34912,0.793457 1.11084,1.2377929 0.79345,0.444336 2.88818,0.444336 V 0 h -14.37744 v -1.1425781 h 0.60303 q 2.03125,0 2.8247,-0.6030274 0.8252,-0.6347656 1.14258,-1.8408203 0.12695,-0.4760742 0.12695,-2.9833984 V -18.47168 q 0,-3.967285 -1.04736,-5.744629 -1.01562,-1.809082 -3.45947,-1.809082 -3.77686,0 -7.52197,4.125977 v 15.3295898 q 0,2.9516601 0.34912,3.6499023 0.44433,0.9204102 1.20605,1.3647461 0.79346,0.4125977 3.17383,0.4125977 V 0 h -14.37744 v -1.1425781 h 0.63476 q 2.22168,0 2.9834,-1.1108399 0.79346,-1.1425781 0.79346,-4.3164062 V -17.36084 q 0,-5.236816 -0.25391,-6.379394 -0.22216,-1.142578 -0.72998,-1.555176 -0.47607,-0.412598 -1.30127,-0.412598 -0.88867,0 -2.12646,0.476074 l -0.47608,-1.142578 8.75977,-3.554687 h 1.36475 z" style="" id="path241"/><path d="m 332.95654,-3.269043 q -2.12646,2.2216797 -4.15771,3.20556644 -2.03125,0.95214844 -4.37988,0.95214844 -4.76075,0 -8.31543,-3.96728518 -3.55469,-3.9990234 -3.55469,-10.2514647 0,-6.252442 3.93554,-11.425781 3.93555,-5.205078 10.12452,-5.205078 3.84033,0 6.34765,2.443847 v -5.363769 q 0,-4.982911 -0.2539,-6.125489 -0.22217,-1.142578 -0.72998,-1.555175 -0.50782,-0.412598 -1.26954,-0.412598 -0.82519,0 -2.18994,0.507812 l -0.41259,-1.110839 8.66455,-3.554688 h 1.42822 v 33.61084 q 0,5.1098632 0.22217,6.2524413 0.2539,1.1108399 0.76172,1.5551758 0.53955,0.4443359 1.23779,0.4443359 0.85693,0 2.28516,-0.5395508 l 0.34912,1.1108399 -8.63282,3.58642578 h -1.45996 z m 0,-2.2216797 V -20.471191 q -0.19043,-2.158204 -1.14258,-3.935547 -0.95214,-1.777344 -2.53906,-2.666016 -1.55517,-0.92041 -3.04687,-0.92041 -2.79297,0 -4.98291,2.507324 -2.88819,3.300781 -2.88819,9.648438 0,6.4111325 2.79297,9.8388668 2.79297,3.3959961 6.22071,3.3959961 2.88818,0 5.58593,-2.8881836 z" style="" id="path243"/><path d="m 369.646,-23.771973 q 5.10986,-6.157226 9.74365,-6.157226 2.38037,0 4.09424,1.206054 1.71386,1.174317 2.72949,3.903809 0.69824,1.904297 0.69824,5.839844 v 12.4096678 q 0,2.7612304 0.44434,3.7451172 0.34912,0.793457 1.11084,1.2377929 0.79345,0.444336 2.88818,0.444336 V 0 h -14.37744 v -1.1425781 h 0.60303 q 2.03125,0 2.8247,-0.6030274 0.8252,-0.6347656 1.14258,-1.8408203 0.12695,-0.4760742 0.12695,-2.9833984 V -18.47168 q 0,-3.967285 -1.04736,-5.744629 -1.01562,-1.809082 -3.45947,-1.809082 -3.77686,0 -7.52197,4.125977 v 15.3295898 q 0,2.9516601 0.34912,3.6499023 0.44433,0.9204102 1.20605,1.3647461 0.79346,0.4125977 3.17383,0.4125977 V 0 h -14.37744 v -1.1425781 h 0.63476 q 2.22168,0 2.9834,-1.1108399 0.79346,-1.1425781 0.79346,-4.3164062 V -17.36084 q 0,-5.236816 -0.25391,-6.379394 -0.22216,-1.142578 -0.72998,-1.555176 -0.47607,-0.412598 -1.30127,-0.412598 -0.88867,0 -2.12646,0.476074 l -0.47608,-1.142578 8.75977,-3.554687 h 1.36475 z" style="" id="path245"/><path d="m 407.89062,-29.929199 q 6.60157,0 10.60059,5.014648 3.396,4.284668 3.396,9.838867 0,3.903809 -1.87256,7.9028324 -1.87256,3.9990235 -5.17334,6.0302735 -3.26904,2.03124998 -7.29981,2.03124998 -6.56982,0 -10.44189,-5.23681638 -3.26904,-4.4116211 -3.26904,-9.9023435 0,-3.999024 1.96777,-7.934571 1.99951,-3.967285 5.23682,-5.839843 3.2373,-1.904297 6.85546,-1.904297 z m -0.98388,2.062988 q -1.68213,0 -3.396,1.015625 -1.68213,0.983887 -2.72949,3.491211 -1.04736,2.507324 -1.04736,6.442871 0,6.347656 2.50732,10.9497071 2.53906,4.6020508 6.66504,4.6020508 3.07861,0 5.07812,-2.5390625 1.99952,-2.5390625 1.99952,-8.7280274 0,-7.744141 -3.33252,-12.1875 -2.25342,-3.046875 -5.74463,-3.046875 z" style="" id="path247"/><path d="m 434.61426,-38.625488 v 9.553222 h 6.79199 v 2.22168 h -6.79199 v 18.8525391 q 0,2.8247071 0.79345,3.8085938 0.8252,0.9838867 2.09473,0.9838867 1.04736,0 2.03125,-0.6347656 0.98389,-0.6665039 1.52344,-1.9360352 h 1.23779 q -1.11084,3.1103516 -3.14209,4.6972656 -2.03125,1.55517582 -4.18945,1.55517582 -1.45996,0 -2.85645,-0.79345703 -1.39648,-0.82519529 -2.06298,-2.31689449 -0.66651,-1.5234375 -0.66651,-4.6655274 V -26.850586 h -4.60205 v -1.047363 q 1.74561,-0.698242 3.55469,-2.348633 1.84082,-1.682129 3.26904,-3.967285 0.72998,-1.206055 2.03125,-4.411621 z" style="" id="path249"/><path d="m 449.10645,-18.122559 q -0.0317,6.47461 3.14209,10.1562504 3.17382,3.6816406 7.45849,3.6816406 2.85645,0 4.95117,-1.5551757 2.12647,-1.5869141 3.55469,-5.3955083 l 0.98389,0.634766 q -0.66651,4.3481446 -3.87207,7.9345704 -3.20557,3.55468748 -8.02979,3.55468748 -5.23681,0 -8.98193,-4.06249998 -3.71338,-4.0942383 -3.71338,-10.9814449 0,-7.458497 3.80859,-11.616211 3.84034,-4.189453 9.6167,-4.189453 4.8877,0 8.02979,3.237304 3.14209,3.205567 3.14209,8.601074 z m 0,-1.84082 h 13.45703 q -0.15869,-2.792969 -0.66651,-3.935547 -0.79345,-1.777344 -2.38037,-2.792969 -1.55517,-1.015625 -3.26904,-1.015625 -2.63428,0 -4.72901,2.062989 -2.06298,2.03125 -2.4121,5.681152 z" style="" id="path251"/><path d="m 480.20361,-29.960937 q 1.45996,0 2.47559,1.047363 1.04736,1.015625 1.04736,2.475586 0,1.459961 -1.04736,2.507324 -1.01563,1.015625 -2.47559,1.015625 -1.45996,0 -2.50732,-1.015625 -1.01563,-1.047363 -1.01563,-2.507324 0,-1.459961 1.01563,-2.475586 1.04736,-1.047363 2.50732,-1.047363 z m -0.0635,23.7719722 q 1.4917,0 2.50732,1.0473632 1.04736,1.0473633 1.04736,2.5073243 0,1.4599609 -1.04736,2.50732418 -1.04736,1.015625 -2.50732,1.015625 -1.45996,0 -2.50733,-1.015625 -1.01562,-1.04736328 -1.01562,-2.50732418 0,-1.459961 1.01562,-2.5073243 1.04737,-1.0473632 2.50733,-1.0473632 z" style="" id="path253"/></g>
</g></g><g transform="scale(2.5835866,2.5834802)" id="g118"><g id="g120"><g aria-label="w" transform="translate(528,1034)" style="font-variant:normal;font-weight:normal;font-size:128px;font-family:'Opus Std';-inkscape-font-specification:OpusStd;writing-mode:lr-tb;fill:#000000;fill-opacity:1;fill-rule:nonzero;stroke:none" id="text124"><path d="M 0,0 C 0,10.624 12.672,17.28 29.056,17.28 47.36,17.28 59.648,10.752 59.648,0 59.648,-9.856 44.672,-17.28 30.464,-17.28 14.976,-17.28 0,-10.368 0,0 Z m 45.824,6.528 c -1.408,7.168 -7.68,7.936 -15.104,7.936 -8.064,0 -16.768,-9.344 -16.768,-19.072 0,-6.528 4.096,-9.856 12.288,-9.856 8.576,0 12.8,3.2 16.64,10.88 1.92,3.84 2.944,7.168 2.944,10.112 z" style="" id="path256"/></g>
</g><path id="path126" style="fill:none;stroke:#000000;stroke-width:3;stroke-linecap:butt;stroke-linejoin:bevel;stroke-miterlimit:10;stroke-dasharray:none;stroke-opacity:1" d="m 1056,1039 v 107" inkscape:connector-curvature="0"/><g id="g128"><g aria-label="&#729;" transform="translate(1055,1034)" style="font-variant:normal;font-weight:normal;font-size:128px;font-family:'Opus Std';-inkscape-font-specification:OpusStd;writing-mode:lr-tb;fill:#000000;fill-opacity:1;fill-rule:nonzero;stroke:none" id="text132"><path d="m 0,5.888 c 0,7.168 7.04,11.392 15.744,11.392 14.592,0 29.312,-9.728 29.312,-21.76 0,-8.192 -6.912,-12.928 -17.536,-12.928 C 14.464,-17.408 0,-5.888 0,5.888 Z m 34.816,-19.456 c 4.864,0 7.296,2.048 7.296,6.016 0,7.424 -22.784,20.992 -31.872,20.992 -4.864,0 -7.296,-2.048 -7.296,-6.016 0,-7.936 23.68,-20.992 31.872,-20.992 z" style="" id="path259"/></g>
</g><path id="path134" style="fill:none;stroke:#000000;stroke-width:3;stroke-linecap:butt;stroke-linejoin:bevel;stroke-miterlimit:10;stroke-dasharray:none;stroke-opacity:1" d="m 1575,1039 v 107" inkscape:connector-curvature="0"/><g id="g136"><g aria-label="&#339;" transform="translate(1574,1034)" style="font-variant:normal;font-weight:normal;font-size:128px;font-family:'Opus Std';-inkscape-font-specification:OpusStd;writing-mode:lr-tb;fill:#000000;fill-opacity:1;fill-rule:nonzero;stroke:none" id="text140"><path d="m 14.336,16.64 c 13.184,0 29.44,-11.008 29.44,-22.272 0,-6.784 -6.016,-11.136 -14.592,-11.136 C 16.256,-16.768 0,-6.016 0,5.504 0,12.544 6.272,16.64 14.336,16.64 Z" style="" id="path262"/></g>
</g><path id="path142" style="fill:none;stroke:#000000;stroke-width:3;stroke-linecap:butt;stroke-linejoin:bevel;stroke-miterlimit:10;stroke-dasharray:none;stroke-opacity:1" d="m 2093,1039 v 107" inkscape:connector-curvature="0"/><g id="g144"><g aria-label="&#339;" transform="translate(2092,1034)" style="font-variant:normal;font-weight:normal;font-size:128px;font-family:'Opus Std';-inkscape-font-specification:OpusStd;writing-mode:lr-tb;fill:#000000;fill-opacity:1;fill-rule:nonzero;stroke:none" id="text148"><path d="m 14.336,16.64 c 13.184,0 29.44,-11.008 29.44,-22.272 0,-6.784 -6.016,-11.136 -14.592,-11.136 C 16.256,-16.768 0,-6.016 0,5.504 0,12.544 6.272,16.64 14.336,16.64 Z" style="" id="path265"/></g>
</g><g id="g150"><g aria-label="J" transform="translate(2092,1114)" style="font-variant:normal;font-weight:normal;font-size:128px;font-family:'Opus Std';-inkscape-font-specification:OpusStd;writing-mode:lr-tb;fill:#000000;fill-opacity:1;fill-rule:nonzero;stroke:none" id="text154"><path d="m 1.28,31.872 c 1.152,0 1.792,0 1.664,-0.128 -0.128,-0.256 -0.128,-0.64 -0.128,-1.024 0,-0.384 0,-0.768 0.128,-1.152 3.968,-9.984 8.448,-18.944 14.08,-25.856 4.608,-5.632 9.856,-10.752 14.592,-16.384 4.992,-5.888 7.296,-12.8 7.296,-19.328 0,-3.456 -0.384,-6.784 -1.28,-10.24 -1.664,-6.528 -6.784,-19.072 -9.856,-19.072 -0.384,0 -0.512,0.384 -0.512,1.152 0,0.64 0.256,1.536 0.768,2.432 4.48,8.32 6.656,15.36 6.656,20.864 0,7.808 -2.944,14.976 -8.448,21.12 -1.152,1.152 -4.864,4.224 -11.136,9.216 C 7.168,-0.128 6.656,0 1.28,0 Z" style="" id="path268"/></g>
</g><path id="path156" style="fill:none;stroke:#000000;stroke-width:3;stroke-linecap:butt;stroke-linejoin:bevel;stroke-miterlimit:10;stroke-dasharray:none;stroke-opacity:1" d="m 2611,1039 v 107" inkscape:connector-curvature="0"/><g id="g158"><g aria-label="&#339;" transform="translate(2610,1034)" style="font-variant:normal;font-weight:normal;font-size:128px;font-family:'Opus Std';-inkscape-font-specification:OpusStd;writing-mode:lr-tb;fill:#000000;fill-opacity:1;fill-rule:nonzero;stroke:none" id="text162"><path d="m 14.336,16.64 c 13.184,0 29.44,-11.008 29.44,-22.272 0,-6.784 -6.016,-11.136 -14.592,-11.136 C 16.256,-16.768 0,-6.016 0,5.504 0,12.544 6.272,16.64 14.336,16.64 Z" style="" id="path271"/></g>
</g><g id="g164"><g aria-label="R" transform="translate(2610,1114)" style="font-variant:normal;font-weight:normal;font-size:128px;font-family:'Opus Std';-inkscape-font-specification:OpusStd;writing-mode:lr-tb;fill:#000000;fill-opacity:1;fill-rule:nonzero;stroke:none" id="text168"><path d="m 38.016,-52.352 c 0,-2.688 -3.84,-21.376 -8.448,-21.376 -0.64,0 -1.024,0.384 -1.024,1.024 0,0.512 0.256,1.28 0.768,2.432 2.688,6.016 3.968,11.392 3.968,16 0,5.504 -1.92,10.496 -5.888,14.976 -2.176,2.56 -15.744,14.848 -26.112,14.848 v 56.32 c 1.152,0 1.664,0 1.664,-0.128 -0.128,-0.256 -0.128,-0.64 -0.128,-1.024 0,-0.384 0,-0.768 0.128,-1.152 3.456,-9.472 7.936,-18.176 14.08,-25.856 4.48,-5.632 9.728,-10.624 14.464,-16.128 5.12,-6.016 7.424,-12.928 7.424,-19.584 0,-4.736 -0.64,-8.448 -2.048,-11.264 0.768,-2.688 1.152,-5.632 1.152,-9.088 z m -3.456,18.304 c 0,5.76 -2.304,11.008 -6.912,16 -1.024,1.152 -5.76,5.12 -14.08,12.16 -3.2,2.688 -5.888,4.224 -7.936,4.864 3.072,-6.912 6.912,-13.312 11.392,-19.2 1.792,-2.304 15.232,-13.056 17.408,-17.408 0.128,1.664 0.128,2.816 0.128,3.584 z" style="" id="path274"/></g>
</g><path id="path170" style="fill:none;stroke:#000000;stroke-width:3;stroke-linecap:butt;stroke-linejoin:bevel;stroke-miterlimit:10;stroke-dasharray:none;stroke-opacity:1" d="m 3129,1039 v 131" inkscape:connector-curvature="0"/><g id="g172"><g aria-label="&#339;" transform="translate(3128,1034)" style="font-variant:normal;font-weight:normal;font-size:128px;font-family:'Opus Std';-inkscape-font-specification:OpusStd;writing-mode:lr-tb;fill:#000000;fill-opacity:1;fill-rule:nonzero;stroke:none" id="text176"><path d="m 14.336,16.64 c 13.184,0 29.44,-11.008 29.44,-22.272 0,-6.784 -6.016,-11.136 -14.592,-11.136 C 16.256,-16.768 0,-6.016 0,5.504 0,12.544 6.272,16.64 14.336,16.64 Z" style="" id="path277"/></g>
</g><g id="g178"><g aria-label="R" transform="translate(3128,1114)" style="font-variant:normal;font-weight:normal;font-size:128px;font-family:'Opus Std';-inkscape-font-specification:OpusStd;writing-mode:lr-tb;fill:#000000;fill-opacity:1;fill-rule:nonzero;stroke:none" id="text182"><path d="m 38.016,-52.352 c 0,-2.688 -3.84,-21.376 -8.448,-21.376 -0.64,0 -1.024,0.384 -1.024,1.024 0,0.512 0.256,1.28 0.768,2.432 2.688,6.016 3.968,11.392 3.968,16 0,5.504 -1.92,10.496 -5.888,14.976 -2.176,2.56 -15.744,14.848 -26.112,14.848 v 56.32 c 1.152,0 1.664,0 1.664,-0.128 -0.128,-0.256 -0.128,-0.64 -0.128,-1.024 0,-0.384 0,-0.768 0.128,-1.152 3.456,-9.472 7.936,-18.176 14.08,-25.856 4.48,-5.632 9.728,-10.624 14.464,-16.128 5.12,-6.016 7.424,-12.928 7.424,-19.584 0,-4.736 -0.64,-8.448 -2.048,-11.264 0.768,-2.688 1.152,-5.632 1.152,-9.088 z m -3.456,18.304 c 0,5.76 -2.304,11.008 -6.912,16 -1.024,1.152 -5.76,5.12 -14.08,12.16 -3.2,2.688 -5.888,4.224 -7.936,4.864 3.072,-6.912 6.912,-13.312 11.392,-19.2 1.792,-2.304 15.232,-13.056 17.408,-17.408 0.128,1.664 0.128,2.816 0.128,3.584 z" style="" id="path280"/></g>
</g><g id="g184"><g aria-label="&#212;" transform="translate(3128,1138)" style="font-variant:normal;font-weight:normal;font-size:128px;font-family:'Opus Std';-inkscape-font-specification:OpusStd;writing-mode:lr-tb;fill:#000000;fill-opacity:1;fill-rule:nonzero;stroke:none" id="text188"><path d="m 1.28,0.768 v 31.104 c 1.152,0 1.664,0 1.664,-0.128 -0.128,-0.256 -0.256,-0.64 -0.256,-1.024 0,-0.384 0.128,-0.768 0.256,-1.152 3.328,-9.344 7.936,-18.304 14.08,-25.856 4.608,-5.632 9.856,-10.88 14.464,-16.768 5.12,-6.528 7.296,-13.568 7.424,-20.224 0,-5.12 -1.024,-9.6 -3.072,-13.312 l -3.072,4.992 c 1.152,2.176 1.792,4.352 1.792,6.272 0,5.76 -2.304,11.392 -6.912,16.64 C 25.6,-16.256 8.064,0.512 1.28,0.768 Z" style="" id="path283"/></g>
</g></g></g></g></g></svg>