<svg xmlns:dc="http://purl.org/dc/elements/1.1/" xmlns:cc="http://creativecommons.org/ns#" xmlns:rdf="http://www.w3.org/1999/02/22-rdf-syntax-ns#" xmlns:svg="http://www.w3.org/2000/svg" xmlns="http://www.w3.org/2000/svg" xmlns:sodipodi="http://sodipodi.sourceforge.net/DTD/sodipodi-0.dtd" xmlns:inkscape="http://www.inkscape.org/namespaces/inkscape" viewBox="0 0 153.88585 26.587111" height="39.880666500000004" width="230.828775" xml:space="preserve" id="svg2" version="1.1" sodipodi:docname="example_1-13.svg" inkscape:version="0.92.4 (5da689c313, 2019-01-14)" viewbox="0 0 230.828775 39.880666500000004"><sodipodi:namedview pagecolor="#ffffff" bordercolor="#666666" borderopacity="1" objecttolerance="10" gridtolerance="10" guidetolerance="10" inkscape:pageopacity="0" inkscape:pageshadow="2" inkscape:window-width="640" inkscape:window-height="480" id="namedview41" showgrid="false" inkscape:zoom="0.22348485" inkscape:cx="287.08815" inkscape:cy="-310.85537" inkscape:window-x="0" inkscape:window-y="0" inkscape:window-maximized="0" inkscape:current-layer="svg2"/><metadata id="metadata8"><rdf:RDF><cc:Work rdf:about=""><dc:format>image/svg+xml</dc:format><dc:type rdf:resource="http://purl.org/dc/dcmitype/StillImage"/></cc:Work></rdf:RDF></metadata><defs id="defs6"/><g transform="matrix(1.3333333,0,0,-1.3333333,-120.91185,865.44248)" id="g10"><g transform="matrix(0.06,0,0,-0.06,0,792)" id="g12"><g id="g14"><g id="g16"/></g><g id="g18"><g id="g20"/><g id="g22"/><g id="g24"/><g transform="matrix(2.5835866,0,0,2.5834802,2048.7842,2486.2764)" id="g26"><g id="g28"><g aria-label="=" transform="translate(0,71.875)" style="font-variant:normal;font-weight:normal;font-size:77px;font-family:'Times New Roman';-inkscape-font-specification:TimesNewRomanPSMT;writing-mode:lr-tb;fill:#000000;fill-opacity:1;fill-rule:nonzero;stroke:none" id="text32"><path d="M 1.3911133,-33.19873 H 41.958984 v 3.083007 H 1.3911133 Z m 0,12.256835 H 41.958984 v 3.083008 H 1.3911133 Z" style="" id="path43"/></g>
</g></g><g transform="scale(2.5835866,2.5834802)" id="g34"/><g transform="matrix(2.5835866,0,0,2.5834802,2891.0334,2486.2764)" id="g36"><g id="g38"><g aria-label="+" transform="translate(0,71.875)" style="font-variant:normal;font-weight:normal;font-size:77px;font-family:'Times New Roman';-inkscape-font-specification:TimesNewRomanPSMT;writing-mode:lr-tb;fill:#000000;fill-opacity:1;fill-rule:nonzero;stroke:none" id="text42"><path d="M 20.114746,-5.3012695 V -24.0625 H 1.3911133 v -3.083008 H 20.114746 v -18.686035 h 3.007813 v 18.686035 H 41.921387 V -24.0625 H 23.122559 v 18.7612305 z" style="" id="path47"/></g>
</g></g><g transform="scale(2.5835866,2.5834802)" id="g44"><path id="path46" style="fill:none;stroke:#000000;stroke-width:3;stroke-linecap:butt;stroke-linejoin:bevel;stroke-miterlimit:10;stroke-dasharray:none;stroke-opacity:1" d="M 628,1029 V 922" inkscape:connector-curvature="0"/><g id="g48"><g aria-label="&#339;" transform="translate(585,1034)" style="font-variant:normal;font-weight:normal;font-size:128px;font-family:'Opus Std';-inkscape-font-specification:OpusStd;writing-mode:lr-tb;fill:#000000;fill-opacity:1;fill-rule:nonzero;stroke:none" id="text52"><path d="m 14.336,16.64 c 13.184,0 29.44,-11.008 29.44,-22.272 0,-6.784 -6.016,-11.136 -14.592,-11.136 C 16.256,-16.768 0,-6.016 0,5.504 0,12.544 6.272,16.64 14.336,16.64 Z" style="" id="path50"/></g>
</g><g id="g54"><g aria-label="&#8482;" transform="translate(650,1034)" style="font-variant:normal;font-weight:normal;font-size:128px;font-family:'Opus Special Std';-inkscape-font-specification:OpusSpecialStd;writing-mode:lr-tb;fill:#000000;fill-opacity:1;fill-rule:nonzero;stroke:none" id="text58"><path d="m 0,-6.144 c -3.072,0 -5.888,2.688 -5.888,6.144 0,2.944 2.944,5.76 5.888,5.76 C 3.456,5.76 6.144,2.944 6.144,0 6.144,-3.456 3.456,-6.144 0,-6.144 Z" style="" id="path53"/></g>
</g><path id="path60" style="fill:none;stroke:#000000;stroke-width:3;stroke-linecap:butt;stroke-linejoin:bevel;stroke-miterlimit:10;stroke-dasharray:none;stroke-opacity:1" d="M 1012,1029 V 922" inkscape:connector-curvature="0"/><g id="g62"><g aria-label="&#339;" transform="translate(969,1034)" style="font-variant:normal;font-weight:normal;font-size:128px;font-family:'Opus Std';-inkscape-font-specification:OpusStd;writing-mode:lr-tb;fill:#000000;fill-opacity:1;fill-rule:nonzero;stroke:none" id="text66"><path d="m 14.336,16.64 c 13.184,0 29.44,-11.008 29.44,-22.272 0,-6.784 -6.016,-11.136 -14.592,-11.136 C 16.256,-16.768 0,-6.016 0,5.504 0,12.544 6.272,16.64 14.336,16.64 Z" style="" id="path56"/></g>
</g><path id="path68" style="fill:none;stroke:#000000;stroke-width:3;stroke-linecap:butt;stroke-linejoin:bevel;stroke-miterlimit:10;stroke-dasharray:none;stroke-opacity:1" d="M 1297,1029 V 922" inkscape:connector-curvature="0"/><g id="g70"><g aria-label="&#339;" transform="translate(1254,1034)" style="font-variant:normal;font-weight:normal;font-size:128px;font-family:'Opus Std';-inkscape-font-specification:OpusStd;writing-mode:lr-tb;fill:#000000;fill-opacity:1;fill-rule:nonzero;stroke:none" id="text74"><path d="m 14.336,16.64 c 13.184,0 29.44,-11.008 29.44,-22.272 0,-6.784 -6.016,-11.136 -14.592,-11.136 C 16.256,-16.768 0,-6.016 0,5.504 0,12.544 6.272,16.64 14.336,16.64 Z" style="" id="path59"/></g>
</g><g id="g76"><g aria-label="j" transform="translate(1296,954)" style="font-variant:normal;font-weight:normal;font-size:128px;font-family:'Opus Std';-inkscape-font-specification:OpusStd;writing-mode:lr-tb;fill:#000000;fill-opacity:1;fill-rule:nonzero;stroke:none" id="text80"><path d="m 1.28,0 c 6.4,0 8.576,2.432 12.288,5.12 10.368,7.296 15.616,15.36 15.616,24.32 v 0.64 C 28.928,41.6 28.8,42.496 25.472,49.92 c -0.512,1.152 -0.768,1.92 -0.768,2.432 0,0.64 0.384,1.024 1.024,1.024 1.28,0 7.808,-8.96 7.808,-25.344 v -0.64 C 33.536,21.888 32,16.64 28.928,11.776 28.032,10.24 24.064,4.992 17.024,-3.84 11.52,-10.88 6.784,-19.584 2.944,-29.696 2.816,-30.08 2.816,-30.464 2.816,-30.848 c 0,-0.384 0,-0.768 0.128,-1.024 C 3.072,-32 2.432,-32 1.28,-32 Z" style="" id="path62"/></g>
</g></g></g></g></g></svg>