<svg xmlns:dc="http://purl.org/dc/elements/1.1/" xmlns:cc="http://creativecommons.org/ns#" xmlns:rdf="http://www.w3.org/1999/02/22-rdf-syntax-ns#" xmlns:svg="http://www.w3.org/2000/svg" xmlns="http://www.w3.org/2000/svg" xmlns:sodipodi="http://sodipodi.sourceforge.net/DTD/sodipodi-0.dtd" xmlns:inkscape="http://www.inkscape.org/namespaces/inkscape" viewBox="0 0 452.54102 67.262138" height="100.89320699999999" width="678.81153" xml:space="preserve" id="svg2" version="1.1" sodipodi:docname="example_14-2.svg" inkscape:version="0.92.4 (5da689c313, 2019-01-14)" viewbox="0 0 678.81153 100.89320699999999"><sodipodi:namedview pagecolor="#ffffff" bordercolor="#666666" borderopacity="1" objecttolerance="10" gridtolerance="10" guidetolerance="10" inkscape:pageopacity="0" inkscape:pageshadow="2" inkscape:window-width="640" inkscape:window-height="480" id="namedview150" showgrid="false" inkscape:zoom="0.22348485" inkscape:cx="336.69301" inkscape:cy="-284.11945" inkscape:window-x="0" inkscape:window-y="0" inkscape:window-maximized="0" inkscape:current-layer="svg2"/><metadata id="metadata8"><rdf:RDF><cc:Work rdf:about=""><dc:format>image/svg+xml</dc:format><dc:type rdf:resource="http://purl.org/dc/dcmitype/StillImage"/></cc:Work></rdf:RDF></metadata><defs id="defs6"><clipPath id="clipPath28" clipPathUnits="userSpaceOnUse"><path style="clip-rule:evenodd" id="path26" d="m 1490.7295,2932.25 h 558.0547 v 129.174 h -558.0547 z" inkscape:connector-curvature="0"/></clipPath><clipPath id="clipPath58" clipPathUnits="userSpaceOnUse"><path style="clip-rule:evenodd" id="path56" d="m 2772.1884,2852.1621 h 558.0548 v 129.174 h -558.0548 z" inkscape:connector-curvature="0"/></clipPath><clipPath id="clipPath88" clipPathUnits="userSpaceOnUse"><path style="clip-rule:evenodd" id="path86" d="m 4038.1459,2772.0743 h 558.0547 v 129.174 h -558.0547 z" inkscape:connector-curvature="0"/></clipPath><clipPath id="clipPath118" clipPathUnits="userSpaceOnUse"><path style="clip-rule:evenodd" id="path116" d="M 5239.5137,2702.3203 H 5800.152 V 2803.076 H 5239.5137 Z" inkscape:connector-curvature="0"/></clipPath></defs><g transform="matrix(1.3333333,0,0,-1.3333333,-71.306988,879.38159)" id="g10"><g transform="matrix(0.06,0,0,-0.06,0,792)" id="g12"><g id="g14"><g id="g16"/></g><g id="g18"><g id="g20"/></g><g id="g22"><g clip-path="url(#clipPath28)" id="g24"><g id="g30"/><g id="g32"/><g transform="matrix(14.567535,0,0,12.110063,1490.7295,2932.25)" id="g34"><path id="path36" style="fill:none;stroke:#000000;stroke-width:2;stroke-linecap:butt;stroke-linejoin:bevel;stroke-miterlimit:10;stroke-dasharray:none;stroke-opacity:1" d="M 4.9,5.7 C 14.5,8.6 32.1,6.5 36.5,0.6" inkscape:connector-curvature="0"/></g><g id="g38"><path id="path40" style="fill:#000000;fill-opacity:1;fill-rule:nonzero;stroke:none" d="m 1553.3699,3048.5066 -62.6404,-78.7154 113.6268,-6.055 z" inkscape:connector-curvature="0"/></g><g transform="matrix(1.174852,0,0,1.0333921,1490.7295,2932.25)" id="g42"/></g></g><g id="g44"><g transform="matrix(1.174852,0,0,1.0333921,1490.7295,2932.25)" id="g46"/></g><g id="g48"><g transform="matrix(1.174852,0,0,1.0333921,1490.7295,2932.25)" id="g50"/></g><g id="g52"><g clip-path="url(#clipPath58)" id="g54"><g transform="matrix(1.174852,0,0,1.0333921,2772.1884,2852.1621)" id="g60"/><g id="g62"/><g transform="matrix(14.567535,0,0,12.110063,2772.1884,2852.1621)" id="g64"><path id="path66" style="fill:none;stroke:#000000;stroke-width:2;stroke-linecap:butt;stroke-linejoin:bevel;stroke-miterlimit:10;stroke-dasharray:none;stroke-opacity:1" d="M 4.9,5.7 C 14.5,8.6 32.1,6.5 36.5,0.6" inkscape:connector-curvature="0"/></g><g id="g68"><path id="path70" style="fill:#000000;fill-opacity:1;fill-rule:nonzero;stroke:none" d="m 2834.8288,2968.4187 -62.6404,-78.7154 113.6268,-6.055 z" inkscape:connector-curvature="0"/></g><g transform="matrix(1.174852,0,0,1.0333921,2772.1884,2852.1621)" id="g72"/></g></g><g id="g74"><g transform="matrix(1.174852,0,0,1.0333921,2772.1884,2852.1621)" id="g76"/></g><g id="g78"><g transform="matrix(1.174852,0,0,1.0333921,2772.1884,2852.1621)" id="g80"/></g><g id="g82"><g clip-path="url(#clipPath88)" id="g84"><g transform="matrix(1.174852,0,0,1.0333921,4038.1459,2772.0743)" id="g90"/><g id="g92"/><g transform="matrix(14.567535,0,0,12.110063,4038.1459,2772.0743)" id="g94"><path id="path96" style="fill:none;stroke:#000000;stroke-width:2;stroke-linecap:butt;stroke-linejoin:bevel;stroke-miterlimit:10;stroke-dasharray:none;stroke-opacity:1" d="M 4.9,5.7 C 14.5,8.6 32.1,6.5 36.5,0.6" inkscape:connector-curvature="0"/></g><g id="g98"><path id="path100" style="fill:#000000;fill-opacity:1;fill-rule:nonzero;stroke:none" d="m 4100.7863,2888.3309 -62.6404,-78.7155 113.6268,-6.055 z" inkscape:connector-curvature="0"/></g><g transform="matrix(1.174852,0,0,1.0333921,4038.1459,2772.0743)" id="g102"/></g></g><g id="g104"><g transform="matrix(1.174852,0,0,1.0333921,4038.1459,2772.0743)" id="g106"/></g><g id="g108"><g transform="matrix(1.174852,0,0,1.0333921,4038.1459,2772.0743)" id="g110"/></g><g id="g112"><g clip-path="url(#clipPath118)" id="g114"><g transform="matrix(1.1802911,0,0,1.151494,5239.5137,2702.3203)" id="g120"/><g id="g122"/><g transform="matrix(14.634977,0,0,13.434097,5239.5137,2702.3203)" id="g124"><path id="path126" style="fill:none;stroke:#000000;stroke-width:2;stroke-linecap:butt;stroke-linejoin:bevel;stroke-miterlimit:10;stroke-dasharray:none;stroke-opacity:1" d="m 0.7,2.5 c 5.1,5.2 22.9,5.1 32,0.8" inkscape:connector-curvature="0"/></g><g id="g128"><path id="path130" style="fill:#000000;fill-opacity:1;fill-rule:nonzero;stroke:none" d="m 5735.6394,2796.359 49.7589,-94.0387 -114.1528,8.0604 z" inkscape:connector-curvature="0"/></g><g transform="matrix(1.1802911,0,0,1.151494,5239.5137,2702.3203)" id="g132"/></g></g><g id="g134"><g transform="matrix(1.1802911,0,0,1.151494,5239.5137,2702.3203)" id="g136"/></g><g id="g138"><g transform="matrix(1.1802911,0,0,1.151494,5239.5137,2702.3203)" id="g140"/><g transform="scale(2.5835866,2.5834802)" id="g142"><path id="path144" style="fill:none;stroke:#000000;stroke-width:5;stroke-linecap:butt;stroke-linejoin:bevel;stroke-miterlimit:10;stroke-dasharray:none;stroke-opacity:1" d="m 2515,970 v 128" inkscape:connector-curvature="0"/><path id="path146" style="fill:none;stroke:#000000;stroke-width:5;stroke-linecap:butt;stroke-linejoin:bevel;stroke-miterlimit:10;stroke-dasharray:none;stroke-opacity:1" d="m 2532,970 v 128" inkscape:connector-curvature="0"/></g><g transform="matrix(2.5835866,0,0,2.5834802,653.64741,2555.3038)" id="g148"><g id="g150"/></g><g transform="scale(2.5835866,2.5834802)" id="g152"/><g transform="matrix(2.5835866,0,0,2.5834802,1377.0517,2162.0093)" id="g154"><g id="g156"><g aria-label="1" transform="translate(0,69.078125)" style="font-variant:normal;font-weight:normal;font-size:74px;font-family:'Times New Roman';-inkscape-font-specification:TimesNewRomanSchenker;writing-mode:lr-tb;fill:#000000;fill-opacity:1;fill-rule:nonzero;stroke:none" id="text160"><path d="m 8.671875,-44.19043 11.923828,-5.817382 h 1.192383 v 41.3720698 q 0,4.1191406 0.325195,5.1308594 0.361328,1.0117187 1.445313,1.5537109 1.083984,0.5419922 4.408203,0.6142578 V 0 H 9.5390625 v -1.3369141 q 3.4687505,-0.072266 4.4804685,-0.578125 1.011719,-0.5419922 1.40918,-1.4091797 0.397461,-0.9033203 0.397461,-5.3115234 V -35.084961 q 0,-5.347656 -0.361328,-6.865234 -0.25293,-1.15625 -0.939453,-1.698242 -0.650391,-0.541993 -1.589844,-0.541993 -1.336914,0 -3.7216798,1.120118 z" style="" id="path152"/></g>
</g></g><g transform="scale(2.5835866,2.5834802)" id="g162"/><g transform="matrix(2.5835866,0,0,2.5834802,2012.614,2162.0093)" id="g164"><g id="g166"><g aria-label="2" transform="translate(0,69.078125)" style="font-variant:normal;font-weight:normal;font-size:74px;font-family:'Times New Roman';-inkscape-font-specification:TimesNewRomanSchenker;writing-mode:lr-tb;fill:#000000;fill-opacity:1;fill-rule:nonzero;stroke:none" id="text170"><path d="M 33.928711,-9.4306641 30.496094,0 H 1.5898437 V -1.3369141 Q 14.344727,-12.97168 19.547852,-20.342773 q 5.203125,-7.371094 5.203125,-13.477539 0,-4.661133 -2.854493,-7.660157 -2.854492,-2.999023 -6.829101,-2.999023 -3.613281,0 -6.5039064,2.131836 -2.8544922,2.095703 -4.2275391,6.178711 H 2.9990234 q 0.9033204,-6.684571 4.625,-10.261719 3.7578126,-3.577148 9.3583986,-3.577148 5.961914,0 9.936523,3.830078 4.010742,3.830078 4.010742,9.033203 0,3.721679 -1.734375,7.443359 -2.673828,5.853516 -8.671875,12.393555 -8.99707,9.8281248 -11.2373042,11.8515623 H 22.077148 q 3.902344,0 5.456055,-0.2890625 1.589844,-0.2890625 2.854492,-1.15625 1.264649,-0.9033203 2.204102,-2.5292969 z" style="" id="path155"/></g>
</g></g><g transform="scale(2.5835866,2.5834802)" id="g172"/><g transform="matrix(2.5835866,0,0,2.5834802,2648.1763,2162.0093)" id="g174"><g id="g176"><g aria-label="3" transform="translate(0,69.078125)" style="font-variant:normal;font-weight:normal;font-size:74px;font-family:'Times New Roman';-inkscape-font-specification:TimesNewRomanSchenker;writing-mode:lr-tb;fill:#000000;fill-opacity:1;fill-rule:nonzero;stroke:none" id="text180"><path d="m 3.7578125,-39.673828 q 2.0957031,-4.950195 5.2753906,-7.624024 3.2158199,-2.70996 7.9853519,-2.70996 5.889648,0 9.033203,3.830078 2.384765,2.854492 2.384765,6.106445 0,5.347656 -6.720703,11.056641 4.516602,1.770507 6.829102,5.058593 2.3125,3.288086 2.3125,7.732422 0,6.3593752 -4.046875,11.020508 -5.275391,6.0703125 -15.28418,6.0703125 -4.9501951,0 -6.7568358,-1.22851563 -1.7705078,-1.22851557 -1.7705078,-2.63769527 0,-1.0478516 0.8310547,-1.8427735 0.8671875,-0.7949218 2.0595703,-0.7949218 0.9033203,0 1.8427735,0.2890625 0.6142578,0.180664 2.7822261,1.336914 2.167969,1.1201172 2.999024,1.3369141 1.336914,0.3974609 2.854492,0.3974609 3.685547,0 6.395508,-2.8544922 2.746094,-2.8544922 2.746094,-6.7568356 0,-2.854493 -1.264649,-5.564453 -0.939453,-2.023438 -2.05957,-3.071289 -1.553711,-1.445313 -4.263672,-2.601563 -2.709961,-1.192383 -5.52832,-1.192383 h -1.15625 v -1.083984 q 2.854492,-0.361328 5.708984,-2.05957 2.890625,-1.698243 4.191406,-4.083008 1.300782,-2.384766 1.300782,-5.239258 0,-3.72168 -2.348633,-5.998047 -2.3125,-2.3125 -5.78125,-2.3125 -5.6005862,0 -9.3583987,5.998047 z" style="" id="path158"/></g>
</g></g><g transform="scale(2.5835866,2.5834802)" id="g182"/><g transform="matrix(2.5835866,0,0,2.5834802,3283.7386,2162.0093)" id="g184"><g id="g186"><g aria-label="4" transform="translate(0,69.078125)" style="font-variant:normal;font-weight:normal;font-size:74px;font-family:'Times New Roman';-inkscape-font-specification:TimesNewRomanSchenker;writing-mode:lr-tb;fill:#000000;fill-opacity:1;fill-rule:nonzero;stroke:none" id="text190"><path d="m 34.43457,-18.066406 v 5.130859 H 27.858398 V 0 H 21.896484 V -12.935547 H 1.15625 v -4.625 l 22.727539,-32.447265 h 3.974609 v 31.941406 z m -12.538086,0 V -42.383789 L 4.6972656,-18.066406 Z" style="" id="path161"/></g>
</g></g><g transform="scale(2.5835866,2.5834802)" id="g192"/><g transform="matrix(2.5835866,0,0,2.5834802,3919.3009,2162.0093)" id="g194"><g id="g196"><g aria-label="5" transform="translate(0,69.078125)" style="font-variant:normal;font-weight:normal;font-size:74px;font-family:'Times New Roman';-inkscape-font-specification:TimesNewRomanSchenker;writing-mode:lr-tb;fill:#000000;fill-opacity:1;fill-rule:nonzero;stroke:none" id="text200"><path d="m 32.12207,-48.996094 -2.818359,6.142578 H 14.561523 l -3.21582,6.576172 q 9.575195,1.40918 15.175781,7.118164 4.805664,4.914063 4.805664,11.5625 0,3.866211 -1.589843,7.154297 -1.553711,3.2880861 -3.938477,5.6005861 -2.384766,2.3125 -5.311523,3.7216797 -4.155274,1.9873047 -8.527344,1.9873047 -4.4082032,0 -6.4316407,-1.48144531 -1.9873047,-1.51757809 -1.9873047,-3.32421879 0,-1.0117187 0.8310547,-1.7705078 0.8310547,-0.7949218 2.0957031,-0.7949218 0.9394532,0 1.6259766,0.2890625 0.7226563,0.2890625 2.420898,1.4814453 2.709961,1.8789062 5.492188,1.8789062 4.227539,0 7.407226,-3.1796875 3.215821,-3.2158203 3.215821,-7.8046873 0,-4.444336 -2.854492,-8.274414 -2.854493,-3.866211 -7.876953,-5.961914 -3.938477,-1.625977 -10.7314458,-1.878907 l 9.3945308,-19.041992 z" style="" id="path164"/></g>
</g></g><g transform="scale(2.5835866,2.5834802)" id="g202"/><g transform="matrix(2.5835866,0,0,2.5834802,4552.2796,2162.0093)" id="g204"><g id="g206"><g aria-label="6" transform="translate(0,69.078125)" style="font-variant:normal;font-weight:normal;font-size:74px;font-family:'Times New Roman';-inkscape-font-specification:TimesNewRomanSchenker;writing-mode:lr-tb;fill:#000000;fill-opacity:1;fill-rule:nonzero;stroke:none" id="text210"><path d="m 33.169922,-50.007812 v 1.336914 q -4.769531,0.469726 -7.804688,1.915039 -2.999023,1.409179 -5.961914,4.335937 -2.926758,2.926758 -4.877929,6.540039 -1.915039,3.577149 -3.215821,8.527344 5.203125,-3.577148 10.442383,-3.577148 5.022461,0 8.708008,4.046875 3.685547,4.046875 3.685547,10.40625 0,6.142578 -3.72168,11.2011714 -4.480469,6.1425781 -11.851562,6.1425781 -5.022461,0 -8.527344,-3.3242188 -6.8652345,-6.4677734 -6.8652345,-16.7656247 0,-6.576172 2.6376953,-12.501953 2.6376953,-5.925782 7.5156252,-10.514649 4.914062,-4.588867 9.394531,-6.178711 4.480469,-1.589843 8.34668,-1.589843 z m -22.474609,25.292968 q -0.650391,4.87793 -0.650391,7.876953 0,3.46875 1.264648,7.5517582 1.300782,4.046875 3.830078,6.4316406 1.842774,1.6982422 4.480469,1.6982422 3.143555,0 5.600586,-2.9628906 2.493164,-2.9628906 2.493164,-8.4550784 0,-6.178711 -2.457031,-10.695312 -2.457031,-4.516602 -6.973633,-4.516602 -1.373047,0 -2.96289,0.578125 -1.553711,0.578125 -4.625,2.493164 z" style="" id="path167"/></g>
</g></g><g transform="scale(2.5835866,2.5834802)" id="g212"/><g transform="matrix(2.5835866,0,0,2.5834802,5187.8419,2162.0093)" id="g214"><g id="g216"><g aria-label="7" transform="translate(0,69.078125)" style="font-variant:normal;font-weight:normal;font-size:74px;font-family:'Times New Roman';-inkscape-font-specification:TimesNewRomanSchenker;writing-mode:lr-tb;fill:#000000;fill-opacity:1;fill-rule:nonzero;stroke:none" id="text220"><path d="M 7.4433594,-48.996094 H 33.711914 v 1.373047 L 17.379883,1.0117187 H 13.333008 L 27.966797,-43.106445 H 14.489258 q -4.083008,0 -5.817383,0.975586 Q 5.6367187,-40.46875 3.7939453,-37 l -1.0478515,-0.397461 z" style="" id="path170"/></g>
</g></g><g transform="scale(2.5835866,2.5834802)" id="g222"/><g transform="matrix(2.5835866,0,0,2.5834802,5686.4741,2162.0093)" id="g224"><g id="g226"><g aria-label="8 (1)" transform="translate(0,69.078125)" style="font-variant:normal;font-weight:normal;font-size:74px;font-family:'Times New Roman';-inkscape-font-specification:TimesNewRomanSchenker;writing-mode:lr-tb;fill:#000000;fill-opacity:1;fill-rule:nonzero;stroke:none" id="text230"><path d="m 14.200195,-24.678711 q -5.8173825,-4.769531 -7.5156247,-7.660156 -1.6621094,-2.890625 -1.6621094,-5.998047 0,-4.769531 3.6855469,-8.202148 3.6855472,-3.46875 9.7919922,-3.46875 5.925781,0 9.539062,3.21582 3.613282,3.21582 3.613282,7.334961 0,2.746094 -1.951172,5.600586 -1.951172,2.854492 -8.129883,6.720703 6.359375,4.914062 8.418945,7.732422 2.746094,3.685547 2.746094,7.768554 0,5.1669926 -3.938476,8.8525394 -3.938477,3.6494141 -10.333985,3.6494141 -6.973633,0 -10.8759764,-4.3720703 -3.1074219,-3.5048828 -3.1074219,-7.6601562 0,-3.251953 2.1679688,-6.431641 2.2041016,-3.21582 7.5517575,-7.082031 z m 5.672852,-3.866211 q 4.335937,-3.902344 5.492187,-6.142578 1.15625,-2.276367 1.15625,-5.130859 0,-3.793946 -2.131836,-5.925782 -2.131836,-2.167968 -5.817382,-2.167968 -3.685547,0 -5.998047,2.131836 -2.3125,2.131836 -2.3125,4.986328 0,1.878906 0.939453,3.757812 0.975586,1.878906 2.746094,3.577149 z m -3.974609,5.239258 q -2.999024,2.529297 -4.444336,5.52832 -1.445313,2.962891 -1.445313,6.431641 0,4.6611327 2.529297,7.4794921 2.56543,2.7822265 6.503906,2.7822265 3.902344,0 6.250977,-2.2041015 2.348633,-2.2041016 2.348633,-5.3476563 0,-2.6015628 -1.373047,-4.6611328 -2.56543,-3.830078 -10.370117,-10.008789 z" style="" id="path173"/><path d="m 78.480469,14.489258 v 1.336914 Q 73.024414,13.080078 69.375,9.3945313 64.171875,4.1552734 61.353516,-2.9628906 q -2.81836,-7.1181644 -2.81836,-14.7783204 0,-11.201172 5.528321,-20.415039 5.52832,-9.25 14.416992,-13.224609 v 1.517578 q -4.444336,2.457031 -7.298828,6.720703 -2.854493,4.263672 -4.263672,10.803711 -1.40918,6.540039 -1.40918,13.658203 0,7.732422 1.192383,14.055664 0.939453,4.98632813 2.276367,7.9853516 1.336914,3.0351562 3.577148,5.8173828 2.276368,2.7822266 5.925782,5.3115236 z" style="" id="path175"/><path d="m 88.8125,-44.19043 11.92383,-5.817382 h 1.19238 v 41.3720698 q 0,4.1191406 0.3252,5.1308594 0.36132,1.0117187 1.44531,1.5537109 1.08398,0.5419922 4.4082,0.6142578 V 0 H 89.679687 v -1.3369141 q 3.46875,-0.072266 4.480469,-0.578125 1.011719,-0.5419922 1.40918,-1.4091797 0.397461,-0.9033203 0.397461,-5.3115234 V -35.084961 q 0,-5.347656 -0.361328,-6.865234 -0.25293,-1.15625 -0.939453,-1.698242 -0.650391,-0.541993 -1.589844,-0.541993 -1.336914,0 -3.72168,1.120118 z" style="" id="path177"/><path d="m 118.80273,-49.863281 v -1.517578 q 5.49218,2.709961 9.1416,6.395507 5.16699,5.275391 7.98535,12.393555 2.81836,7.082031 2.81836,14.77832 0,11.2011723 -5.52832,20.4150395 -5.49219,9.2500005 -14.41699,13.2246095 v -1.336914 q 4.44433,-2.493164 7.29882,-6.7568361 2.89063,-4.2275391 4.26368,-10.7675782 1.40918,-6.5761718 1.40918,-13.6943357 0,-7.696289 -1.19239,-14.055664 -0.90332,-4.986328 -2.27636,-7.985352 -1.33692,-2.999023 -3.57715,-5.78125 -2.24024,-2.782226 -5.92578,-5.311523 z" style="" id="path179"/></g>
</g></g><g transform="scale(2.5835866,2.5834802)" id="g232"><path id="path234" style="fill:none;stroke:#000000;stroke-width:3;stroke-linecap:butt;stroke-linejoin:bevel;stroke-miterlimit:10;stroke-dasharray:none;stroke-opacity:1" d="M 345,1098 H 2534" inkscape:connector-curvature="0"/><path id="path236" style="fill:none;stroke:#000000;stroke-width:3;stroke-linecap:butt;stroke-linejoin:bevel;stroke-miterlimit:10;stroke-dasharray:none;stroke-opacity:1" d="M 345,1066 H 2534" inkscape:connector-curvature="0"/><path id="path238" style="fill:none;stroke:#000000;stroke-width:3;stroke-linecap:butt;stroke-linejoin:bevel;stroke-miterlimit:10;stroke-dasharray:none;stroke-opacity:1" d="M 345,1034 H 2534" inkscape:connector-curvature="0"/><path id="path240" style="fill:none;stroke:#000000;stroke-width:3;stroke-linecap:butt;stroke-linejoin:bevel;stroke-miterlimit:10;stroke-dasharray:none;stroke-opacity:1" d="M 345,1002 H 2534" inkscape:connector-curvature="0"/><path id="path242" style="fill:none;stroke:#000000;stroke-width:3;stroke-linecap:butt;stroke-linejoin:bevel;stroke-miterlimit:10;stroke-dasharray:none;stroke-opacity:1" d="M 345,970 H 2534" inkscape:connector-curvature="0"/><g id="g244"><g aria-label="&amp;" transform="translate(369,1066)" style="font-variant:normal;font-weight:normal;font-size:128px;font-family:'Opus Std';-inkscape-font-specification:OpusStd;writing-mode:lr-tb;fill:#000000;fill-opacity:1;fill-rule:nonzero;stroke:none" id="text248"><path d="m 66.944,28.032 4.864,23.68 c 0.256,1.408 0.384,2.688 0.384,3.968 0,12.544 -12.8,23.04 -26.624,23.04 -4.224,0 -8.32,-1.024 -12.16,-2.944 9.856,-1.024 17.28,-7.04 17.28,-15.872 0,-7.808 -6.4,-16 -14.592,-16 -9.344,0 -15.744,7.168 -15.744,16.512 0,13.056 10.624,21.632 23.424,21.632 17.152,0 31.744,-11.136 31.744,-27.136 0,-3.584 -5.632,-28.928 -5.504,-28.032 13.696,-6.656 23.04,-18.432 23.04,-30.848 0,-17.024 -13.696,-30.08 -30.72,-30.08 -0.256,0 -2.048,0.128 -5.12,0.384 l -5.632,-27.008 c 19.072,-16.128 27.776,-33.28 27.776,-52.096 0,-14.464 -5.76,-29.824 -17.408,-45.952 -13.184,10.624 -20.736,31.872 -20.736,54.528 0,8.064 1.024,15.872 2.816,23.296 -29.184,24.448 -43.776,46.976 -43.776,67.584 0,24.192 24.96,44.288 52.096,44.288 6.016,0 10.496,-0.896 14.592,-2.944 z M 66.56,-140.16 c 4.224,4.352 6.4,9.472 6.4,15.488 0,12.416 -8.832,26.368 -26.112,41.728 -0.896,-3.712 -1.152,-7.808 -1.152,-12.288 0,-21.504 7.936,-45.184 18.56,-45.184 0.896,0 1.664,0.128 2.304,0.256 z M 69.248,22.784 60.16,-19.968 c 1.792,-0.128 2.816,-0.256 3.2,-0.256 11.008,0 18.688,10.368 18.688,20.992 0,8.448 -4.48,15.872 -12.8,22.016 z m -12.288,-42.24 9.216,44.032 c -4.48,2.432 -9.472,3.456 -15.488,3.456 -20.736,0 -38.656,-15.488 -38.656,-34.304 0,-17.024 12.672,-34.56 36.608,-52.48 l 5.376,25.6 C 40.704,-30.336 29.44,-19.072 29.44,-6.4 c 0,10.752 7.68,18.304 19.2,20.096 C 41.6,9.344 38.144,3.84 38.144,-2.688 c 0,-8.832 8.192,-15.36 18.816,-16.768 z" style="" id="path182"/></g>
</g><path id="path250" style="fill:none;stroke:#000000;stroke-width:5;stroke-linecap:butt;stroke-linejoin:bevel;stroke-miterlimit:10;stroke-dasharray:none;stroke-opacity:1" d="m 517,1130 h 69" inkscape:connector-curvature="0"/><g id="g252"><g aria-label="&#729;" transform="translate(529,1130)" style="font-variant:normal;font-weight:normal;font-size:128px;font-family:'Opus Std';-inkscape-font-specification:OpusStd;writing-mode:lr-tb;fill:#000000;fill-opacity:1;fill-rule:nonzero;stroke:none" id="text256"><path d="m 0,5.888 c 0,7.168 7.04,11.392 15.744,11.392 14.592,0 29.312,-9.728 29.312,-21.76 0,-8.192 -6.912,-12.928 -17.536,-12.928 C 14.464,-17.408 0,-5.888 0,5.888 Z m 34.816,-19.456 c 4.864,0 7.296,2.048 7.296,6.016 0,7.424 -22.784,20.992 -31.872,20.992 -4.864,0 -7.296,-2.048 -7.296,-6.016 0,-7.936 23.68,-20.992 31.872,-20.992 z" style="" id="path185"/></g>
</g><g id="g258"><g aria-label="&#339;" transform="translate(775,1114)" style="font-variant:normal;font-weight:normal;font-size:128px;font-family:'Opus Std';-inkscape-font-specification:OpusStd;writing-mode:lr-tb;fill:#000000;fill-opacity:1;fill-rule:nonzero;stroke:none" id="text262"><path d="m 14.336,16.64 c 13.184,0 29.44,-11.008 29.44,-22.272 0,-6.784 -6.016,-11.136 -14.592,-11.136 C 16.256,-16.768 0,-6.016 0,5.504 0,12.544 6.272,16.64 14.336,16.64 Z" style="" id="path188"/></g>
</g><g id="g264"><g aria-label="&#729;" transform="translate(1021,1098)" style="font-variant:normal;font-weight:normal;font-size:128px;font-family:'Opus Std';-inkscape-font-specification:OpusStd;writing-mode:lr-tb;fill:#000000;fill-opacity:1;fill-rule:nonzero;stroke:none" id="text268"><path d="m 0,5.888 c 0,7.168 7.04,11.392 15.744,11.392 14.592,0 29.312,-9.728 29.312,-21.76 0,-8.192 -6.912,-12.928 -17.536,-12.928 C 14.464,-17.408 0,-5.888 0,5.888 Z m 34.816,-19.456 c 4.864,0 7.296,2.048 7.296,6.016 0,7.424 -22.784,20.992 -31.872,20.992 -4.864,0 -7.296,-2.048 -7.296,-6.016 0,-7.936 23.68,-20.992 31.872,-20.992 z" style="" id="path191"/></g>
</g><g id="g270"><g aria-label="&#339;" transform="translate(1267,1082)" style="font-variant:normal;font-weight:normal;font-size:128px;font-family:'Opus Std';-inkscape-font-specification:OpusStd;writing-mode:lr-tb;fill:#000000;fill-opacity:1;fill-rule:nonzero;stroke:none" id="text274"><path d="m 14.336,16.64 c 13.184,0 29.44,-11.008 29.44,-22.272 0,-6.784 -6.016,-11.136 -14.592,-11.136 C 16.256,-16.768 0,-6.016 0,5.504 0,12.544 6.272,16.64 14.336,16.64 Z" style="" id="path194"/></g>
</g><g id="g276"><g aria-label="&#729;" transform="translate(1513,1066)" style="font-variant:normal;font-weight:normal;font-size:128px;font-family:'Opus Std';-inkscape-font-specification:OpusStd;writing-mode:lr-tb;fill:#000000;fill-opacity:1;fill-rule:nonzero;stroke:none" id="text280"><path d="m 0,5.888 c 0,7.168 7.04,11.392 15.744,11.392 14.592,0 29.312,-9.728 29.312,-21.76 0,-8.192 -6.912,-12.928 -17.536,-12.928 C 14.464,-17.408 0,-5.888 0,5.888 Z m 34.816,-19.456 c 4.864,0 7.296,2.048 7.296,6.016 0,7.424 -22.784,20.992 -31.872,20.992 -4.864,0 -7.296,-2.048 -7.296,-6.016 0,-7.936 23.68,-20.992 31.872,-20.992 z" style="" id="path197"/></g>
</g><g id="g282"><g aria-label="&#339;" transform="translate(1758,1050)" style="font-variant:normal;font-weight:normal;font-size:128px;font-family:'Opus Std';-inkscape-font-specification:OpusStd;writing-mode:lr-tb;fill:#000000;fill-opacity:1;fill-rule:nonzero;stroke:none" id="text286"><path d="m 14.336,16.64 c 13.184,0 29.44,-11.008 29.44,-22.272 0,-6.784 -6.016,-11.136 -14.592,-11.136 C 16.256,-16.768 0,-6.016 0,5.504 0,12.544 6.272,16.64 14.336,16.64 Z" style="" id="path200"/></g>
</g><g id="g288"><g aria-label="&#339;" transform="translate(2004,1034)" style="font-variant:normal;font-weight:normal;font-size:128px;font-family:'Opus Std';-inkscape-font-specification:OpusStd;writing-mode:lr-tb;fill:#000000;fill-opacity:1;fill-rule:nonzero;stroke:none" id="text292"><path d="m 14.336,16.64 c 13.184,0 29.44,-11.008 29.44,-22.272 0,-6.784 -6.016,-11.136 -14.592,-11.136 C 16.256,-16.768 0,-6.016 0,5.504 0,12.544 6.272,16.64 14.336,16.64 Z" style="" id="path203"/></g>
</g><g id="g294"><g aria-label="&#729;" transform="translate(2250,1018)" style="font-variant:normal;font-weight:normal;font-size:128px;font-family:'Opus Std';-inkscape-font-specification:OpusStd;writing-mode:lr-tb;fill:#000000;fill-opacity:1;fill-rule:nonzero;stroke:none" id="text298"><path d="m 0,5.888 c 0,7.168 7.04,11.392 15.744,11.392 14.592,0 29.312,-9.728 29.312,-21.76 0,-8.192 -6.912,-12.928 -17.536,-12.928 C 14.464,-17.408 0,-5.888 0,5.888 Z m 34.816,-19.456 c 4.864,0 7.296,2.048 7.296,6.016 0,7.424 -22.784,20.992 -31.872,20.992 -4.864,0 -7.296,-2.048 -7.296,-6.016 0,-7.936 23.68,-20.992 31.872,-20.992 z" style="" id="path206"/></g>
</g></g></g></g></g></svg>