<svg xmlns:dc="http://purl.org/dc/elements/1.1/" xmlns:cc="http://creativecommons.org/ns#" xmlns:rdf="http://www.w3.org/1999/02/22-rdf-syntax-ns#" xmlns:svg="http://www.w3.org/2000/svg" xmlns="http://www.w3.org/2000/svg" xmlns:sodipodi="http://sodipodi.sourceforge.net/DTD/sodipodi-0.dtd" xmlns:inkscape="http://www.inkscape.org/namespaces/inkscape" viewBox="0 0 277.89056 83.606491" height="125.40973650000001" width="416.83583999999996" xml:space="preserve" id="svg2" version="1.1" sodipodi:docname="example_12-23.svg" inkscape:version="0.92.4 (5da689c313, 2019-01-14)" viewbox="0 0 416.83583999999996 125.40973650000001"><sodipodi:namedview pagecolor="#ffffff" bordercolor="#666666" borderopacity="1" objecttolerance="10" gridtolerance="10" guidetolerance="10" inkscape:pageopacity="0" inkscape:pageshadow="2" inkscape:window-width="640" inkscape:window-height="480" id="namedview83" showgrid="false" inkscape:zoom="0.22348485" inkscape:cx="336.69301" inkscape:cy="-348.02347" inkscape:window-x="0" inkscape:window-y="0" inkscape:window-maximized="0" inkscape:current-layer="svg2"/><metadata id="metadata8"><rdf:RDF><cc:Work rdf:about=""><dc:format>image/svg+xml</dc:format><dc:type rdf:resource="http://purl.org/dc/dcmitype/StillImage"/></cc:Work></rdf:RDF></metadata><defs id="defs6"/><g transform="matrix(1.3333333,0,0,-1.3333333,-71.306988,959.62996)" id="g10"><g transform="matrix(0.06,0,0,-0.06,0,792)" id="g12"><g id="g14"><g id="g16"/></g><g id="g18"><g id="g20"/><g transform="scale(2.5835866,2.5834802)" id="g22"><path id="path24" style="fill:none;stroke:#000000;stroke-width:5;stroke-linecap:butt;stroke-linejoin:bevel;stroke-miterlimit:10;stroke-dasharray:none;stroke-opacity:1" d="M 1066,529 V 657" inkscape:connector-curvature="0"/><path id="path26" style="fill:none;stroke:#000000;stroke-width:5;stroke-linecap:butt;stroke-linejoin:bevel;stroke-miterlimit:10;stroke-dasharray:none;stroke-opacity:1" d="M 1083,529 V 657" inkscape:connector-curvature="0"/><path id="path28" style="fill:none;stroke:#000000;stroke-width:5;stroke-linecap:butt;stroke-linejoin:bevel;stroke-miterlimit:10;stroke-dasharray:none;stroke-opacity:1" d="M 1670,529 V 657" inkscape:connector-curvature="0"/><path id="path30" style="fill:none;stroke:#000000;stroke-width:5;stroke-linecap:butt;stroke-linejoin:bevel;stroke-miterlimit:10;stroke-dasharray:none;stroke-opacity:1" d="M 1687,529 V 657" inkscape:connector-curvature="0"/></g><g transform="matrix(2.5835866,0,0,2.5834802,658.81459,1421.8826)" id="g32"><g id="g34"/></g><g transform="scale(2.5835866,2.5834802)" id="g36"><path id="path38" style="fill:none;stroke:#000000;stroke-width:3;stroke-linecap:butt;stroke-linejoin:bevel;stroke-miterlimit:10;stroke-dasharray:none;stroke-opacity:1" d="M 345,657 H 1689" inkscape:connector-curvature="0"/><path id="path40" style="fill:none;stroke:#000000;stroke-width:3;stroke-linecap:butt;stroke-linejoin:bevel;stroke-miterlimit:10;stroke-dasharray:none;stroke-opacity:1" d="M 345,625 H 1689" inkscape:connector-curvature="0"/><path id="path42" style="fill:none;stroke:#000000;stroke-width:3;stroke-linecap:butt;stroke-linejoin:bevel;stroke-miterlimit:10;stroke-dasharray:none;stroke-opacity:1" d="M 345,593 H 1689" inkscape:connector-curvature="0"/><path id="path44" style="fill:none;stroke:#000000;stroke-width:3;stroke-linecap:butt;stroke-linejoin:bevel;stroke-miterlimit:10;stroke-dasharray:none;stroke-opacity:1" d="M 345,561 H 1689" inkscape:connector-curvature="0"/><path id="path46" style="fill:none;stroke:#000000;stroke-width:3;stroke-linecap:butt;stroke-linejoin:bevel;stroke-miterlimit:10;stroke-dasharray:none;stroke-opacity:1" d="M 345,529 H 1689" inkscape:connector-curvature="0"/><g id="g48"><g aria-label="&amp;" transform="translate(369,625)" style="font-variant:normal;font-weight:normal;font-size:128px;font-family:'Opus Std';-inkscape-font-specification:OpusStd;writing-mode:lr-tb;fill:#000000;fill-opacity:1;fill-rule:nonzero;stroke:none" id="text52"><path d="m 66.944,28.032 4.864,23.68 c 0.256,1.408 0.384,2.688 0.384,3.968 0,12.544 -12.8,23.04 -26.624,23.04 -4.224,0 -8.32,-1.024 -12.16,-2.944 9.856,-1.024 17.28,-7.04 17.28,-15.872 0,-7.808 -6.4,-16 -14.592,-16 -9.344,0 -15.744,7.168 -15.744,16.512 0,13.056 10.624,21.632 23.424,21.632 17.152,0 31.744,-11.136 31.744,-27.136 0,-3.584 -5.632,-28.928 -5.504,-28.032 13.696,-6.656 23.04,-18.432 23.04,-30.848 0,-17.024 -13.696,-30.08 -30.72,-30.08 -0.256,0 -2.048,0.128 -5.12,0.384 l -5.632,-27.008 c 19.072,-16.128 27.776,-33.28 27.776,-52.096 0,-14.464 -5.76,-29.824 -17.408,-45.952 -13.184,10.624 -20.736,31.872 -20.736,54.528 0,8.064 1.024,15.872 2.816,23.296 -29.184,24.448 -43.776,46.976 -43.776,67.584 0,24.192 24.96,44.288 52.096,44.288 6.016,0 10.496,-0.896 14.592,-2.944 z M 66.56,-140.16 c 4.224,4.352 6.4,9.472 6.4,15.488 0,12.416 -8.832,26.368 -26.112,41.728 -0.896,-3.712 -1.152,-7.808 -1.152,-12.288 0,-21.504 7.936,-45.184 18.56,-45.184 0.896,0 1.664,0.128 2.304,0.256 z M 69.248,22.784 60.16,-19.968 c 1.792,-0.128 2.816,-0.256 3.2,-0.256 11.008,0 18.688,10.368 18.688,20.992 0,8.448 -4.48,15.872 -12.8,22.016 z m -12.288,-42.24 9.216,44.032 c -4.48,2.432 -9.472,3.456 -15.488,3.456 -20.736,0 -38.656,-15.488 -38.656,-34.304 0,-17.024 12.672,-34.56 36.608,-52.48 l 5.376,25.6 C 40.704,-30.336 29.44,-19.072 29.44,-6.4 c 0,10.752 7.68,18.304 19.2,20.096 C 41.6,9.344 38.144,3.84 38.144,-2.688 c 0,-8.832 8.192,-15.36 18.816,-16.768 z" style="" id="path85"/></g>
</g></g><g transform="matrix(2.5835866,0,0,2.5834802,1377.0517,2069.004)" id="g54"><g id="g56"><g aria-label="6" transform="translate(0,69.078125)" style="font-variant:normal;font-weight:normal;font-size:74px;font-family:'Times New Roman';-inkscape-font-specification:TimesNewRomanPSMT;writing-mode:lr-tb;fill:#000000;fill-opacity:1;fill-rule:nonzero;stroke:none" id="text60"><path d="m 33.169922,-50.007812 v 1.336914 q -4.769531,0.469726 -7.804688,1.915039 -2.999023,1.409179 -5.961914,4.335937 -2.926758,2.926758 -4.877929,6.540039 -1.915039,3.577149 -3.215821,8.527344 5.203125,-3.577148 10.442383,-3.577148 5.022461,0 8.708008,4.046875 3.685547,4.046875 3.685547,10.40625 0,6.142578 -3.72168,11.2011714 -4.480469,6.1425781 -11.851562,6.1425781 -5.022461,0 -8.527344,-3.3242188 -6.8652345,-6.4677734 -6.8652345,-16.7656247 0,-6.576172 2.6376953,-12.501953 2.6376953,-5.925782 7.5156252,-10.514649 4.914062,-4.588867 9.394531,-6.178711 4.480469,-1.589843 8.34668,-1.589843 z m -22.474609,25.292968 q -0.650391,4.87793 -0.650391,7.876953 0,3.46875 1.264648,7.5517582 1.300782,4.046875 3.830078,6.4316406 1.842774,1.6982422 4.480469,1.6982422 3.143555,0 5.600586,-2.9628906 2.493164,-2.9628906 2.493164,-8.4550784 0,-6.178711 -2.457031,-10.695312 -2.457031,-4.516602 -6.973633,-4.516602 -1.373047,0 -2.96289,0.578125 -1.553711,0.578125 -4.625,2.493164 z" style="" id="path88"/></g>
</g></g><g transform="scale(2.5835866,2.5834802)" id="g62"/><g transform="matrix(2.5835866,0,0,2.5834802,1997.1124,2069.004)" id="g64"><g id="g66"><g aria-label="10" transform="translate(0,69.078125)" style="font-variant:normal;font-weight:normal;font-size:74px;font-family:'Times New Roman';-inkscape-font-specification:TimesNewRomanPSMT;writing-mode:lr-tb;fill:#000000;fill-opacity:1;fill-rule:nonzero;stroke:none" id="text70"><path d="m 8.671875,-44.19043 11.923828,-5.817382 h 1.192383 v 41.3720698 q 0,4.1191406 0.325195,5.1308594 0.361328,1.0117187 1.445313,1.5537109 1.083984,0.5419922 4.408203,0.6142578 V 0 H 9.5390625 v -1.3369141 q 3.4687505,-0.072266 4.4804685,-0.578125 1.011719,-0.5419922 1.40918,-1.4091797 0.397461,-0.9033203 0.397461,-5.3115234 V -35.084961 q 0,-5.347656 -0.361328,-6.865234 -0.25293,-1.15625 -0.939453,-1.698242 -0.650391,-0.541993 -1.589844,-0.541993 -1.336914,0 -3.7216798,1.120118 z" style="" id="path91"/><path d="m 39.673828,-24.208984 q 0,-8.382813 2.529297,-14.416993 2.529297,-6.070312 6.720703,-9.033203 3.251953,-2.348632 6.720703,-2.348632 5.636719,0 10.117188,5.745117 5.600586,7.118164 5.600586,19.294922 0,8.527343 -2.457032,14.489257 -2.457031,5.9619144 -6.287109,8.6718754 -3.793945,2.6738281 -7.334961,2.6738281 -7.009766,0 -11.670898,-8.2744141 -3.938477,-6.9736324 -3.938477,-16.8017574 z m 7.082031,0.90332 q 0,10.117187 2.493164,16.5126953 2.059571,5.383789 6.142579,5.383789 1.951171,0 4.046875,-1.734375 2.095703,-1.7705078 3.179687,-5.8896484 1.662109,-6.2148439 1.662109,-17.5244139 0,-8.382813 -1.734375,-13.983399 -1.300781,-4.155273 -3.360351,-5.889648 -1.481445,-1.192383 -3.577149,-1.192383 -2.457031,0 -4.37207,2.204102 -2.601562,2.999023 -3.541016,9.430664 -0.939453,6.43164 -0.939453,12.682617 z" style="" id="path93"/></g>
</g></g><g transform="scale(2.5835866,2.5834802)" id="g72"><path id="path74" style="fill:none;stroke:#000000;stroke-width:5;stroke-linecap:butt;stroke-linejoin:bevel;stroke-miterlimit:10;stroke-dasharray:none;stroke-opacity:1" d="M 585,603 778,705" inkscape:connector-curvature="0"/><path id="path76" style="fill:none;stroke:#000000;stroke-width:5;stroke-linecap:butt;stroke-linejoin:bevel;stroke-miterlimit:10;stroke-dasharray:none;stroke-opacity:1" d="M 585,673 778,571" inkscape:connector-curvature="0"/><g id="g78"><g aria-label="-" transform="translate(659,870)" style="font-variant:normal;font-weight:normal;font-size:74px;font-family:'Times New Roman';-inkscape-font-specification:TimesNewRomanPSMT;writing-mode:lr-tb;fill:#000000;fill-opacity:1;fill-rule:nonzero;stroke:none" id="text82"><path d="M 2.9990234,-19.331055 H 21.679687 V -13.875 H 2.9990234 Z" style="" id="path96"/></g>
</g></g><g transform="matrix(2.5835866,0,0,2.5834802,2888.4498,2069.004)" id="g84"><g id="g86"><g aria-label="10" transform="translate(0,69.078125)" style="font-variant:normal;font-weight:normal;font-size:74px;font-family:'Times New Roman';-inkscape-font-specification:TimesNewRomanPSMT;writing-mode:lr-tb;fill:#000000;fill-opacity:1;fill-rule:nonzero;stroke:none" id="text90"><path d="m 8.671875,-44.19043 11.923828,-5.817382 h 1.192383 v 41.3720698 q 0,4.1191406 0.325195,5.1308594 0.361328,1.0117187 1.445313,1.5537109 1.083984,0.5419922 4.408203,0.6142578 V 0 H 9.5390625 v -1.3369141 q 3.4687505,-0.072266 4.4804685,-0.578125 1.011719,-0.5419922 1.40918,-1.4091797 0.397461,-0.9033203 0.397461,-5.3115234 V -35.084961 q 0,-5.347656 -0.361328,-6.865234 -0.25293,-1.15625 -0.939453,-1.698242 -0.650391,-0.541993 -1.589844,-0.541993 -1.336914,0 -3.7216798,1.120118 z" style="" id="path99"/><path d="m 39.673828,-24.208984 q 0,-8.382813 2.529297,-14.416993 2.529297,-6.070312 6.720703,-9.033203 3.251953,-2.348632 6.720703,-2.348632 5.636719,0 10.117188,5.745117 5.600586,7.118164 5.600586,19.294922 0,8.527343 -2.457032,14.489257 -2.457031,5.9619144 -6.287109,8.6718754 -3.793945,2.6738281 -7.334961,2.6738281 -7.009766,0 -11.670898,-8.2744141 -3.938477,-6.9736324 -3.938477,-16.8017574 z m 7.082031,0.90332 q 0,10.117187 2.493164,16.5126953 2.059571,5.383789 6.142579,5.383789 1.951171,0 4.046875,-1.734375 2.095703,-1.7705078 3.179687,-5.8896484 1.662109,-6.2148439 1.662109,-17.5244139 0,-8.382813 -1.734375,-13.983399 -1.300781,-4.155273 -3.360351,-5.889648 -1.481445,-1.192383 -3.577149,-1.192383 -2.457031,0 -4.37207,2.204102 -2.601562,2.999023 -3.541016,9.430664 -0.939453,6.43164 -0.939453,12.682617 z" style="" id="path101"/></g>
</g></g><g transform="scale(2.5835866,2.5834802)" id="g92"/><g transform="matrix(2.5835866,0,0,2.5834802,3606.6869,2069.004)" id="g94"><g id="g96"><g aria-label="6" transform="translate(0,69.078125)" style="font-variant:normal;font-weight:normal;font-size:74px;font-family:'Times New Roman';-inkscape-font-specification:TimesNewRomanPSMT;writing-mode:lr-tb;fill:#000000;fill-opacity:1;fill-rule:nonzero;stroke:none" id="text100"><path d="m 33.169922,-50.007812 v 1.336914 q -4.769531,0.469726 -7.804688,1.915039 -2.999023,1.409179 -5.961914,4.335937 -2.926758,2.926758 -4.877929,6.540039 -1.915039,3.577149 -3.215821,8.527344 5.203125,-3.577148 10.442383,-3.577148 5.022461,0 8.708008,4.046875 3.685547,4.046875 3.685547,10.40625 0,6.142578 -3.72168,11.2011714 -4.480469,6.1425781 -11.851562,6.1425781 -5.022461,0 -8.527344,-3.3242188 -6.8652345,-6.4677734 -6.8652345,-16.7656247 0,-6.576172 2.6376953,-12.501953 2.6376953,-5.925782 7.5156252,-10.514649 4.914062,-4.588867 9.394531,-6.178711 4.480469,-1.589843 8.34668,-1.589843 z m -22.474609,25.292968 q -0.650391,4.87793 -0.650391,7.876953 0,3.46875 1.264648,7.5517582 1.300782,4.046875 3.830078,6.4316406 1.842774,1.6982422 4.480469,1.6982422 3.143555,0 5.600586,-2.9628906 2.493164,-2.9628906 2.493164,-8.4550784 0,-6.178711 -2.457031,-10.695312 -2.457031,-4.516602 -6.973633,-4.516602 -1.373047,0 -2.96289,0.578125 -1.553711,0.578125 -4.625,2.493164 z" style="" id="path105"/></g>
</g></g><g transform="scale(2.5835866,2.5834802)" id="g102"><path id="path104" style="fill:none;stroke:#000000;stroke-width:5;stroke-linecap:butt;stroke-linejoin:bevel;stroke-miterlimit:10;stroke-dasharray:none;stroke-opacity:1" d="m 1189,571 193,102" inkscape:connector-curvature="0"/><path id="path106" style="fill:none;stroke:#000000;stroke-width:5;stroke-linecap:butt;stroke-linejoin:bevel;stroke-miterlimit:10;stroke-dasharray:none;stroke-opacity:1" d="M 1189,705 1382,603" inkscape:connector-curvature="0"/><g id="g108"><g aria-label="-" transform="translate(1282,870)" style="font-variant:normal;font-weight:normal;font-size:74px;font-family:'Times New Roman';-inkscape-font-specification:TimesNewRomanPSMT;writing-mode:lr-tb;fill:#000000;fill-opacity:1;fill-rule:nonzero;stroke:none" id="text112"><path d="M 2.9990234,-19.331055 H 21.679687 V -13.875 H 2.9990234 Z" style="" id="path108"/></g>
</g><g id="g114"><g aria-label="&#339;" transform="translate(529,673)" style="font-variant:normal;font-weight:normal;font-size:128px;font-family:'Opus Std';-inkscape-font-specification:OpusStd;writing-mode:lr-tb;fill:#000000;fill-opacity:1;fill-rule:nonzero;stroke:none" id="text118"><path d="m 14.336,16.64 c 13.184,0 29.44,-11.008 29.44,-22.272 0,-6.784 -6.016,-11.136 -14.592,-11.136 C 16.256,-16.768 0,-6.016 0,5.504 0,12.544 6.272,16.64 14.336,16.64 Z" style="" id="path111"/></g>
</g><g id="g120"><g aria-label="&#339;" transform="translate(529,593)" style="font-variant:normal;font-weight:normal;font-size:128px;font-family:'Opus Std';-inkscape-font-specification:OpusStd;writing-mode:lr-tb;fill:#000000;fill-opacity:1;fill-rule:nonzero;stroke:none" id="text124"><path d="m 14.336,16.64 c 13.184,0 29.44,-11.008 29.44,-22.272 0,-6.784 -6.016,-11.136 -14.592,-11.136 C 16.256,-16.768 0,-6.016 0,5.504 0,12.544 6.272,16.64 14.336,16.64 Z" style="" id="path114"/></g>
</g><path id="path126" style="fill:none;stroke:#000000;stroke-width:5;stroke-linecap:butt;stroke-linejoin:bevel;stroke-miterlimit:10;stroke-dasharray:none;stroke-opacity:1" d="m 776,689 h 68" inkscape:connector-curvature="0"/><g id="g128"><g aria-label="&#339;" transform="translate(788,705)" style="font-variant:normal;font-weight:normal;font-size:128px;font-family:'Opus Std';-inkscape-font-specification:OpusStd;writing-mode:lr-tb;fill:#000000;fill-opacity:1;fill-rule:nonzero;stroke:none" id="text132"><path d="m 14.336,16.64 c 13.184,0 29.44,-11.008 29.44,-22.272 0,-6.784 -6.016,-11.136 -14.592,-11.136 C 16.256,-16.768 0,-6.016 0,5.504 0,12.544 6.272,16.64 14.336,16.64 Z" style="" id="path117"/></g>
</g><g id="g134"><g aria-label="&#339;" transform="translate(788,561)" style="font-variant:normal;font-weight:normal;font-size:128px;font-family:'Opus Std';-inkscape-font-specification:OpusStd;writing-mode:lr-tb;fill:#000000;fill-opacity:1;fill-rule:nonzero;stroke:none" id="text138"><path d="m 14.336,16.64 c 13.184,0 29.44,-11.008 29.44,-22.272 0,-6.784 -6.016,-11.136 -14.592,-11.136 C 16.256,-16.768 0,-6.016 0,5.504 0,12.544 6.272,16.64 14.336,16.64 Z" style="" id="path120"/></g>
</g><path id="path140" style="fill:none;stroke:#000000;stroke-width:5;stroke-linecap:butt;stroke-linejoin:bevel;stroke-miterlimit:10;stroke-dasharray:none;stroke-opacity:1" d="m 1121,689 h 68" inkscape:connector-curvature="0"/><g id="g142"><g aria-label="&#339;" transform="translate(1133,705)" style="font-variant:normal;font-weight:normal;font-size:128px;font-family:'Opus Std';-inkscape-font-specification:OpusStd;writing-mode:lr-tb;fill:#000000;fill-opacity:1;fill-rule:nonzero;stroke:none" id="text146"><path d="m 14.336,16.64 c 13.184,0 29.44,-11.008 29.44,-22.272 0,-6.784 -6.016,-11.136 -14.592,-11.136 C 16.256,-16.768 0,-6.016 0,5.504 0,12.544 6.272,16.64 14.336,16.64 Z" style="" id="path123"/></g>
</g><g id="g148"><g aria-label="&#339;" transform="translate(1133,561)" style="font-variant:normal;font-weight:normal;font-size:128px;font-family:'Opus Std';-inkscape-font-specification:OpusStd;writing-mode:lr-tb;fill:#000000;fill-opacity:1;fill-rule:nonzero;stroke:none" id="text152"><path d="m 14.336,16.64 c 13.184,0 29.44,-11.008 29.44,-22.272 0,-6.784 -6.016,-11.136 -14.592,-11.136 C 16.256,-16.768 0,-6.016 0,5.504 0,12.544 6.272,16.64 14.336,16.64 Z" style="" id="path127"/></g>
</g><g id="g154"><g aria-label="&#339;" transform="translate(1392,673)" style="font-variant:normal;font-weight:normal;font-size:128px;font-family:'Opus Std';-inkscape-font-specification:OpusStd;writing-mode:lr-tb;fill:#000000;fill-opacity:1;fill-rule:nonzero;stroke:none" id="text158"><path d="m 14.336,16.64 c 13.184,0 29.44,-11.008 29.44,-22.272 0,-6.784 -6.016,-11.136 -14.592,-11.136 C 16.256,-16.768 0,-6.016 0,5.504 0,12.544 6.272,16.64 14.336,16.64 Z" style="" id="path130"/></g>
</g><g id="g160"><g aria-label="&#339;" transform="translate(1392,593)" style="font-variant:normal;font-weight:normal;font-size:128px;font-family:'Opus Std';-inkscape-font-specification:OpusStd;writing-mode:lr-tb;fill:#000000;fill-opacity:1;fill-rule:nonzero;stroke:none" id="text164"><path d="m 14.336,16.64 c 13.184,0 29.44,-11.008 29.44,-22.272 0,-6.784 -6.016,-11.136 -14.592,-11.136 C 16.256,-16.768 0,-6.016 0,5.504 0,12.544 6.272,16.64 14.336,16.64 Z" style="" id="path133"/></g>
</g></g></g></g></g></svg>